<?xml version="1.0" encoding="UTF-8" standalone="no"?><svg xmlns="http://www.w3.org/2000/svg" xmlns:xlink="http://www.w3.org/1999/xlink" clip-rule="evenodd" stroke-miterlimit="4.00" viewBox="0 0 188 43"><desc>SVG generated by Keynote</desc><defs></defs><g transform="matrix(1.00, 0.00, -0.00, -1.00, 0.0, 43.0)"><text xml:space="preserve" font-family="LucidaGrande" font-size="35.7" fill="#34A4DA" transform="matrix(1.00, 0.00, -0.00, -1.00, 0.0, 7.0)">▸</text><text xml:space="preserve" font-family="AvenirNext-Medium" font-size="34.0" fill="#838686" transform="matrix(1.00, 0.00, -0.00, -1.00, 35.0, 10.0)">A</text><text xml:space="preserve" font-family="AvenirNext-Medium" font-size="34.0" fill="#838686" transform="matrix(1.00, 0.00, -0.00, -1.00, 59.2, 10.0)">P</text><text xml:space="preserve" font-family="AvenirNext-Medium" font-size="34.0" fill="#838686" transform="matrix(1.00, 0.00, -0.00, -1.00, 79.4, 10.0)">I</text><text xml:space="preserve" font-family="AvenirNext-Medium" font-size="34.0" fill="#838686" transform="matrix(1.00, 0.00, -0.00, -1.00, 88.6, 10.0)"> </text><text xml:space="preserve" font-family="AvenirNext-Medium" font-size="34.0" fill="#838686" transform="matrix(1.00, 0.00, -0.00, -1.00, 97.1, 10.0)">/</text><text xml:space="preserve" font-family="AvenirNext-Medium" font-size="34.0" fill="#838686" transform="matrix(1.00, 0.00, -0.00, -1.00, 110.0, 10.0)"> </text><text xml:space="preserve" font-family="AvenirNext-Medium" font-size="34.0" fill="#838686" transform="matrix(1.00, 0.00, -0.00, -1.00, 118.5, 10.0)">S</text><text xml:space="preserve" font-family="AvenirNext-Medium" font-size="34.0" fill="#838686" transform="matrix(1.00, 0.00, -0.00, -1.00, 137.9, 10.0)">D</text><text xml:space="preserve" font-family="AvenirNext-Medium" font-size="34.0" fill="#838686" transform="matrix(1.00, 0.00, -0.00, -1.00, 163.8, 10.0)">K</text></g></svg>