<?xml version="1.0" encoding="UTF-8" standalone="no"?><svg xmlns="http://www.w3.org/2000/svg" xmlns:xlink="http://www.w3.org/1999/xlink" clip-rule="evenodd" stroke-miterlimit="4.00" viewBox="0 0 1024 768"><desc>SVG generated by Keynote</desc><defs></defs><g transform="matrix(1.00, 0.00, -0.00, -1.00, 0.0, 768.0)"><path d="M 0.0 768.0 L 1024.0 768.0 L 1024.0 0.0 L 0.0 0.0 Z M 0.0 768.0 " fill="#212121"></path><path d="M 0.0 0.0 L 528.0 0.0 " fill="none" stroke="#A6AAA8" stroke-width="3.00" transform="matrix(1.00, 0.00, 0.00, -1.00, 464.0, 284.5)"></path><g><clipPath id="clip-22"><path d="M 0.0 1294.0 L 1024.0 1294.0 L 1024.0 -526.0 L 0.0 -526.0 Z M 0.0 1294.2 "></path></clipPath><g clip-path="url(#clip-22)"><image xlink:href="D5C0300AF43DC2D61B28354404E18875.png" width="1366.00" height="706.00" transform="matrix(1.17, 0.00, -0.00, -1.17, -289.0, 777.0)"></image></g></g><text xml:space="preserve" font-family="DINCondensed-Bold" font-weight="bold" font-size="139.4" fill="#34A4DA" transform="matrix(1.00, 0.00, -0.00, -1.00, 468.0, 159.0)">D</text><text xml:space="preserve" font-family="DINCondensed-Bold" font-weight="bold" font-size="139.4" fill="#34A4DA" transform="matrix(1.00, 0.00, -0.00, -1.00, 525.7, 159.0)">A</text><text xml:space="preserve" font-family="DINCondensed-Bold" font-weight="bold" font-size="139.4" fill="#34A4DA" transform="matrix(1.00, 0.00, -0.00, -1.00, 574.8, 159.0)">T</text><text xml:space="preserve" font-family="DINCondensed-Bold" font-weight="bold" font-size="139.4" fill="#34A4DA" transform="matrix(1.00, 0.00, -0.00, -1.00, 613.4, 159.0)">A</text><text xml:space="preserve" font-family="DINCondensed-Bold" font-weight="bold" font-size="139.4" fill="#34A4DA" transform="matrix(1.00, 0.00, -0.00, -1.00, 670.1, 159.0)"> </text><text xml:space="preserve" font-family="DINCondensed-Bold" font-weight="bold" font-size="139.4" fill="#34A4DA" transform="matrix(1.00, 0.00, -0.00, -1.00, 696.1, 159.0)">N</text><text xml:space="preserve" font-family="DINCondensed-Bold" font-weight="bold" font-size="139.4" fill="#34A4DA" transform="matrix(1.00, 0.00, -0.00, -1.00, 758.0, 159.0)">O</text><text xml:space="preserve" font-family="DINCondensed-Bold" font-weight="bold" font-size="139.4" fill="#34A4DA" transform="matrix(1.00, 0.00, -0.00, -1.00, 817.3, 159.0)">D</text><text xml:space="preserve" font-family="DINCondensed-Bold" font-weight="bold" font-size="139.4" fill="#34A4DA" transform="matrix(1.00, 0.00, -0.00, -1.00, 876.7, 159.0)">E</text><text xml:space="preserve" font-family="DINCondensed-Bold" font-weight="bold" font-size="139.4" fill="#34A4DA" transform="matrix(1.00, 0.00, -0.00, -1.00, 928.3, 159.0)">S</text></g></svg>