<?xml version="1.0" encoding="UTF-8" standalone="no"?><svg xmlns="http://www.w3.org/2000/svg" xmlns:xlink="http://www.w3.org/1999/xlink" clip-rule="evenodd" stroke-miterlimit="4.00" viewBox="0 0 1024 768"><desc>SVG generated by Keynote</desc><defs></defs><g transform="matrix(1.00, 0.00, -0.00, -1.00, 0.0, 768.0)"><g><clipPath id="clip-1"><path d="M 0.0 768.0 L 1024.0 768.0 L 1024.0 0.0 L 0.0 0.0 Z M 0.0 768.0 "></path></clipPath><g clip-path="url(#clip-1)"><image xlink:href="../../530E9AF0-43D7-4833-AF5F-F344C0C97C42/assets/9567EC71375958882C162A10F0E4283F.jpeg" width="1025.00" height="767.00" transform="matrix(1.22, 0.00, -0.00, -1.23, 0.0, 768.0)"></image></g></g><path d="M 0.0 0.0 L 960.0 0.0 " fill="none" stroke="#A6AAA8" stroke-width="3.00" transform="matrix(1.00, 0.00, 0.00, -1.00, 32.0, 284.5)"></path><text xml:space="preserve" font-family="DINCondensed-Bold" font-weight="bold" font-size="125.8" fill="#34A4DA" transform="matrix(1.00, 0.00, -0.00, -1.00, 36.0, 168.0)">W</text><text xml:space="preserve" font-family="DINCondensed-Bold" font-weight="bold" font-size="125.8" fill="#34A4DA" transform="matrix(1.00, 0.00, -0.00, -1.00, 110.6, 168.0)">H</text><text xml:space="preserve" font-family="DINCondensed-Bold" font-weight="bold" font-size="125.8" fill="#34A4DA" transform="matrix(1.00, 0.00, -0.00, -1.00, 164.2, 168.0)">A</text><text xml:space="preserve" font-family="DINCondensed-Bold" font-weight="bold" font-size="125.8" fill="#34A4DA" transform="matrix(1.00, 0.00, -0.00, -1.00, 208.5, 168.0)">T</text><text xml:space="preserve" font-family="DINCondensed-Bold" font-weight="bold" font-size="125.8" fill="#34A4DA" transform="matrix(1.00, 0.00, -0.00, -1.00, 250.2, 168.0)"> </text><text xml:space="preserve" font-family="DINCondensed-Bold" font-weight="bold" font-size="125.8" fill="#34A4DA" transform="matrix(1.00, 0.00, -0.00, -1.00, 273.6, 168.0)">I</text><text xml:space="preserve" font-family="DINCondensed-Bold" font-weight="bold" font-size="125.8" fill="#34A4DA" transform="matrix(1.00, 0.00, -0.00, -1.00, 299.3, 168.0)">S</text><text xml:space="preserve" font-family="DINCondensed-Bold" font-weight="bold" font-size="125.8" fill="#34A4DA" transform="matrix(1.00, 0.00, -0.00, -1.00, 350.4, 168.0)"> </text><text xml:space="preserve" font-family="DINCondensed-Bold" font-weight="bold" font-size="125.8" fill="#34A4DA" transform="matrix(1.00, 0.00, -0.00, -1.00, 373.8, 168.0)">D</text><text xml:space="preserve" font-family="DINCondensed-Bold" font-weight="bold" font-size="125.8" fill="#34A4DA" transform="matrix(1.00, 0.00, -0.00, -1.00, 425.9, 168.0)">A</text><text xml:space="preserve" font-family="DINCondensed-Bold" font-weight="bold" font-size="125.8" fill="#34A4DA" transform="matrix(1.00, 0.00, -0.00, -1.00, 470.1, 168.0)">T</text><text xml:space="preserve" font-family="DINCondensed-Bold" font-weight="bold" font-size="125.8" fill="#34A4DA" transform="matrix(1.00, 0.00, -0.00, -1.00, 505.0, 168.0)">A</text><text xml:space="preserve" font-family="DINCondensed-Bold" font-weight="bold" font-size="125.8" fill="#34A4DA" transform="matrix(1.00, 0.00, -0.00, -1.00, 556.2, 168.0)"> </text><text xml:space="preserve" font-family="DINCondensed-Bold" font-weight="bold" font-size="125.8" fill="#34A4DA" transform="matrix(1.00, 0.00, -0.00, -1.00, 579.6, 168.0)">P</text><text xml:space="preserve" font-family="DINCondensed-Bold" font-weight="bold" font-size="125.8" fill="#34A4DA" transform="matrix(1.00, 0.00, -0.00, -1.00, 630.8, 168.0)">I</text><text xml:space="preserve" font-family="DINCondensed-Bold" font-weight="bold" font-size="125.8" fill="#34A4DA" transform="matrix(1.00, 0.00, -0.00, -1.00, 656.4, 168.0)">P</text><text xml:space="preserve" font-family="DINCondensed-Bold" font-weight="bold" font-size="125.8" fill="#34A4DA" transform="matrix(1.00, 0.00, -0.00, -1.00, 707.6, 168.0)">E</text><text xml:space="preserve" font-family="DINCondensed-Bold" font-weight="bold" font-size="125.8" fill="#34A4DA" transform="matrix(1.00, 0.00, -0.00, -1.00, 754.2, 168.0)">L</text><text xml:space="preserve" font-family="DINCondensed-Bold" font-weight="bold" font-size="125.8" fill="#34A4DA" transform="matrix(1.00, 0.00, -0.00, -1.00, 800.7, 168.0)">I</text><text xml:space="preserve" font-family="DINCondensed-Bold" font-weight="bold" font-size="125.8" fill="#34A4DA" transform="matrix(1.00, 0.00, -0.00, -1.00, 826.4, 168.0)">N</text><text xml:space="preserve" font-family="DINCondensed-Bold" font-weight="bold" font-size="125.8" fill="#34A4DA" transform="matrix(1.00, 0.00, -0.00, -1.00, 882.3, 168.0)">E</text><text xml:space="preserve" font-family="DINCondensed-Bold" font-weight="bold" font-size="125.8" fill="#34A4DA" transform="matrix(1.00, 0.00, -0.00, -1.00, 928.8, 168.0)">?</text></g></svg>