<?xml version="1.0" encoding="UTF-8" standalone="no"?><svg xmlns="http://www.w3.org/2000/svg" xmlns:xlink="http://www.w3.org/1999/xlink" clip-rule="evenodd" stroke-miterlimit="4.00" viewBox="0 0 1024 768"><desc>SVG generated by Keynote</desc><defs></defs><g transform="matrix(1.00, 0.00, -0.00, -1.00, 0.0, 768.0)"><path d="M 0.0 768.0 L 1024.0 768.0 L 1024.0 0.0 L 0.0 0.0 Z M 0.0 768.0 " fill="#FFFFFF"></path><path d="M 0.0 0.0 L 960.0 0.0 " fill="none" stroke="#A6AAA8" stroke-width="3.00" transform="matrix(1.00, 0.00, 0.00, -1.00, 32.0, 284.5)"></path><text xml:space="preserve" font-family="DINCondensed-Bold" font-weight="bold" font-size="161.5" fill="#34A4DA" transform="matrix(1.00, 0.00, -0.00, -1.00, 36.0, 143.0)">B</text><text xml:space="preserve" font-family="DINCondensed-Bold" font-weight="bold" font-size="161.5" fill="#34A4DA" transform="matrix(1.00, 0.00, -0.00, -1.00, 104.8, 143.0)">U</text><text xml:space="preserve" font-family="DINCondensed-Bold" font-weight="bold" font-size="161.5" fill="#34A4DA" transform="matrix(1.00, 0.00, -0.00, -1.00, 173.6, 143.0)">I</text><text xml:space="preserve" font-family="DINCondensed-Bold" font-weight="bold" font-size="161.5" fill="#34A4DA" transform="matrix(1.00, 0.00, -0.00, -1.00, 206.5, 143.0)">L</text><text xml:space="preserve" font-family="DINCondensed-Bold" font-weight="bold" font-size="161.5" fill="#34A4DA" transform="matrix(1.00, 0.00, -0.00, -1.00, 266.3, 143.0)">D</text><text xml:space="preserve" font-family="DINCondensed-Bold" font-weight="bold" font-size="161.5" fill="#34A4DA" transform="matrix(1.00, 0.00, -0.00, -1.00, 335.1, 143.0)"> </text><text xml:space="preserve" font-family="DINCondensed-Bold" font-weight="bold" font-size="161.5" fill="#34A4DA" transform="matrix(1.00, 0.00, -0.00, -1.00, 365.1, 143.0)">A</text><text xml:space="preserve" font-family="DINCondensed-Bold" font-weight="bold" font-size="161.5" fill="#34A4DA" transform="matrix(1.00, 0.00, -0.00, -1.00, 430.9, 143.0)">N</text><text xml:space="preserve" font-family="DINCondensed-Bold" font-weight="bold" font-size="161.5" fill="#34A4DA" transform="matrix(1.00, 0.00, -0.00, -1.00, 502.6, 143.0)">D</text><text xml:space="preserve" font-family="DINCondensed-Bold" font-weight="bold" font-size="161.5" fill="#34A4DA" transform="matrix(1.00, 0.00, -0.00, -1.00, 571.4, 143.0)"> </text><text xml:space="preserve" font-family="DINCondensed-Bold" font-weight="bold" font-size="161.5" fill="#34A4DA" transform="matrix(1.00, 0.00, -0.00, -1.00, 601.4, 143.0)">D</text><text xml:space="preserve" font-family="DINCondensed-Bold" font-weight="bold" font-size="161.5" fill="#34A4DA" transform="matrix(1.00, 0.00, -0.00, -1.00, 670.2, 143.0)">E</text><text xml:space="preserve" font-family="DINCondensed-Bold" font-weight="bold" font-size="161.5" fill="#34A4DA" transform="matrix(1.00, 0.00, -0.00, -1.00, 730.0, 143.0)">P</text><text xml:space="preserve" font-family="DINCondensed-Bold" font-weight="bold" font-size="161.5" fill="#34A4DA" transform="matrix(1.00, 0.00, -0.00, -1.00, 795.7, 143.0)">L</text><text xml:space="preserve" font-family="DINCondensed-Bold" font-weight="bold" font-size="161.5" fill="#34A4DA" transform="matrix(1.00, 0.00, -0.00, -1.00, 855.5, 143.0)">O</text><text xml:space="preserve" font-family="DINCondensed-Bold" font-weight="bold" font-size="161.5" fill="#34A4DA" transform="matrix(1.00, 0.00, -0.00, -1.00, 921.3, 143.0)">Y</text></g></svg>