<?xml version="1.0" encoding="UTF-8" standalone="no"?><svg xmlns="http://www.w3.org/2000/svg" xmlns:xlink="http://www.w3.org/1999/xlink" clip-rule="evenodd" stroke-miterlimit="4.00" viewBox="0 0 1024 768"><desc>SVG generated by Keynote</desc><defs></defs><g transform="matrix(1.00, 0.00, -0.00, -1.00, 0.0, 768.0)"><path d="M 0.0 768.0 L 1024.0 768.0 L 1024.0 0.0 L 0.0 0.0 Z M 0.0 768.0 " fill="#FFFFFF"></path><path d="M 0.0 0.0 L 960.0 0.0 " fill="none" stroke="#A6AAA9" stroke-width="2.00" transform="matrix(1.00, 0.00, 0.00, -1.00, 32.0, 689.8)"></path><path d="M 159.0 0.3 C 96.3 -4.0 44.7 34.1 4.2 114.5 L 3.8 115.4 " fill="none" stroke="#838786" stroke-width="2.00" transform="matrix(1.00, 0.00, 0.00, -1.00, 476.6, 278.1)"></path><path d="M 476.5 165.8 L 476.6 155.0 L 485.2 161.6 Z M 476.5 165.8 " fill="#838786"></path><path d="M 0.0 0.4 C 41.2 -2.9 74.2 15.0 99.1 54.0 L 99.6 54.9 " fill="none" stroke="#838786" stroke-width="2.00" transform="matrix(1.00, 0.00, 0.00, -1.00, 345.0, 209.6)"></path><path d="M 439.9 153.1 L 449.0 147.4 L 448.2 158.1 Z M 439.9 153.1 " fill="#838786"></path><path d="M 169.8 22.1 C 112.6 -0.7 59.1 -5.9 9.3 6.6 L 8.3 6.9 " fill="none" stroke="#838786" stroke-width="2.00" transform="matrix(1.00, 0.00, 0.00, -1.00, 603.7, 548.0)"></path><path d="M 611.7 546.0 L 603.7 538.9 L 614.3 536.8 Z M 611.7 546.0 " fill="#838786"></path><path d="M 0.0 0.0 L 37.1 0.0 L 38.1 0.0 " fill="none" stroke="#838786" stroke-width="2.00" transform="matrix(-0.86, 0.51, 0.51, 0.86, 641.1, 159.8)"></path><path d="M 611.7 182.9 L 601.0 183.7 L 606.8 174.6 Z M 611.7 182.9 " fill="#838786"></path><text xml:space="preserve" font-family="DINAlternate-Bold" font-weight="bold" font-size="24.0" fill="#838686" transform="matrix(1.00, 0.00, -0.00, -1.00, 36.0, 705.0)">T</text><text xml:space="preserve" font-family="DINAlternate-Bold" font-weight="bold" font-size="24.0" fill="#838686" transform="matrix(1.00, 0.00, -0.00, -1.00, 49.2, 705.0)">H</text><text xml:space="preserve" font-family="DINAlternate-Bold" font-weight="bold" font-size="24.0" fill="#838686" transform="matrix(1.00, 0.00, -0.00, -1.00, 66.0, 705.0)">E</text><text xml:space="preserve" font-family="DINAlternate-Bold" font-weight="bold" font-size="24.0" fill="#838686" transform="matrix(1.00, 0.00, -0.00, -1.00, 80.5, 705.0)"> </text><text xml:space="preserve" font-family="DINAlternate-Bold" font-weight="bold" font-size="24.0" fill="#838686" transform="matrix(1.00, 0.00, -0.00, -1.00, 87.5, 705.0)">C</text><text xml:space="preserve" font-family="DINAlternate-Bold" font-weight="bold" font-size="24.0" fill="#838686" transform="matrix(1.00, 0.00, -0.00, -1.00, 102.0, 705.0)">H</text><text xml:space="preserve" font-family="DINAlternate-Bold" font-weight="bold" font-size="24.0" fill="#838686" transform="matrix(1.00, 0.00, -0.00, -1.00, 118.8, 705.0)">A</text><text xml:space="preserve" font-family="DINAlternate-Bold" font-weight="bold" font-size="24.0" fill="#838686" transform="matrix(1.00, 0.00, -0.00, -1.00, 134.6, 705.0)">L</text><text xml:space="preserve" font-family="DINAlternate-Bold" font-weight="bold" font-size="24.0" fill="#838686" transform="matrix(1.00, 0.00, -0.00, -1.00, 149.1, 705.0)">L</text><text xml:space="preserve" font-family="DINAlternate-Bold" font-weight="bold" font-size="24.0" fill="#838686" transform="matrix(1.00, 0.00, -0.00, -1.00, 163.7, 705.0)">E</text><text xml:space="preserve" font-family="DINAlternate-Bold" font-weight="bold" font-size="24.0" fill="#838686" transform="matrix(1.00, 0.00, -0.00, -1.00, 178.2, 705.0)">N</text><text xml:space="preserve" font-family="DINAlternate-Bold" font-weight="bold" font-size="24.0" fill="#838686" transform="matrix(1.00, 0.00, -0.00, -1.00, 195.8, 705.0)">G</text><text xml:space="preserve" font-family="DINAlternate-Bold" font-weight="bold" font-size="24.0" fill="#838686" transform="matrix(1.00, 0.00, -0.00, -1.00, 211.7, 705.0)">E</text><text xml:space="preserve" font-family="DINCondensed-Bold" font-weight="bold" font-size="48.0" fill="#34A4DA" transform="matrix(1.00, 0.00, -0.00, -1.00, 36.0, 608.0)">E</text><text xml:space="preserve" font-family="DINCondensed-Bold" font-weight="bold" font-size="48.0" fill="#34A4DA" transform="matrix(1.00, 0.00, -0.00, -1.00, 53.8, 608.0)">X</text><text xml:space="preserve" font-family="DINCondensed-Bold" font-weight="bold" font-size="48.0" fill="#34A4DA" transform="matrix(1.00, 0.00, -0.00, -1.00, 72.4, 608.0)">T</text><text xml:space="preserve" font-family="DINCondensed-Bold" font-weight="bold" font-size="48.0" fill="#34A4DA" transform="matrix(1.00, 0.00, -0.00, -1.00, 88.4, 608.0)">E</text><text xml:space="preserve" font-family="DINCondensed-Bold" font-weight="bold" font-size="48.0" fill="#34A4DA" transform="matrix(1.00, 0.00, -0.00, -1.00, 106.1, 608.0)">N</text><text xml:space="preserve" font-family="DINCondensed-Bold" font-weight="bold" font-size="48.0" fill="#34A4DA" transform="matrix(1.00, 0.00, -0.00, -1.00, 127.4, 608.0)">D</text><text xml:space="preserve" font-family="DINCondensed-Bold" font-weight="bold" font-size="48.0" fill="#34A4DA" transform="matrix(1.00, 0.00, -0.00, -1.00, 147.9, 608.0)"> </text><text xml:space="preserve" font-family="DINCondensed-Bold" font-weight="bold" font-size="48.0" fill="#34A4DA" transform="matrix(1.00, 0.00, -0.00, -1.00, 156.8, 608.0)">T</text><text xml:space="preserve" font-family="DINCondensed-Bold" font-weight="bold" font-size="48.0" fill="#34A4DA" transform="matrix(1.00, 0.00, -0.00, -1.00, 172.8, 608.0)">H</text><text xml:space="preserve" font-family="DINCondensed-Bold" font-weight="bold" font-size="48.0" fill="#34A4DA" transform="matrix(1.00, 0.00, -0.00, -1.00, 193.2, 608.0)">E</text><text xml:space="preserve" font-family="DINCondensed-Bold" font-weight="bold" font-size="48.0" fill="#34A4DA" transform="matrix(1.00, 0.00, -0.00, -1.00, 211.0, 608.0)"> </text><text xml:space="preserve" font-family="DINCondensed-Bold" font-weight="bold" font-size="48.0" fill="#34A4DA" transform="matrix(1.00, 0.00, -0.00, -1.00, 219.9, 608.0)">P</text><text xml:space="preserve" font-family="DINCondensed-Bold" font-weight="bold" font-size="48.0" fill="#34A4DA" transform="matrix(1.00, 0.00, -0.00, -1.00, 239.4, 608.0)">I</text><text xml:space="preserve" font-family="DINCondensed-Bold" font-weight="bold" font-size="48.0" fill="#34A4DA" transform="matrix(1.00, 0.00, -0.00, -1.00, 249.2, 608.0)">P</text><text xml:space="preserve" font-family="DINCondensed-Bold" font-weight="bold" font-size="48.0" fill="#34A4DA" transform="matrix(1.00, 0.00, -0.00, -1.00, 268.8, 608.0)">E</text><text xml:space="preserve" font-family="DINCondensed-Bold" font-weight="bold" font-size="48.0" fill="#34A4DA" transform="matrix(1.00, 0.00, -0.00, -1.00, 286.5, 608.0)">L</text><text xml:space="preserve" font-family="DINCondensed-Bold" font-weight="bold" font-size="48.0" fill="#34A4DA" transform="matrix(1.00, 0.00, -0.00, -1.00, 304.3, 608.0)">I</text><text xml:space="preserve" font-family="DINCondensed-Bold" font-weight="bold" font-size="48.0" fill="#34A4DA" transform="matrix(1.00, 0.00, -0.00, -1.00, 314.1, 608.0)">N</text><text xml:space="preserve" font-family="DINCondensed-Bold" font-weight="bold" font-size="48.0" fill="#34A4DA" transform="matrix(1.00, 0.00, -0.00, -1.00, 335.4, 608.0)">E</text><text xml:space="preserve" font-family="DINCondensed-Bold" font-weight="bold" font-size="48.0" fill="#34A4DA" transform="matrix(1.00, 0.00, -0.00, -1.00, 353.1, 608.0)"> </text><text xml:space="preserve" font-family="DINCondensed-Bold" font-weight="bold" font-size="48.0" fill="#34A4DA" transform="matrix(1.00, 0.00, -0.00, -1.00, 362.1, 608.0)">T</text><text xml:space="preserve" font-family="DINCondensed-Bold" font-weight="bold" font-size="48.0" fill="#34A4DA" transform="matrix(1.00, 0.00, -0.00, -1.00, 377.4, 608.0)">O</text><text xml:space="preserve" font-family="DINCondensed-Bold" font-weight="bold" font-size="48.0" fill="#34A4DA" transform="matrix(1.00, 0.00, -0.00, -1.00, 397.9, 608.0)"> </text><text xml:space="preserve" font-family="DINCondensed-Bold" font-weight="bold" font-size="48.0" fill="#34A4DA" transform="matrix(1.00, 0.00, -0.00, -1.00, 406.8, 608.0)">C</text><text xml:space="preserve" font-family="DINCondensed-Bold" font-weight="bold" font-size="48.0" fill="#34A4DA" transform="matrix(1.00, 0.00, -0.00, -1.00, 426.3, 608.0)">O</text><text xml:space="preserve" font-family="DINCondensed-Bold" font-weight="bold" font-size="48.0" fill="#34A4DA" transform="matrix(1.00, 0.00, -0.00, -1.00, 446.8, 608.0)">P</text><text xml:space="preserve" font-family="DINCondensed-Bold" font-weight="bold" font-size="48.0" fill="#34A4DA" transform="matrix(1.00, 0.00, -0.00, -1.00, 466.3, 608.0)">Y</text><text xml:space="preserve" font-family="DINCondensed-Bold" font-weight="bold" font-size="48.0" fill="#34A4DA" transform="matrix(1.00, 0.00, -0.00, -1.00, 484.9, 608.0)"> </text><text xml:space="preserve" font-family="DINCondensed-Bold" font-weight="bold" font-size="48.0" fill="#34A4DA" transform="matrix(1.00, 0.00, -0.00, -1.00, 493.9, 608.0)">E</text><text xml:space="preserve" font-family="DINCondensed-Bold" font-weight="bold" font-size="48.0" fill="#34A4DA" transform="matrix(1.00, 0.00, -0.00, -1.00, 511.6, 608.0)">M</text><text xml:space="preserve" font-family="DINCondensed-Bold" font-weight="bold" font-size="48.0" fill="#34A4DA" transform="matrix(1.00, 0.00, -0.00, -1.00, 538.3, 608.0)">R</text><text xml:space="preserve" font-family="DINCondensed-Bold" font-weight="bold" font-size="48.0" fill="#34A4DA" transform="matrix(1.00, 0.00, -0.00, -1.00, 558.8, 608.0)"> </text><text xml:space="preserve" font-family="DINCondensed-Bold" font-weight="bold" font-size="48.0" fill="#34A4DA" transform="matrix(1.00, 0.00, -0.00, -1.00, 567.7, 608.0)">R</text><text xml:space="preserve" font-family="DINCondensed-Bold" font-weight="bold" font-size="48.0" fill="#34A4DA" transform="matrix(1.00, 0.00, -0.00, -1.00, 588.1, 608.0)">E</text><text xml:space="preserve" font-family="DINCondensed-Bold" font-weight="bold" font-size="48.0" fill="#34A4DA" transform="matrix(1.00, 0.00, -0.00, -1.00, 605.9, 608.0)">S</text><text xml:space="preserve" font-family="DINCondensed-Bold" font-weight="bold" font-size="48.0" fill="#34A4DA" transform="matrix(1.00, 0.00, -0.00, -1.00, 625.4, 608.0)">U</text><text xml:space="preserve" font-family="DINCondensed-Bold" font-weight="bold" font-size="48.0" fill="#34A4DA" transform="matrix(1.00, 0.00, -0.00, -1.00, 645.8, 608.0)">L</text><text xml:space="preserve" font-family="DINCondensed-Bold" font-weight="bold" font-size="48.0" fill="#34A4DA" transform="matrix(1.00, 0.00, -0.00, -1.00, 660.0, 608.0)">T</text><text xml:space="preserve" font-family="DINCondensed-Bold" font-weight="bold" font-size="48.0" fill="#34A4DA" transform="matrix(1.00, 0.00, -0.00, -1.00, 676.0, 608.0)">S</text><text xml:space="preserve" font-family="DINCondensed-Bold" font-weight="bold" font-size="48.0" fill="#34A4DA" transform="matrix(1.00, 0.00, -0.00, -1.00, 695.5, 608.0)"> </text><text xml:space="preserve" font-family="DINCondensed-Bold" font-weight="bold" font-size="48.0" fill="#34A4DA" transform="matrix(1.00, 0.00, -0.00, -1.00, 704.4, 608.0)">T</text><text xml:space="preserve" font-family="DINCondensed-Bold" font-weight="bold" font-size="48.0" fill="#34A4DA" transform="matrix(1.00, 0.00, -0.00, -1.00, 719.8, 608.0)">O</text><text xml:space="preserve" font-family="DINCondensed-Bold" font-weight="bold" font-size="48.0" fill="#34A4DA" transform="matrix(1.00, 0.00, -0.00, -1.00, 740.2, 608.0)"> </text><text xml:space="preserve" font-family="DINCondensed-Bold" font-weight="bold" font-size="48.0" fill="#34A4DA" transform="matrix(1.00, 0.00, -0.00, -1.00, 749.1, 608.0)">A</text><text xml:space="preserve" font-family="DINCondensed-Bold" font-weight="bold" font-size="48.0" fill="#34A4DA" transform="matrix(1.00, 0.00, -0.00, -1.00, 768.7, 608.0)">N</text><text xml:space="preserve" font-family="DINCondensed-Bold" font-weight="bold" font-size="48.0" fill="#34A4DA" transform="matrix(1.00, 0.00, -0.00, -1.00, 790.0, 608.0)"> </text><text xml:space="preserve" font-family="DINCondensed-Bold" font-weight="bold" font-size="48.0" fill="#34A4DA" transform="matrix(1.00, 0.00, -0.00, -1.00, 798.9, 608.0)">R</text><text xml:space="preserve" font-family="DINCondensed-Bold" font-weight="bold" font-size="48.0" fill="#34A4DA" transform="matrix(1.00, 0.00, -0.00, -1.00, 819.4, 608.0)">D</text><text xml:space="preserve" font-family="DINCondensed-Bold" font-weight="bold" font-size="48.0" fill="#34A4DA" transform="matrix(1.00, 0.00, -0.00, -1.00, 839.8, 608.0)">S</text><text xml:space="preserve" font-family="DINCondensed-Bold" font-weight="bold" font-size="48.0" fill="#34A4DA" transform="matrix(1.00, 0.00, -0.00, -1.00, 859.3, 608.0)"> </text><text xml:space="preserve" font-family="DINCondensed-Bold" font-weight="bold" font-size="48.0" fill="#34A4DA" transform="matrix(1.00, 0.00, -0.00, -1.00, 868.2, 608.0)">T</text><text xml:space="preserve" font-family="DINCondensed-Bold" font-weight="bold" font-size="48.0" fill="#34A4DA" transform="matrix(1.00, 0.00, -0.00, -1.00, 881.5, 608.0)">A</text><text xml:space="preserve" font-family="DINCondensed-Bold" font-weight="bold" font-size="48.0" fill="#34A4DA" transform="matrix(1.00, 0.00, -0.00, -1.00, 901.1, 608.0)">B</text><text xml:space="preserve" font-family="DINCondensed-Bold" font-weight="bold" font-size="48.0" fill="#34A4DA" transform="matrix(1.00, 0.00, -0.00, -1.00, 921.5, 608.0)">L</text><text xml:space="preserve" font-family="DINCondensed-Bold" font-weight="bold" font-size="48.0" fill="#34A4DA" transform="matrix(1.00, 0.00, -0.00, -1.00, 939.3, 608.0)">E</text><g><clipPath id="clip-78"><path d="M 634.0 213.0 L 716.0 213.0 L 716.0 324.0 L 634.0 324.0 Z M 634.0 213.0 "></path></clipPath><g clip-path="url(#clip-78)"><path d="M 645.5 310.2 L 645.5 299.0 L 636.1 293.5 Z M 645.7 310.2 " fill="#CBCDCF"></path><path d="M 787.5 494.8 L 787.5 506.0 L 778.1 511.5 Z M 787.7 494.8 " fill="none" stroke="#555454" stroke-width="1.00" stroke-miterlimit="0.00" stroke-linejoin="round" transform="matrix(1.00, 0.00, 0.00, -1.00, -142.0, 805.0)"></path><path d="M 703.5 299.0 L 703.5 310.2 L 713.0 293.5 Z M 703.4 299.0 " fill="#CBCDCF"></path><path d="M 845.5 506.0 L 845.5 494.8 L 855.0 511.5 Z M 845.4 506.0 " fill="none" stroke="#555454" stroke-width="1.00" stroke-miterlimit="0.00" stroke-linejoin="round" transform="matrix(1.00, 0.00, 0.00, -1.00, -142.0, 805.0)"></path><path d="M 645.5 299.0 L 664.9 287.5 L 684.2 287.5 L 703.5 299.0 L 703.5 310.2 L 684.2 320.5 L 664.9 320.5 L 645.5 310.2 Z M 645.7 299.0 " fill="#ECECEB"></path><path d="M 787.5 506.0 L 806.9 517.5 L 826.2 517.5 L 845.5 506.0 L 845.5 494.8 L 826.2 484.5 L 806.9 484.5 L 787.5 494.8 Z M 787.7 506.0 " fill="none" stroke="#555454" stroke-width="1.00" stroke-miterlimit="0.00" stroke-linejoin="round" transform="matrix(1.00, 0.00, 0.00, -1.00, -142.0, 805.0)"></path><path d="M 636.5 293.5 L 636.5 260.2 L 674.5 238.0 L 674.5 271.3 L 664.9 287.9 L 645.7 299.0 Z M 636.1 293.5 " fill="#CBCDCF"></path><path d="M 778.5 511.5 L 778.5 544.8 L 816.5 567.0 L 816.5 533.7 L 806.9 517.1 L 787.7 506.0 Z M 778.1 511.5 " fill="none" stroke="#555454" stroke-width="1.00" stroke-miterlimit="0.00" stroke-linejoin="round" transform="matrix(1.00, 0.00, 0.00, -1.00, -142.0, 805.0)"></path><path d="M 684.2 287.9 L 703.4 299.0 L 713.5 293.5 L 713.5 260.2 L 674.5 238.0 L 674.5 271.3 Z M 684.2 287.9 " fill="#B3B3B6"></path><path d="M 826.2 517.1 L 845.4 506.0 L 855.5 511.5 L 855.5 544.8 L 816.5 567.0 L 816.5 533.7 Z M 826.2 517.1 " fill="none" stroke="#555454" stroke-width="1.00" stroke-miterlimit="0.00" stroke-linejoin="round" transform="matrix(1.00, 0.00, 0.00, -1.00, -142.0, 805.0)"></path><path d="M 664.9 287.5 L 684.2 287.5 L 674.5 271.3 Z M 664.9 287.9 " fill="#ECECEB"></path><path d="M 806.9 517.5 L 826.2 517.5 L 816.5 533.7 Z M 806.9 517.1 " fill="none" stroke="#555454" stroke-width="1.00" stroke-miterlimit="0.00" stroke-linejoin="round" transform="matrix(1.00, 0.00, 0.00, -1.00, -142.0, 805.0)"></path><text xml:space="preserve" font-family="HelveticaNeue" font-size="10.0" fill="#000000" transform="matrix(1.00, 0.00, -0.00, -1.00, 644.2, 220.6)">E</text><text xml:space="preserve" font-family="HelveticaNeue" font-size="10.0" fill="#000000" transform="matrix(1.00, 0.00, -0.00, -1.00, 650.3, 220.6)">C</text><text xml:space="preserve" font-family="HelveticaNeue" font-size="10.0" fill="#000000" transform="matrix(1.00, 0.00, -0.00, -1.00, 657.6, 220.6)">2</text><text xml:space="preserve" font-family="HelveticaNeue" font-size="10.0" fill="#000000" transform="matrix(1.00, 0.00, -0.00, -1.00, 663.1, 220.6)"> </text><text xml:space="preserve" font-family="HelveticaNeue" font-size="10.0" fill="#000000" transform="matrix(1.00, 0.00, -0.00, -1.00, 665.9, 220.6)">r</text><text xml:space="preserve" font-family="HelveticaNeue" font-size="10.0" fill="#000000" transform="matrix(1.00, 0.00, -0.00, -1.00, 669.0, 220.6)">e</text><text xml:space="preserve" font-family="HelveticaNeue" font-size="10.0" fill="#000000" transform="matrix(1.00, 0.00, -0.00, -1.00, 674.4, 220.6)">s</text><text xml:space="preserve" font-family="HelveticaNeue" font-size="10.0" fill="#000000" transform="matrix(1.00, 0.00, -0.00, -1.00, 679.4, 220.6)">o</text><text xml:space="preserve" font-family="HelveticaNeue" font-size="10.0" fill="#000000" transform="matrix(1.00, 0.00, -0.00, -1.00, 685.2, 220.6)">u</text><text xml:space="preserve" font-family="HelveticaNeue" font-size="10.0" fill="#000000" transform="matrix(1.00, 0.00, -0.00, -1.00, 690.7, 220.6)">r</text><text xml:space="preserve" font-family="HelveticaNeue" font-size="10.0" fill="#000000" transform="matrix(1.00, 0.00, -0.00, -1.00, 693.9, 220.6)">c</text><text xml:space="preserve" font-family="HelveticaNeue" font-size="10.0" fill="#000000" transform="matrix(1.00, 0.00, -0.00, -1.00, 699.2, 220.6)">e</text></g></g><g><clipPath id="clip-79"><path d="M 633.0 79.0 L 716.0 79.0 L 716.0 195.0 L 633.0 195.0 Z M 633.0 79.0 "></path></clipPath><g clip-path="url(#clip-79)"><path d="M 645.5 181.1 L 645.5 169.7 L 635.0 164.0 Z M 644.9 181.1 " fill="#CBCDCF"></path><path d="M 876.5 546.9 L 876.5 558.3 L 866.0 564.0 Z M 875.9 546.9 " fill="none" stroke="#555454" stroke-width="1.00" stroke-miterlimit="0.00" stroke-linejoin="round" transform="matrix(1.00, 0.00, 0.00, -1.00, -231.0, 728.0)"></path><path d="M 704.5 169.7 L 704.5 181.1 L 714.0 164.0 Z M 704.1 169.7 " fill="#CBCDCF"></path><path d="M 935.5 558.3 L 935.5 546.9 L 945.0 564.0 Z M 935.1 558.3 " fill="none" stroke="#555454" stroke-width="1.00" stroke-miterlimit="0.00" stroke-linejoin="round" transform="matrix(1.00, 0.00, 0.00, -1.00, -231.0, 728.0)"></path><path d="M 645.5 169.7 L 664.6 158.5 L 684.4 158.5 L 704.5 169.7 L 704.5 181.1 L 684.4 192.5 L 664.6 192.5 L 645.5 181.1 Z M 644.9 169.7 " fill="#ECECEB"></path><path d="M 876.5 558.3 L 895.6 569.5 L 915.4 569.5 L 935.5 558.3 L 935.5 546.9 L 915.4 535.5 L 895.6 535.5 L 876.5 546.9 Z M 875.9 558.3 " fill="none" stroke="#555454" stroke-width="1.00" stroke-miterlimit="0.00" stroke-linejoin="round" transform="matrix(1.00, 0.00, 0.00, -1.00, -231.0, 728.0)"></path><path d="M 635.5 164.0 L 635.5 129.8 L 674.5 107.0 L 674.5 141.2 L 664.6 158.3 L 644.9 169.7 Z M 635.0 164.0 " fill="#CBCDCF"></path><path d="M 866.5 564.0 L 866.5 598.2 L 905.5 621.0 L 905.5 586.8 L 895.6 569.7 L 875.9 558.3 Z M 866.0 564.0 " fill="none" stroke="#555454" stroke-width="1.00" stroke-miterlimit="0.00" stroke-linejoin="round" transform="matrix(1.00, 0.00, 0.00, -1.00, -231.0, 728.0)"></path><path d="M 684.4 158.3 L 704.1 169.7 L 714.5 164.0 L 714.5 129.8 L 674.5 107.0 L 674.5 141.2 Z M 684.4 158.3 " fill="#B3B3B6"></path><path d="M 915.4 569.7 L 935.1 558.3 L 945.5 564.0 L 945.5 598.2 L 905.5 621.0 L 905.5 586.8 Z M 915.4 569.7 " fill="none" stroke="#555454" stroke-width="1.00" stroke-miterlimit="0.00" stroke-linejoin="round" transform="matrix(1.00, 0.00, 0.00, -1.00, -231.0, 728.0)"></path><path d="M 664.6 158.5 L 684.4 158.5 L 674.5 141.2 Z M 664.6 158.3 " fill="#ECECEB"></path><path d="M 895.6 569.5 L 915.4 569.5 L 905.5 586.8 Z M 895.6 569.7 " fill="none" stroke="#555454" stroke-width="1.00" stroke-miterlimit="0.00" stroke-linejoin="round" transform="matrix(1.00, 0.00, 0.00, -1.00, -231.0, 728.0)"></path><path d="M 686.0 175.0 L 686.3 175.0 C 685.9 174.8 685.5 174.9 685.1 175.1 C 684.9 175.2 684.7 175.3 684.5 175.4 C 684.1 175.6 683.7 175.8 683.4 175.9 C 683.2 176.1 682.9 176.2 682.7 176.3 C 682.2 176.5 681.8 176.8 681.3 177.0 C 681.2 177.1 681.2 177.1 681.1 177.1 C 680.6 177.4 680.1 177.7 679.5 178.0 C 679.4 178.1 679.3 178.1 679.2 178.2 C 674.1 181.2 669.6 184.5 668.5 186.7 L 650.7 176.5 C 650.4 176.2 651.1 175.2 652.3 173.9 C 654.0 172.2 657.1 169.9 661.8 167.2 C 670.3 162.2 675.6 161.2 676.5 161.7 L 694.4 172.0 C 692.3 172.3 689.5 173.2 686.0 175.0 Z M 670.9 180.3 L 675.0 177.9 L 668.6 172.0 L 668.6 172.0 L 678.9 175.6 L 683.0 173.3 L 671.2 166.5 L 668.7 167.9 L 678.1 173.4 L 678.1 173.4 L 666.2 169.3 L 664.1 170.6 L 671.1 177.4 L 671.0 177.5 L 661.6 172.0 L 659.1 173.5 Z M 670.9 180.3 " fill="#707070"></path><path d="M 686.0 182.0 C 677.4 186.7 671.2 188.4 670.3 187.8 C 669.5 187.3 672.3 183.7 680.5 179.0 C 683.1 177.5 685.6 176.3 687.7 175.4 C 692.2 173.4 695.3 172.8 695.9 173.1 C 696.5 173.5 695.4 175.2 692.0 177.8 C 690.4 179.1 688.3 180.5 686.0 182.0 Z M 685.7 182.0 " fill="#707070"></path><text xml:space="preserve" font-family="HelveticaNeue" font-size="10.0" fill="#000000" transform="matrix(1.00, 0.00, -0.00, -1.00, 642.7, 87.4)">R</text><text xml:space="preserve" font-family="HelveticaNeue" font-size="10.0" fill="#000000" transform="matrix(1.00, 0.00, -0.00, -1.00, 649.6, 87.4)">D</text><text xml:space="preserve" font-family="HelveticaNeue" font-size="10.0" fill="#000000" transform="matrix(1.00, 0.00, -0.00, -1.00, 656.6, 87.4)">S</text><text xml:space="preserve" font-family="HelveticaNeue" font-size="10.0" fill="#000000" transform="matrix(1.00, 0.00, -0.00, -1.00, 663.1, 87.4)"> </text><text xml:space="preserve" font-family="HelveticaNeue" font-size="10.0" fill="#000000" transform="matrix(1.00, 0.00, -0.00, -1.00, 665.9, 87.4)">D</text><text xml:space="preserve" font-family="HelveticaNeue" font-size="10.0" fill="#000000" transform="matrix(1.00, 0.00, -0.00, -1.00, 672.9, 87.4)">a</text><text xml:space="preserve" font-family="HelveticaNeue" font-size="10.0" fill="#000000" transform="matrix(1.00, 0.00, -0.00, -1.00, 678.3, 87.4)">t</text><text xml:space="preserve" font-family="HelveticaNeue" font-size="10.0" fill="#000000" transform="matrix(1.00, 0.00, -0.00, -1.00, 681.4, 87.4)">a</text><text xml:space="preserve" font-family="HelveticaNeue" font-size="10.0" fill="#000000" transform="matrix(1.00, 0.00, -0.00, -1.00, 686.8, 87.4)">b</text><text xml:space="preserve" font-family="HelveticaNeue" font-size="10.0" fill="#000000" transform="matrix(1.00, 0.00, -0.00, -1.00, 692.7, 87.4)">a</text><text xml:space="preserve" font-family="HelveticaNeue" font-size="10.0" fill="#000000" transform="matrix(1.00, 0.00, -0.00, -1.00, 698.1, 87.4)">s</text><text xml:space="preserve" font-family="HelveticaNeue" font-size="10.0" fill="#000000" transform="matrix(1.00, 0.00, -0.00, -1.00, 703.1, 87.4)">e</text></g></g><g><clipPath id="clip-80"><path d="M 427.0 73.0 L 517.0 73.0 L 517.0 157.0 L 427.0 157.0 Z M 427.0 73.0 "></path></clipPath><g clip-path="url(#clip-80)"><path d="M 438.5 139.9 L 438.2 130.3 L 463.7 115.5 L 480.6 115.5 L 506.5 130.3 L 506.5 140.1 L 480.6 154.5 L 463.7 154.5 Z M 438.5 139.9 " fill="#ECECEB"></path><path d="M 690.5 590.1 L 690.2 599.7 L 715.7 614.5 L 732.6 614.5 L 758.5 599.7 L 758.5 589.9 L 732.6 575.5 L 715.7 575.5 Z M 690.5 590.1 " fill="none" stroke="#707070" stroke-width="1.00" stroke-miterlimit="0.00" stroke-linejoin="round" transform="matrix(1.00, 0.00, 0.00, -1.00, -252.0, 730.0)"></path><path d="M 438.5 130.3 L 429.8 120.5 L 438.5 140.1 Z M 438.2 130.3 " fill="#CBCDCF"></path><path d="M 690.5 599.7 L 681.8 609.5 L 690.5 589.9 Z M 690.2 599.7 " fill="none" stroke="#707070" stroke-width="1.00" stroke-miterlimit="0.00" stroke-linejoin="round" transform="matrix(1.00, 0.00, 0.00, -1.00, -252.0, 730.0)"></path><path d="M 514.6 120.5 L 506.5 130.3 L 506.5 140.1 Z M 514.6 120.5 " fill="#B3B3B6"></path><path d="M 766.6 609.5 L 758.5 599.7 L 758.5 589.9 Z M 766.6 609.5 " fill="none" stroke="#707070" stroke-width="1.00" stroke-miterlimit="0.00" stroke-linejoin="round" transform="matrix(1.00, 0.00, 0.00, -1.00, -252.0, 730.0)"></path><path d="M 480.6 115.5 L 472.2 96.0 L 463.7 115.5 Z M 480.6 115.6 " fill="#ECECEB"></path><path d="M 732.6 614.5 L 724.2 634.0 L 715.7 614.5 Z M 732.6 614.4 " fill="none" stroke="#707070" stroke-width="1.00" stroke-miterlimit="0.00" stroke-linejoin="round" transform="matrix(1.00, 0.00, 0.00, -1.00, -252.0, 730.0)"></path><path d="M 480.6 115.6 L 472.2 96.0 L 514.6 120.5 L 506.1 130.3 Z M 480.6 115.6 " fill="#B3B3B6"></path><path d="M 732.6 614.4 L 724.2 634.0 L 766.6 609.5 L 758.1 599.7 Z M 732.6 614.4 " fill="none" stroke="#707070" stroke-width="1.00" stroke-miterlimit="0.00" stroke-linejoin="round" transform="matrix(1.00, 0.00, 0.00, -1.00, -252.0, 730.0)"></path><path d="M 438.2 130.3 L 429.8 120.5 L 472.2 96.0 L 463.7 115.6 Z M 438.2 130.3 " fill="#CBCDCF"></path><path d="M 690.2 599.7 L 681.8 609.5 L 724.2 634.0 L 715.7 614.4 Z M 690.2 599.7 " fill="none" stroke="#707070" stroke-width="1.00" stroke-miterlimit="0.00" stroke-linejoin="round" transform="matrix(1.00, 0.00, 0.00, -1.00, -252.0, 730.0)"></path><path d="M 486.0 143.0 C 478.1 147.2 466.1 147.2 458.7 143.0 C 451.3 138.7 451.4 131.8 458.8 127.5 C 466.3 123.2 478.3 123.1 485.7 127.4 C 493.1 131.7 493.0 138.6 486.0 143.0 Z M 482.0 141.0 C 487.1 137.6 487.1 132.7 481.8 129.6 C 476.6 126.6 468.0 126.6 462.6 129.7 C 457.3 132.7 457.3 137.7 462.5 140.8 C 467.8 143.8 476.4 143.8 482.0 141.0 Z M 481.7 140.7 " fill="#707070"></path><path d="M 485.2 146.4 L 491.6 142.7 L 488.0 140.6 L 481.5 144.3 Z M 485.2 146.4 " fill="#707070"></path><path d="M 456.6 129.9 L 463.0 126.2 L 459.3 124.1 L 452.9 127.8 Z M 456.6 129.9 " fill="#707070"></path><path d="M 453.6 143.3 L 460.0 147.0 L 463.7 144.8 L 457.3 141.1 Z M 453.6 143.3 " fill="#707070"></path><path d="M 482.5 126.6 L 488.9 130.3 L 492.6 128.1 L 486.2 124.5 Z M 482.5 126.6 " fill="#707070"></path><path d="M 467.5 148.4 L 476.6 148.4 L 476.6 145.4 L 467.6 145.4 Z M 467.5 148.4 " fill="#707070"></path><path d="M 467.7 125.0 L 476.8 124.9 L 476.8 121.9 L 467.7 121.9 Z M 467.7 125.0 " fill="#707070"></path><path d="M 495.1 137.7 L 495.1 132.5 L 489.9 132.5 L 489.9 137.7 Z M 495.1 137.7 " fill="#707070"></path><path d="M 454.4 137.8 L 454.5 132.6 L 449.2 132.6 L 449.2 137.9 Z M 454.4 137.8 " fill="#707070"></path><path d="M 478.0 132.0 C 474.7 130.2 469.7 130.2 466.7 132.0 C 463.6 133.8 463.6 136.6 466.6 138.4 C 469.7 140.2 474.6 140.1 477.7 138.4 C 480.8 136.6 480.8 133.7 478.0 132.0 Z M 477.7 132.0 " fill="#707070"></path><text xml:space="preserve" font-family="HelveticaNeue" font-size="10.0" fill="#000000" transform="matrix(1.00, 0.00, -0.00, -1.00, 440.9, 80.6)">C</text><text xml:space="preserve" font-family="HelveticaNeue" font-size="10.0" fill="#000000" transform="matrix(1.00, 0.00, -0.00, -1.00, 448.1, 80.6)">o</text><text xml:space="preserve" font-family="HelveticaNeue" font-size="10.0" fill="#000000" transform="matrix(1.00, 0.00, -0.00, -1.00, 453.8, 80.6)">p</text><text xml:space="preserve" font-family="HelveticaNeue" font-size="10.0" fill="#000000" transform="matrix(1.00, 0.00, -0.00, -1.00, 459.8, 80.6)">y</text><text xml:space="preserve" font-family="HelveticaNeue" font-size="10.0" fill="#000000" transform="matrix(1.00, 0.00, -0.00, -1.00, 464.8, 80.6)"> </text><text xml:space="preserve" font-family="HelveticaNeue" font-size="10.0" fill="#000000" transform="matrix(1.00, 0.00, -0.00, -1.00, 467.5, 80.6)">A</text><text xml:space="preserve" font-family="HelveticaNeue" font-size="10.0" fill="#000000" transform="matrix(1.00, 0.00, -0.00, -1.00, 474.0, 80.6)">c</text><text xml:space="preserve" font-family="HelveticaNeue" font-size="10.0" fill="#000000" transform="matrix(1.00, 0.00, -0.00, -1.00, 479.4, 80.6)">t</text><text xml:space="preserve" font-family="HelveticaNeue" font-size="10.0" fill="#000000" transform="matrix(1.00, 0.00, -0.00, -1.00, 482.5, 80.6)">i</text><text xml:space="preserve" font-family="HelveticaNeue" font-size="10.0" fill="#000000" transform="matrix(1.00, 0.00, -0.00, -1.00, 484.8, 80.6)">v</text><text xml:space="preserve" font-family="HelveticaNeue" font-size="10.0" fill="#000000" transform="matrix(1.00, 0.00, -0.00, -1.00, 489.8, 80.6)">i</text><text xml:space="preserve" font-family="HelveticaNeue" font-size="10.0" fill="#000000" transform="matrix(1.00, 0.00, -0.00, -1.00, 492.0, 80.6)">t</text><text xml:space="preserve" font-family="HelveticaNeue" font-size="10.0" fill="#000000" transform="matrix(1.00, 0.00, -0.00, -1.00, 495.1, 80.6)">y</text></g></g><g><clipPath id="clip-81"><path d="M 529.0 144.0 L 619.0 144.0 L 619.0 229.0 L 529.0 229.0 Z M 529.0 144.0 "></path></clipPath><g clip-path="url(#clip-81)"><path d="M 540.2 211.1 L 539.9 201.5 L 565.4 186.5 L 582.3 186.5 L 608.5 201.5 L 608.5 211.3 L 582.3 225.5 L 565.4 225.5 Z M 540.2 211.1 " fill="#ECECEB"></path><path d="M 772.2 641.9 L 771.9 651.5 L 797.4 666.5 L 814.3 666.5 L 840.5 651.5 L 840.5 641.7 L 814.3 627.5 L 797.4 627.5 Z M 772.2 641.9 " fill="none" stroke="#707070" stroke-width="1.00" stroke-miterlimit="0.00" stroke-linejoin="round" transform="matrix(1.00, 0.00, 0.00, -1.00, -232.0, 853.0)"></path><path d="M 540.5 201.5 L 531.4 191.7 L 540.5 211.3 Z M 539.9 201.5 " fill="#CBCDCF"></path><path d="M 772.5 651.5 L 763.4 661.3 L 772.5 641.7 Z M 771.9 651.5 " fill="none" stroke="#707070" stroke-width="1.00" stroke-miterlimit="0.00" stroke-linejoin="round" transform="matrix(1.00, 0.00, 0.00, -1.00, -232.0, 853.0)"></path><path d="M 616.2 191.7 L 608.5 201.5 L 608.5 211.3 Z M 616.2 191.7 " fill="#B3B3B6"></path><path d="M 848.2 661.3 L 840.5 651.5 L 840.5 641.7 Z M 848.2 661.3 " fill="none" stroke="#707070" stroke-width="1.00" stroke-miterlimit="0.00" stroke-linejoin="round" transform="matrix(1.00, 0.00, 0.00, -1.00, -232.0, 853.0)"></path><path d="M 582.3 186.5 L 573.8 167.2 L 565.4 186.5 Z M 582.3 186.8 " fill="#ECECEB"></path><path d="M 814.3 666.5 L 805.8 685.8 L 797.4 666.5 Z M 814.3 666.2 " fill="none" stroke="#707070" stroke-width="1.00" stroke-miterlimit="0.00" stroke-linejoin="round" transform="matrix(1.00, 0.00, 0.00, -1.00, -232.0, 853.0)"></path><path d="M 582.3 186.8 L 573.8 167.2 L 616.2 191.7 L 607.8 201.5 Z M 582.3 186.8 " fill="#B3B3B6"></path><path d="M 814.3 666.2 L 805.8 685.8 L 848.2 661.3 L 839.8 651.5 Z M 814.3 666.2 " fill="none" stroke="#707070" stroke-width="1.00" stroke-miterlimit="0.00" stroke-linejoin="round" transform="matrix(1.00, 0.00, 0.00, -1.00, -232.0, 853.0)"></path><path d="M 539.9 201.5 L 531.4 191.7 L 573.8 167.2 L 565.4 186.8 Z M 539.9 201.5 " fill="#CBCDCF"></path><path d="M 771.9 651.5 L 763.4 661.3 L 805.8 685.8 L 797.4 666.2 Z M 771.9 651.5 " fill="none" stroke="#707070" stroke-width="1.00" stroke-miterlimit="0.00" stroke-linejoin="round" transform="matrix(1.00, 0.00, 0.00, -1.00, -232.0, 853.0)"></path><path d="M 587.0 214.0 C 579.8 218.5 567.8 218.5 560.4 214.2 C 553.0 210.0 553.0 203.0 560.5 198.7 C 567.9 194.4 580.0 194.4 587.4 198.7 C 594.7 202.9 594.7 209.9 587.0 214.0 Z M 583.0 212.0 C 588.7 208.9 588.8 203.9 583.5 200.9 C 578.2 197.8 569.6 197.8 564.3 200.9 C 559.0 204.0 558.9 209.0 564.2 212.0 C 569.5 215.1 578.1 215.0 583.0 212.0 Z M 583.4 212.0 " fill="#707070"></path><path d="M 586.9 217.7 L 593.3 214.0 L 589.6 211.8 L 583.2 215.5 Z M 586.9 217.7 " fill="#707070"></path><path d="M 558.3 201.2 L 564.7 197.4 L 561.0 195.3 L 554.6 199.0 Z M 558.3 201.2 " fill="#707070"></path><path d="M 555.3 214.5 L 561.6 218.2 L 565.4 216.1 L 559.0 212.4 Z M 555.3 214.5 " fill="#707070"></path><path d="M 584.2 197.9 L 590.5 201.5 L 594.2 199.4 L 587.9 195.7 Z M 584.2 197.9 " fill="#707070"></path><path d="M 569.2 219.7 L 578.3 219.7 L 578.3 216.6 L 569.2 216.7 Z M 569.2 219.7 " fill="#707070"></path><path d="M 569.4 196.2 L 578.4 196.2 L 578.5 193.2 L 569.4 193.2 Z M 569.4 196.2 " fill="#707070"></path><path d="M 596.8 209.0 L 596.8 203.8 L 591.6 203.8 L 591.5 209.0 Z M 596.8 209.0 " fill="#707070"></path><path d="M 556.1 209.1 L 556.1 203.9 L 550.9 203.9 L 550.9 209.1 Z M 556.1 209.1 " fill="#707070"></path><path d="M 579.0 203.0 C 576.4 201.5 571.4 201.5 568.4 203.3 C 565.3 205.0 565.3 207.9 568.3 209.6 C 571.3 211.4 576.3 211.4 579.4 209.6 C 582.4 207.8 582.5 205.0 579.0 203.0 Z M 579.4 203.2 " fill="#707070"></path><text xml:space="preserve" font-family="HelveticaNeue" font-size="10.0" fill="#000000" transform="matrix(1.00, 0.00, -0.00, -1.00, 537.8, 151.9)">M</text><text xml:space="preserve" font-family="HelveticaNeue" font-size="10.0" fill="#000000" transform="matrix(1.00, 0.00, -0.00, -1.00, 546.5, 151.9)">y</text><text xml:space="preserve" font-family="HelveticaNeue" font-size="10.0" fill="#000000" transform="matrix(1.00, 0.00, -0.00, -1.00, 551.5, 151.9)">S</text><text xml:space="preserve" font-family="HelveticaNeue" font-size="10.0" fill="#000000" transform="matrix(1.00, 0.00, -0.00, -1.00, 558.0, 151.9)">Q</text><text xml:space="preserve" font-family="HelveticaNeue" font-size="10.0" fill="#000000" transform="matrix(1.00, 0.00, -0.00, -1.00, 565.6, 151.9)">L</text><text xml:space="preserve" font-family="HelveticaNeue" font-size="10.0" fill="#000000" transform="matrix(1.00, 0.00, -0.00, -1.00, 571.2, 151.9)"> </text><text xml:space="preserve" font-family="HelveticaNeue" font-size="10.0" fill="#000000" transform="matrix(1.00, 0.00, -0.00, -1.00, 573.9, 151.9)">A</text><text xml:space="preserve" font-family="HelveticaNeue" font-size="10.0" fill="#000000" transform="matrix(1.00, 0.00, -0.00, -1.00, 580.4, 151.9)">c</text><text xml:space="preserve" font-family="HelveticaNeue" font-size="10.0" fill="#000000" transform="matrix(1.00, 0.00, -0.00, -1.00, 585.8, 151.9)">t</text><text xml:space="preserve" font-family="HelveticaNeue" font-size="10.0" fill="#000000" transform="matrix(1.00, 0.00, -0.00, -1.00, 588.9, 151.9)">i</text><text xml:space="preserve" font-family="HelveticaNeue" font-size="10.0" fill="#000000" transform="matrix(1.00, 0.00, -0.00, -1.00, 591.2, 151.9)">v</text><text xml:space="preserve" font-family="HelveticaNeue" font-size="10.0" fill="#000000" transform="matrix(1.00, 0.00, -0.00, -1.00, 596.2, 151.9)">i</text><text xml:space="preserve" font-family="HelveticaNeue" font-size="10.0" fill="#000000" transform="matrix(1.00, 0.00, -0.00, -1.00, 598.4, 151.9)">t</text><text xml:space="preserve" font-family="HelveticaNeue" font-size="10.0" fill="#000000" transform="matrix(1.00, 0.00, -0.00, -1.00, 601.5, 151.9)">y</text></g></g><g><clipPath id="clip-82"><path d="M 324.0 -5.0 L 414.0 -5.0 L 414.0 94.0 L 324.0 94.0 Z M 324.0 -5.0 "></path></clipPath><g clip-path="url(#clip-82)"><text xml:space="preserve" font-family="HelveticaNeue" font-size="10.0" fill="#000000" transform="matrix(1.00, 0.00, -0.00, -1.00, 334.1, 3.0)">S</text><text xml:space="preserve" font-family="HelveticaNeue" font-size="10.0" fill="#000000" transform="matrix(1.00, 0.00, -0.00, -1.00, 340.5, 3.0)">Q</text><text xml:space="preserve" font-family="HelveticaNeue" font-size="10.0" fill="#000000" transform="matrix(1.00, 0.00, -0.00, -1.00, 348.1, 3.0)">L</text><text xml:space="preserve" font-family="HelveticaNeue" font-size="10.0" fill="#000000" transform="matrix(1.00, 0.00, -0.00, -1.00, 353.7, 3.0)"> </text><text xml:space="preserve" font-family="HelveticaNeue" font-size="10.0" fill="#000000" transform="matrix(1.00, 0.00, -0.00, -1.00, 356.5, 3.0)">D</text><text xml:space="preserve" font-family="HelveticaNeue" font-size="10.0" fill="#000000" transform="matrix(1.00, 0.00, -0.00, -1.00, 363.5, 3.0)">a</text><text xml:space="preserve" font-family="HelveticaNeue" font-size="10.0" fill="#000000" transform="matrix(1.00, 0.00, -0.00, -1.00, 368.9, 3.0)">t</text><text xml:space="preserve" font-family="HelveticaNeue" font-size="10.0" fill="#000000" transform="matrix(1.00, 0.00, -0.00, -1.00, 372.0, 3.0)">a</text><text xml:space="preserve" font-family="HelveticaNeue" font-size="10.0" fill="#000000" transform="matrix(1.00, 0.00, -0.00, -1.00, 377.4, 3.0)"> </text><text xml:space="preserve" font-family="HelveticaNeue" font-size="10.0" fill="#000000" transform="matrix(1.00, 0.00, -0.00, -1.00, 380.2, 3.0)">N</text><text xml:space="preserve" font-family="HelveticaNeue" font-size="10.0" fill="#000000" transform="matrix(1.00, 0.00, -0.00, -1.00, 387.4, 3.0)">o</text><text xml:space="preserve" font-family="HelveticaNeue" font-size="10.0" fill="#000000" transform="matrix(1.00, 0.00, -0.00, -1.00, 393.1, 3.0)">d</text><text xml:space="preserve" font-family="HelveticaNeue" font-size="10.0" fill="#000000" transform="matrix(1.00, 0.00, -0.00, -1.00, 399.1, 3.0)">e</text><path d="M 326.0 66.6 L 368.7 41.9 L 411.4 66.6 L 368.7 91.2 Z M 326.0 66.6 " fill="#ECECEB"></path><path d="M 576.0 733.4 L 618.7 758.1 L 661.4 733.4 L 618.7 708.8 Z M 576.0 733.4 " fill="none" stroke="#555454" stroke-width="1.00" stroke-miterlimit="0.00" stroke-linejoin="round" transform="matrix(1.00, 0.00, 0.00, -1.00, -250.0, 800.0)"></path><path d="M 326.5 66.6 L 326.5 41.9 L 368.5 17.3 L 368.5 41.9 Z M 326.0 66.6 " fill="#CBCDCF"></path><path d="M 576.5 733.4 L 576.5 758.1 L 618.5 782.7 L 618.5 758.1 Z M 576.0 733.4 " fill="none" stroke="#555454" stroke-width="1.00" stroke-miterlimit="0.00" stroke-linejoin="round" transform="matrix(1.00, 0.00, 0.00, -1.00, -250.0, 800.0)"></path><path d="M 368.5 41.9 L 411.5 66.6 L 411.5 41.9 L 368.5 17.3 Z M 368.7 41.9 " fill="#B3B3B6"></path><path d="M 618.5 758.1 L 661.5 733.4 L 661.5 758.1 L 618.5 782.7 Z M 618.7 758.1 " fill="none" stroke="#555454" stroke-width="1.00" stroke-miterlimit="0.00" stroke-linejoin="round" transform="matrix(1.00, 0.00, 0.00, -1.00, -250.0, 800.0)"></path><path d="M 380.0 66.0 L 380.5 66.0 C 380.1 66.5 379.7 66.7 379.3 66.9 C 379.1 67.0 378.9 67.1 378.6 67.2 C 378.3 67.4 377.9 67.5 377.5 67.7 C 377.3 67.8 377.1 68.0 376.8 68.1 C 376.4 68.3 375.9 68.6 375.4 68.8 C 375.3 68.9 375.3 68.9 375.2 68.9 C 374.7 69.2 374.1 69.5 373.6 69.8 C 373.5 69.9 373.3 70.0 373.2 70.0 C 368.0 73.1 363.4 76.5 362.3 78.8 L 344.1 68.3 C 343.8 67.9 344.5 66.9 345.7 65.6 C 347.5 63.9 350.6 61.5 355.4 58.8 C 364.2 53.7 369.5 52.6 370.5 53.1 L 388.8 63.7 C 386.6 64.0 383.8 64.9 380.0 66.0 Z M 364.7 72.2 L 368.9 69.7 L 362.4 63.7 L 362.4 63.6 L 373.0 67.4 L 377.2 65.0 L 365.0 58.0 L 362.5 59.5 L 372.1 65.1 L 372.1 65.1 L 359.9 61.0 L 357.7 62.2 L 364.9 69.2 L 364.9 69.3 L 355.2 63.7 L 352.6 65.2 Z M 364.7 72.2 " fill="#707070"></path><path d="M 380.0 74.0 C 371.4 78.8 365.1 80.4 364.2 79.9 C 363.3 79.4 366.1 75.7 374.6 70.8 C 377.3 69.3 379.8 68.1 381.9 67.1 C 386.5 65.1 389.7 64.5 390.3 64.8 C 390.9 65.2 389.8 67.0 386.3 69.7 C 384.7 70.9 382.6 72.3 380.0 74.0 Z M 379.9 73.9 " fill="#707070"></path></g></g><g><clipPath id="clip-83"><path d="M 753.0 457.0 L 852.0 457.0 L 852.0 548.0 L 753.0 548.0 Z M 753.0 457.0 "></path></clipPath><g clip-path="url(#clip-83)"><path d="M 765.1 529.0 L 764.7 518.3 L 793.0 501.5 L 811.8 501.5 L 840.5 518.3 L 840.5 529.2 L 811.8 545.5 L 793.0 545.5 Z M 765.1 529.0 " fill="#ECECEB"></path><path d="M 649.1 165.0 L 648.7 175.7 L 677.0 192.5 L 695.8 192.5 L 724.5 175.7 L 724.5 164.8 L 695.8 148.5 L 677.0 148.5 Z M 649.1 165.0 " fill="none" stroke="#707070" stroke-width="1.00" stroke-miterlimit="0.00" stroke-linejoin="round" transform="matrix(1.00, 0.00, 0.00, -1.00, 116.0, 694.0)"></path><path d="M 764.5 518.3 L 755.3 507.4 L 764.5 529.2 Z M 764.7 518.3 " fill="#CBCDCF"></path><path d="M 648.5 175.7 L 639.3 186.6 L 648.5 164.8 Z M 648.7 175.7 " fill="none" stroke="#707070" stroke-width="1.00" stroke-miterlimit="0.00" stroke-linejoin="round" transform="matrix(1.00, 0.00, 0.00, -1.00, 116.0, 694.0)"></path><path d="M 849.5 507.4 L 840.5 518.3 L 840.5 529.2 Z M 849.5 507.4 " fill="#B3B3B6"></path><path d="M 733.5 186.6 L 724.5 175.7 L 724.5 164.8 Z M 733.5 186.6 " fill="none" stroke="#707070" stroke-width="1.00" stroke-miterlimit="0.00" stroke-linejoin="round" transform="matrix(1.00, 0.00, 0.00, -1.00, 116.0, 694.0)"></path><path d="M 811.8 501.5 L 802.4 480.2 L 793.0 501.5 Z M 811.8 502.0 " fill="#ECECEB"></path><path d="M 695.8 192.5 L 686.4 213.8 L 677.0 192.5 Z M 695.8 192.0 " fill="none" stroke="#707070" stroke-width="1.00" stroke-miterlimit="0.00" stroke-linejoin="round" transform="matrix(1.00, 0.00, 0.00, -1.00, 116.0, 694.0)"></path><path d="M 811.8 502.0 L 802.4 480.2 L 849.5 507.4 L 840.1 518.3 Z M 811.8 502.0 " fill="#B3B3B6"></path><path d="M 695.8 192.0 L 686.4 213.8 L 733.5 186.6 L 724.1 175.7 Z M 695.8 192.0 " fill="none" stroke="#707070" stroke-width="1.00" stroke-miterlimit="0.00" stroke-linejoin="round" transform="matrix(1.00, 0.00, 0.00, -1.00, 116.0, 694.0)"></path><path d="M 764.7 518.3 L 755.3 507.4 L 802.4 480.2 L 793.0 502.0 Z M 764.7 518.3 " fill="#CBCDCF"></path><path d="M 648.7 175.7 L 639.3 186.6 L 686.4 213.8 L 677.0 192.0 Z M 648.7 175.7 " fill="none" stroke="#707070" stroke-width="1.00" stroke-miterlimit="0.00" stroke-linejoin="round" transform="matrix(1.00, 0.00, 0.00, -1.00, 116.0, 694.0)"></path><path d="M 809.5 536.4 L 810.7 535.7 L 800.3 529.7 L 799.2 530.4 Z M 809.5 536.4 " fill="#707070"></path><path d="M 693.5 157.6 L 694.7 158.3 L 684.3 164.3 L 683.2 163.6 Z M 693.5 157.6 " fill="none" stroke="#707070" stroke-width="1.00" stroke-miterlimit="0.00" transform="matrix(1.00, 0.00, 0.00, -1.00, 116.0, 694.0)"></path><path d="M 794.3 527.6 L 795.4 526.9 L 785.1 520.9 L 783.9 521.6 Z M 794.3 527.6 " fill="#707070"></path><path d="M 678.3 166.4 L 679.4 167.1 L 669.1 173.1 L 667.9 172.4 Z M 678.3 166.4 " fill="none" stroke="#707070" stroke-width="1.00" stroke-miterlimit="0.00" transform="matrix(1.00, 0.00, 0.00, -1.00, 116.0, 694.0)"></path><path d="M 799.5 511.5 L 798.4 512.2 L 811.3 519.7 L 796.4 528.3 L 797.6 529.0 L 813.7 519.7 Z M 799.5 511.5 " fill="#707070"></path><path d="M 683.5 182.5 L 682.4 181.8 L 695.3 174.3 L 680.4 165.7 L 681.6 165.0 L 697.7 174.3 Z M 683.5 182.5 " fill="none" stroke="#707070" stroke-width="1.00" stroke-miterlimit="0.00" transform="matrix(1.00, 0.00, 0.00, -1.00, 116.0, 694.0)"></path><path d="M 802.4 531.7 L 790.5 532.7 L 791.5 525.4 L 804.0 524.5 Z M 802.4 531.7 " fill="#ECECEB"></path><path d="M 686.4 162.3 L 674.5 161.3 L 675.5 168.6 L 688.0 169.5 Z M 686.4 162.3 " fill="none" stroke="#707070" stroke-width="1.00" stroke-miterlimit="0.00" transform="matrix(1.00, 0.00, 0.00, -1.00, 116.0, 694.0)"></path><path d="M 790.7 525.0 L 789.5 533.3 L 803.1 532.2 L 805.0 523.9 Z M 791.4 532.1 L 792.3 525.9 L 803.0 525.1 L 801.6 531.3 Z M 791.4 532.1 " fill="#707070"></path><path d="M 674.7 169.0 L 673.5 160.7 L 687.1 161.8 L 689.0 170.1 Z M 675.4 161.9 L 676.3 168.1 L 687.0 168.9 L 685.6 162.7 Z M 675.4 161.9 " fill="none" stroke="#707070" stroke-width="1.00" stroke-miterlimit="0.00" transform="matrix(1.00, 0.00, 0.00, -1.00, 116.0, 694.0)"></path><path d="M 797.8 516.5 L 807.4 511.0 L 801.4 507.6 L 791.8 513.1 Z M 797.8 516.5 " fill="#ECECEB"></path><path d="M 681.8 177.5 L 691.4 183.0 L 685.4 186.4 L 675.8 180.9 Z M 681.8 177.5 " fill="none" stroke="#707070" stroke-width="1.00" stroke-miterlimit="0.00" transform="matrix(1.00, 0.00, 0.00, -1.00, 116.0, 694.0)"></path><path d="M 801.4 506.9 L 790.6 513.1 L 797.8 517.2 L 808.6 511.0 Z M 793.1 513.1 L 801.5 508.3 L 806.2 511.0 L 797.7 515.8 Z M 793.1 513.1 " fill="#707070"></path><path d="M 685.4 187.1 L 674.6 180.9 L 681.8 176.8 L 692.6 183.0 Z M 677.1 180.9 L 685.5 185.7 L 690.2 183.0 L 681.7 178.2 Z M 677.1 180.9 " fill="none" stroke="#707070" stroke-width="1.00" stroke-miterlimit="0.00" transform="matrix(1.00, 0.00, 0.00, -1.00, 116.0, 694.0)"></path><path d="M 807.8 540.2 L 817.4 534.6 L 811.5 531.2 L 801.9 536.7 Z M 807.8 540.2 " fill="#ECECEB"></path><path d="M 691.8 153.8 L 701.4 159.4 L 695.5 162.8 L 685.9 157.3 Z M 691.8 153.8 " fill="none" stroke="#707070" stroke-width="1.00" stroke-miterlimit="0.00" transform="matrix(1.00, 0.00, 0.00, -1.00, 116.0, 694.0)"></path><path d="M 811.5 530.5 L 800.7 536.7 L 807.8 540.9 L 818.6 534.6 Z M 803.1 536.8 L 811.5 531.9 L 816.2 534.6 L 807.8 539.5 Z M 803.1 536.8 " fill="#707070"></path><path d="M 695.5 163.5 L 684.7 157.3 L 691.8 153.1 L 702.6 159.4 Z M 687.1 157.2 L 695.5 162.1 L 700.2 159.4 L 691.8 154.5 Z M 687.1 157.2 " fill="none" stroke="#707070" stroke-width="1.00" stroke-miterlimit="0.00" transform="matrix(1.00, 0.00, 0.00, -1.00, 116.0, 694.0)"></path><path d="M 782.2 525.5 L 791.8 520.0 L 785.9 516.5 L 776.3 522.1 Z M 782.2 525.5 " fill="#ECECEB"></path><path d="M 666.2 168.5 L 675.8 174.0 L 669.9 177.5 L 660.3 171.9 Z M 666.2 168.5 " fill="none" stroke="#707070" stroke-width="1.00" stroke-miterlimit="0.00" transform="matrix(1.00, 0.00, 0.00, -1.00, 116.0, 694.0)"></path><path d="M 785.9 515.8 L 775.1 522.1 L 782.3 526.2 L 793.0 520.0 Z M 777.5 522.1 L 785.9 517.2 L 790.6 519.9 L 782.2 524.8 Z M 777.5 522.1 " fill="#707070"></path><path d="M 669.9 178.2 L 659.1 171.9 L 666.3 167.8 L 677.0 174.0 Z M 661.5 171.9 L 669.9 176.8 L 674.6 174.1 L 666.2 169.2 Z M 661.5 171.9 " fill="none" stroke="#707070" stroke-width="1.00" stroke-miterlimit="0.00" transform="matrix(1.00, 0.00, 0.00, -1.00, 116.0, 694.0)"></path><text xml:space="preserve" font-family="HelveticaNeue" font-size="10.0" fill="#000000" transform="matrix(1.00, 0.00, -0.00, -1.00, 758.5, 465.1)">C</text><text xml:space="preserve" font-family="HelveticaNeue" font-size="10.0" fill="#000000" transform="matrix(1.00, 0.00, -0.00, -1.00, 765.7, 465.1)">o</text><text xml:space="preserve" font-family="HelveticaNeue" font-size="10.0" fill="#000000" transform="matrix(1.00, 0.00, -0.00, -1.00, 771.4, 465.1)">n</text><text xml:space="preserve" font-family="HelveticaNeue" font-size="10.0" fill="#000000" transform="matrix(1.00, 0.00, -0.00, -1.00, 777.0, 465.1)">ﬁ</text><text xml:space="preserve" font-family="HelveticaNeue" font-size="10.0" fill="#000000" transform="matrix(1.00, 0.00, -0.00, -1.00, 782.2, 465.1)">g</text><text xml:space="preserve" font-family="HelveticaNeue" font-size="10.0" fill="#000000" transform="matrix(1.00, 0.00, -0.00, -1.00, 787.9, 465.1)"> </text><text xml:space="preserve" font-family="HelveticaNeue" font-size="10.0" fill="#000000" transform="matrix(1.00, 0.00, -0.00, -1.00, 790.7, 465.1)">&amp;</text><text xml:space="preserve" font-family="HelveticaNeue" font-size="10.0" fill="#000000" transform="matrix(1.00, 0.00, -0.00, -1.00, 797.0, 465.1)"> </text><text xml:space="preserve" font-family="HelveticaNeue" font-size="10.0" fill="#000000" transform="matrix(1.00, 0.00, -0.00, -1.00, 799.8, 465.1)">S</text><text xml:space="preserve" font-family="HelveticaNeue" font-size="10.0" fill="#000000" transform="matrix(1.00, 0.00, -0.00, -1.00, 806.3, 465.1)">c</text><text xml:space="preserve" font-family="HelveticaNeue" font-size="10.0" fill="#000000" transform="matrix(1.00, 0.00, -0.00, -1.00, 811.6, 465.1)">h</text><text xml:space="preserve" font-family="HelveticaNeue" font-size="10.0" fill="#000000" transform="matrix(1.00, 0.00, -0.00, -1.00, 817.2, 465.1)">e</text><text xml:space="preserve" font-family="HelveticaNeue" font-size="10.0" fill="#000000" transform="matrix(1.00, 0.00, -0.00, -1.00, 822.6, 465.1)">d</text><text xml:space="preserve" font-family="HelveticaNeue" font-size="10.0" fill="#000000" transform="matrix(1.00, 0.00, -0.00, -1.00, 828.5, 465.1)">u</text><text xml:space="preserve" font-family="HelveticaNeue" font-size="10.0" fill="#000000" transform="matrix(1.00, 0.00, -0.00, -1.00, 834.1, 465.1)">l</text><text xml:space="preserve" font-family="HelveticaNeue" font-size="10.0" fill="#000000" transform="matrix(1.00, 0.00, -0.00, -1.00, 836.3, 465.1)">e</text></g></g><path d="M 0.0 0.0 L 174.2 0.0 L 175.2 0.0 " fill="none" stroke="#838786" stroke-width="2.00" transform="matrix(-0.53, -0.85, -0.85, 0.53, 798.3, 461.4)"></path><path d="M 701.2 316.7 L 700.1 306.0 L 709.3 311.6 Z M 701.2 316.7 " fill="#838786"></path><path d="M 0.0 0.0 L 55.6 0.0 L 56.6 0.0 " fill="none" stroke="#838786" stroke-width="2.00" transform="matrix(-0.84, -0.54, -0.54, 0.84, 656.0, 248.8)"></path><path d="M 606.6 222.9 L 601.1 213.7 L 611.8 214.8 Z M 606.6 222.9 " fill="#838786"></path><path d="M 0.0 0.0 L 55.6 0.0 L 56.6 0.0 " fill="none" stroke="#838786" stroke-width="2.00" transform="matrix(-0.84, -0.54, -0.54, 0.84, 552.0, 180.8)"></path><path d="M 502.6 154.9 L 497.1 145.7 L 507.8 146.8 Z M 502.6 154.9 " fill="#838786"></path><path d="M 0.0 0.0 L 55.6 0.0 L 56.6 0.0 " fill="none" stroke="#838786" stroke-width="2.00" transform="matrix(-0.84, -0.54, -0.54, 0.84, 449.0, 108.8)"></path><path d="M 399.6 82.9 L 394.1 73.7 L 404.8 74.8 Z M 399.6 82.9 " fill="#838786"></path><path d="M 115.3 0.0 C 238.9 85.7 203.1 193.6 8.0 323.7 L 7.2 324.3 " fill="none" stroke="#838786" stroke-width="2.00" transform="matrix(1.00, 0.00, 0.00, -1.00, 716.0, 492.4)"></path><path d="M 721.4 172.7 L 716.0 163.4 L 726.7 164.7 Z M 721.4 172.7 " fill="#838786"></path><path d="M 143.5 0.0 C 103.2 41.4 58.0 47.0 8.1 16.7 L 7.2 16.2 " fill="none" stroke="#838786" stroke-width="2.00" transform="matrix(1.00, 0.00, 0.00, -1.00, 500.8, 124.5)"></path><path d="M 511.5 111.8 L 500.8 112.9 L 506.3 103.7 Z M 511.5 111.8 " fill="#838786"></path><g><clipPath id="clip-84"><path d="M 372.0 373.0 L 462.0 373.0 L 462.0 472.0 L 372.0 472.0 Z M 372.0 373.0 "></path></clipPath><g clip-path="url(#clip-84)"><path d="M 374.6 444.5 L 417.3 419.8 L 460.0 444.5 L 417.3 469.1 Z M 374.6 444.5 " fill="#ECECEB"></path><path d="M 211.6 259.5 L 254.3 284.2 L 297.0 259.5 L 254.3 234.9 Z M 211.6 259.5 " fill="none" stroke="#555454" stroke-width="1.00" stroke-miterlimit="0.00" stroke-linejoin="round" transform="matrix(1.00, 0.00, 0.00, -1.00, 163.0, 704.0)"></path><path d="M 374.5 444.5 L 374.5 419.8 L 417.5 395.2 L 417.5 419.8 Z M 374.6 444.5 " fill="#CBCDCF"></path><path d="M 211.5 259.5 L 211.5 284.2 L 254.5 308.8 L 254.5 284.2 Z M 211.6 259.5 " fill="none" stroke="#555454" stroke-width="1.00" stroke-miterlimit="0.00" stroke-linejoin="round" transform="matrix(1.00, 0.00, 0.00, -1.00, 163.0, 704.0)"></path><path d="M 417.5 419.8 L 460.5 444.5 L 460.5 419.8 L 417.5 395.2 Z M 417.3 419.8 " fill="#B3B3B6"></path><path d="M 254.5 284.2 L 297.5 259.5 L 297.5 284.2 L 254.5 308.8 Z M 254.3 284.2 " fill="none" stroke="#555454" stroke-width="1.00" stroke-miterlimit="0.00" stroke-linejoin="round" transform="matrix(1.00, 0.00, 0.00, -1.00, 163.0, 704.0)"></path><path d="M 410.9 454.5 L 433.9 441.2 L 415.1 434.5 C 408.8 435.7 401.5 439.9 399.4 443.6 Z M 410.9 454.5 " fill="#707070"></path><path d="M 247.9 249.5 L 270.9 262.8 L 252.1 269.5 C 245.8 268.3 238.5 264.1 236.4 260.4 Z M 247.9 249.5 " fill="none" stroke="#707070" stroke-width="1.00" stroke-miterlimit="0.00" stroke-linejoin="round" transform="matrix(1.00, 0.00, 0.00, -1.00, 163.0, 704.0)"></path><path d="M 435.5 441.5 C 433.6 440.6 426.8 442.8 420.3 446.6 C 413.7 450.4 409.9 454.3 411.8 455.4 C 413.6 456.4 420.4 454.2 426.9 450.5 C 433.5 446.7 437.3 442.8 435.5 441.5 Z M 435.4 441.7 " fill="#707070"></path><path d="M 272.5 262.5 C 270.6 263.4 263.8 261.2 257.3 257.4 C 250.7 253.6 246.9 249.7 248.8 248.6 C 250.6 247.6 257.4 249.8 263.9 253.5 C 270.5 257.3 274.3 261.2 272.5 262.5 Z M 272.4 262.3 " fill="none" stroke="#ECECEB" stroke-width="1.00" stroke-miterlimit="0.00" stroke-linecap="round" stroke-linejoin="round" transform="matrix(1.00, 0.00, 0.00, -1.00, 163.0, 704.0)"></path><text xml:space="preserve" font-family="HelveticaNeue" font-size="10.0" fill="#000000" transform="matrix(1.00, 0.00, -0.00, -1.00, 386.5, 380.9)">S</text><text xml:space="preserve" font-family="HelveticaNeue" font-size="10.0" fill="#000000" transform="matrix(1.00, 0.00, -0.00, -1.00, 392.9, 380.9)">3</text><text xml:space="preserve" font-family="HelveticaNeue" font-size="10.0" fill="#000000" transform="matrix(1.00, 0.00, -0.00, -1.00, 398.5, 380.9)"> </text><text xml:space="preserve" font-family="HelveticaNeue" font-size="10.0" fill="#000000" transform="matrix(1.00, 0.00, -0.00, -1.00, 401.3, 380.9)">D</text><text xml:space="preserve" font-family="HelveticaNeue" font-size="10.0" fill="#000000" transform="matrix(1.00, 0.00, -0.00, -1.00, 408.3, 380.9)">a</text><text xml:space="preserve" font-family="HelveticaNeue" font-size="10.0" fill="#000000" transform="matrix(1.00, 0.00, -0.00, -1.00, 413.7, 380.9)">t</text><text xml:space="preserve" font-family="HelveticaNeue" font-size="10.0" fill="#000000" transform="matrix(1.00, 0.00, -0.00, -1.00, 416.8, 380.9)">a</text><text xml:space="preserve" font-family="HelveticaNeue" font-size="10.0" fill="#000000" transform="matrix(1.00, 0.00, -0.00, -1.00, 422.2, 380.9)"> </text><text xml:space="preserve" font-family="HelveticaNeue" font-size="10.0" fill="#000000" transform="matrix(1.00, 0.00, -0.00, -1.00, 425.0, 380.9)">N</text><text xml:space="preserve" font-family="HelveticaNeue" font-size="10.0" fill="#000000" transform="matrix(1.00, 0.00, -0.00, -1.00, 432.2, 380.9)">o</text><text xml:space="preserve" font-family="HelveticaNeue" font-size="10.0" fill="#000000" transform="matrix(1.00, 0.00, -0.00, -1.00, 437.9, 380.9)">d</text><text xml:space="preserve" font-family="HelveticaNeue" font-size="10.0" fill="#000000" transform="matrix(1.00, 0.00, -0.00, -1.00, 443.9, 380.9)">e</text></g></g><g><clipPath id="clip-85"><path d="M 264.0 298.0 L 354.0 298.0 L 354.0 382.0 L 264.0 382.0 Z M 264.0 298.0 "></path></clipPath><g clip-path="url(#clip-85)"><path d="M 275.2 365.1 L 274.9 355.5 L 300.4 340.5 L 317.3 340.5 L 343.5 355.5 L 343.5 365.3 L 317.3 379.5 L 300.4 379.5 Z M 275.2 365.1 " fill="#ECECEB"></path><path d="M 124.2 320.9 L 123.9 330.5 L 149.4 345.5 L 166.3 345.5 L 192.5 330.5 L 192.5 320.7 L 166.3 306.5 L 149.4 306.5 Z M 124.2 320.9 " fill="none" stroke="#707070" stroke-width="1.00" stroke-miterlimit="0.00" stroke-linejoin="round" transform="matrix(1.00, 0.00, 0.00, -1.00, 151.0, 686.0)"></path><path d="M 275.5 355.5 L 266.4 345.7 L 275.5 365.3 Z M 274.9 355.5 " fill="#CBCDCF"></path><path d="M 124.5 330.5 L 115.4 340.3 L 124.5 320.7 Z M 123.9 330.5 " fill="none" stroke="#707070" stroke-width="1.00" stroke-miterlimit="0.00" stroke-linejoin="round" transform="matrix(1.00, 0.00, 0.00, -1.00, 151.0, 686.0)"></path><path d="M 351.2 345.7 L 343.5 355.5 L 343.5 365.3 Z M 351.2 345.7 " fill="#B3B3B6"></path><path d="M 200.2 340.3 L 192.5 330.5 L 192.5 320.7 Z M 200.2 340.3 " fill="none" stroke="#707070" stroke-width="1.00" stroke-miterlimit="0.00" stroke-linejoin="round" transform="matrix(1.00, 0.00, 0.00, -1.00, 151.0, 686.0)"></path><path d="M 317.3 340.5 L 308.8 321.2 L 300.4 340.5 Z M 317.3 340.8 " fill="#ECECEB"></path><path d="M 166.3 345.5 L 157.8 364.8 L 149.4 345.5 Z M 166.3 345.2 " fill="none" stroke="#707070" stroke-width="1.00" stroke-miterlimit="0.00" stroke-linejoin="round" transform="matrix(1.00, 0.00, 0.00, -1.00, 151.0, 686.0)"></path><path d="M 317.3 340.8 L 308.8 321.2 L 351.2 345.7 L 342.8 355.5 Z M 317.3 340.8 " fill="#B3B3B6"></path><path d="M 166.3 345.2 L 157.8 364.8 L 200.2 340.3 L 191.8 330.5 Z M 166.3 345.2 " fill="none" stroke="#707070" stroke-width="1.00" stroke-miterlimit="0.00" stroke-linejoin="round" transform="matrix(1.00, 0.00, 0.00, -1.00, 151.0, 686.0)"></path><path d="M 274.9 355.5 L 266.4 345.7 L 308.8 321.2 L 300.4 340.8 Z M 274.9 355.5 " fill="#CBCDCF"></path><path d="M 123.9 330.5 L 115.4 340.3 L 157.8 364.8 L 149.4 345.2 Z M 123.9 330.5 " fill="none" stroke="#707070" stroke-width="1.00" stroke-miterlimit="0.00" stroke-linejoin="round" transform="matrix(1.00, 0.00, 0.00, -1.00, 151.0, 686.0)"></path><path d="M 322.0 368.0 C 314.8 372.4 302.8 372.5 295.4 368.2 C 288.0 364.0 288.0 357.0 295.5 352.7 C 302.9 348.4 315.0 348.4 322.4 352.6 C 329.7 356.9 329.7 363.8 322.0 368.0 Z M 318.0 366.0 C 323.7 362.9 323.8 357.9 318.5 354.9 C 313.2 351.8 304.6 351.8 299.3 354.9 C 294.0 358.0 293.9 363.0 299.2 366.0 C 304.5 369.0 313.1 369.0 318.0 366.0 Z M 318.4 365.9 " fill="#707070"></path><path d="M 321.9 371.7 L 328.3 367.9 L 324.6 365.8 L 318.2 369.5 Z M 321.9 371.7 " fill="#707070"></path><path d="M 293.3 355.1 L 299.7 351.4 L 296.0 349.3 L 289.6 353.0 Z M 293.3 355.1 " fill="#707070"></path><path d="M 290.3 368.5 L 296.6 372.2 L 300.4 370.0 L 294.0 366.4 Z M 290.3 368.5 " fill="#707070"></path><path d="M 319.2 351.8 L 325.5 355.5 L 329.2 353.4 L 322.9 349.7 Z M 319.2 351.8 " fill="#707070"></path><path d="M 304.2 373.7 L 313.3 373.6 L 313.3 370.6 L 304.2 370.7 Z M 304.2 373.7 " fill="#707070"></path><path d="M 304.4 350.2 L 313.4 350.2 L 313.5 347.2 L 304.4 347.2 Z M 304.4 350.2 " fill="#707070"></path><path d="M 331.8 363.0 L 331.8 357.7 L 326.6 357.8 L 326.5 363.0 Z M 331.8 363.0 " fill="#707070"></path><path d="M 291.1 363.1 L 291.1 357.8 L 285.9 357.9 L 285.9 363.1 Z M 291.1 363.1 " fill="#707070"></path><path d="M 314.0 357.0 C 311.4 355.5 306.4 355.5 303.4 357.2 C 300.3 359.0 300.3 361.9 303.3 363.6 C 306.3 365.4 311.3 365.4 314.4 363.6 C 317.4 361.8 317.5 359.0 314.0 357.0 Z M 314.4 357.2 " fill="#707070"></path><text xml:space="preserve" font-family="HelveticaNeue" font-size="10.0" fill="#000000" transform="matrix(1.00, 0.00, -0.00, -1.00, 278.7, 305.9)">E</text><text xml:space="preserve" font-family="HelveticaNeue" font-size="10.0" fill="#000000" transform="matrix(1.00, 0.00, -0.00, -1.00, 284.8, 305.9)">M</text><text xml:space="preserve" font-family="HelveticaNeue" font-size="10.0" fill="#000000" transform="matrix(1.00, 0.00, -0.00, -1.00, 293.5, 305.9)">R</text><text xml:space="preserve" font-family="HelveticaNeue" font-size="10.0" fill="#000000" transform="matrix(1.00, 0.00, -0.00, -1.00, 300.3, 305.9)"> </text><text xml:space="preserve" font-family="HelveticaNeue" font-size="10.0" fill="#000000" transform="matrix(1.00, 0.00, -0.00, -1.00, 303.1, 305.9)">A</text><text xml:space="preserve" font-family="HelveticaNeue" font-size="10.0" fill="#000000" transform="matrix(1.00, 0.00, -0.00, -1.00, 309.6, 305.9)">c</text><text xml:space="preserve" font-family="HelveticaNeue" font-size="10.0" fill="#000000" transform="matrix(1.00, 0.00, -0.00, -1.00, 315.0, 305.9)">t</text><text xml:space="preserve" font-family="HelveticaNeue" font-size="10.0" fill="#000000" transform="matrix(1.00, 0.00, -0.00, -1.00, 318.1, 305.9)">i</text><text xml:space="preserve" font-family="HelveticaNeue" font-size="10.0" fill="#000000" transform="matrix(1.00, 0.00, -0.00, -1.00, 320.3, 305.9)">v</text><text xml:space="preserve" font-family="HelveticaNeue" font-size="10.0" fill="#000000" transform="matrix(1.00, 0.00, -0.00, -1.00, 325.3, 305.9)">i</text><text xml:space="preserve" font-family="HelveticaNeue" font-size="10.0" fill="#000000" transform="matrix(1.00, 0.00, -0.00, -1.00, 327.5, 305.9)">t</text><text xml:space="preserve" font-family="HelveticaNeue" font-size="10.0" fill="#000000" transform="matrix(1.00, 0.00, -0.00, -1.00, 330.7, 305.9)">y</text></g></g><g><clipPath id="clip-86"><path d="M 480.0 448.0 L 604.0 448.0 L 604.0 571.0 L 480.0 571.0 Z M 480.0 448.0 "></path></clipPath><g clip-path="url(#clip-86)"><path d="M 416.5 170.2 L 416.5 204.6 L 373.2 229.5 L 366.6 229.5 L 297.5 189.3 L 297.5 162.6 L 346.7 134.5 L 353.3 134.5 Z M 416.2 170.2 " fill="none" stroke="#413F42" stroke-width="1.00" stroke-miterlimit="0.00" stroke-linejoin="round" transform="matrix(1.00, 0.00, 0.00, -1.00, 185.0, 701.0)"></path><path d="M 485.0 513.6 L 554.9 473.4 L 598.0 498.3 L 598.0 528.9 L 535.0 565.2 L 485.0 536.5 Z M 485.3 513.6 " fill="#E6E6E7"></path><path d="M 496.2 554.1 L 520.8 539.9 L 545.3 554.1 L 520.8 568.2 Z M 496.2 554.1 " fill="#1884D8"></path><path d="M 311.2 146.9 L 335.8 161.1 L 360.3 146.9 L 335.8 132.8 Z M 311.2 146.9 " fill="none" stroke="#409EEC" stroke-width="1.00" stroke-miterlimit="0.00" stroke-linejoin="round" transform="matrix(1.00, 0.00, 0.00, -1.00, 185.0, 701.0)"></path><path d="M 496.2 554.1 L 506.0 525.7 L 521.5 517.2 L 521.5 539.9 Z M 496.2 554.1 " fill="#146EB3"></path><path d="M 311.2 146.9 L 321.0 175.3 L 336.5 183.8 L 336.5 161.1 Z M 311.2 146.9 " fill="none" stroke="#42A1E9" stroke-width="1.00" stroke-miterlimit="0.00" transform="matrix(1.00, 0.00, 0.00, -1.00, 185.0, 701.0)"></path><path d="M 521.5 539.9 L 545.3 554.1 L 535.5 525.7 L 521.5 517.2 Z M 520.8 539.9 " fill="#10578F"></path><path d="M 336.5 161.1 L 360.3 146.9 L 350.5 175.3 L 336.5 183.8 Z M 335.8 161.1 " fill="none" stroke="#42A1E9" stroke-width="1.00" stroke-miterlimit="0.00" transform="matrix(1.00, 0.00, 0.00, -1.00, 185.0, 701.0)"></path><path d="M 578.6 525.9 L 568.8 542.9 Z M 578.6 525.9 " fill="#FEFEFE"></path><path d="M 393.6 175.1 L 383.8 158.1 Z M 393.6 175.1 " fill="none" stroke="#000000" stroke-width="1.00" stroke-miterlimit="0.00" stroke-linejoin="round" transform="matrix(1.00, 0.00, 0.00, -1.00, 185.0, 701.0)"></path><path d="M 554.5 508.9 L 578.5 494.7 L 578.5 525.9 L 569.5 531.6 L 569.5 542.9 L 554.5 551.4 Z M 554.1 508.9 " fill="#FEFEFE"></path><path d="M 369.5 192.1 L 393.5 206.3 L 393.5 175.1 L 384.5 169.4 L 384.5 158.1 L 369.5 149.6 Z M 369.1 192.1 " fill="none" stroke="#000000" stroke-width="1.00" stroke-miterlimit="0.00" stroke-linejoin="round" transform="matrix(1.00, 0.00, 0.00, -1.00, 185.0, 701.0)"></path><text xml:space="preserve" font-family="HelveticaNeue" font-size="10.0" fill="#000000" transform="matrix(1.00, 0.00, -0.00, -1.00, 506.4, 456.1)">C</text><text xml:space="preserve" font-family="HelveticaNeue" font-size="10.0" fill="#000000" transform="matrix(1.00, 0.00, -0.00, -1.00, 513.6, 456.1)">S</text><text xml:space="preserve" font-family="HelveticaNeue" font-size="10.0" fill="#000000" transform="matrix(1.00, 0.00, -0.00, -1.00, 520.1, 456.1)">V</text><text xml:space="preserve" font-family="HelveticaNeue" font-size="10.0" fill="#000000" transform="matrix(1.00, 0.00, -0.00, -1.00, 526.2, 456.1)"> </text><text xml:space="preserve" font-family="HelveticaNeue" font-size="10.0" fill="#000000" transform="matrix(1.00, 0.00, -0.00, -1.00, 529.0, 456.1)">D</text><text xml:space="preserve" font-family="HelveticaNeue" font-size="10.0" fill="#000000" transform="matrix(1.00, 0.00, -0.00, -1.00, 536.0, 456.1)">a</text><text xml:space="preserve" font-family="HelveticaNeue" font-size="10.0" fill="#000000" transform="matrix(1.00, 0.00, -0.00, -1.00, 541.4, 456.1)">t</text><text xml:space="preserve" font-family="HelveticaNeue" font-size="10.0" fill="#000000" transform="matrix(1.00, 0.00, -0.00, -1.00, 544.6, 456.1)">a</text><text xml:space="preserve" font-family="HelveticaNeue" font-size="10.0" fill="#000000" transform="matrix(1.00, 0.00, -0.00, -1.00, 549.9, 456.1)"> </text><text xml:space="preserve" font-family="HelveticaNeue" font-size="10.0" fill="#000000" transform="matrix(1.00, 0.00, -0.00, -1.00, 552.7, 456.1)">F</text><text xml:space="preserve" font-family="HelveticaNeue" font-size="10.0" fill="#000000" transform="matrix(1.00, 0.00, -0.00, -1.00, 558.5, 456.1)">o</text><text xml:space="preserve" font-family="HelveticaNeue" font-size="10.0" fill="#000000" transform="matrix(1.00, 0.00, -0.00, -1.00, 564.2, 456.1)">r</text><text xml:space="preserve" font-family="HelveticaNeue" font-size="10.0" fill="#000000" transform="matrix(1.00, 0.00, -0.00, -1.00, 567.5, 456.1)">m</text><text xml:space="preserve" font-family="HelveticaNeue" font-size="10.0" fill="#000000" transform="matrix(1.00, 0.00, -0.00, -1.00, 576.1, 456.1)">a</text><text xml:space="preserve" font-family="HelveticaNeue" font-size="10.0" fill="#000000" transform="matrix(1.00, 0.00, -0.00, -1.00, 581.4, 456.1)">t</text></g></g><g><clipPath id="clip-87"><path d="M 503.0 275.0 L 610.0 275.0 L 610.0 411.0 L 503.0 411.0 Z M 503.0 275.0 "></path></clipPath><g clip-path="url(#clip-87)"><path d="M 290.5 408.5 L 290.5 365.0 L 300.8 346.3 L 327.7 331.5 L 349.3 331.5 L 376.2 346.3 L 387.5 365.0 L 387.5 408.5 L 338.5 436.5 Z M 290.0 408.5 " fill="none" stroke="#000000" stroke-width="1.00" stroke-miterlimit="0.00" stroke-linecap="round" stroke-linejoin="round" transform="matrix(1.00, 0.00, 0.00, -1.00, 221.0, 739.0)"></path><path d="M 543.4 355.4 L 559.5 346.0 L 575.7 355.4 L 559.5 364.7 Z M 543.4 355.4 " fill="#ECECEB"></path><path d="M 322.4 383.6 L 338.5 393.0 L 354.7 383.6 L 338.5 374.3 Z M 322.4 383.6 " fill="none" stroke="#555454" stroke-width="1.00" stroke-miterlimit="0.00" stroke-linejoin="round" transform="matrix(1.00, 0.00, 0.00, -1.00, 221.0, 739.0)"></path><path d="M 543.5 355.4 L 543.5 342.9 L 559.5 333.6 L 559.5 346.0 Z M 543.4 355.4 " fill="#CBCDCF"></path><path d="M 322.5 383.6 L 322.5 396.1 L 338.5 405.4 L 338.5 393.0 Z M 322.4 383.6 " fill="none" stroke="#555454" stroke-width="1.00" stroke-miterlimit="0.00" stroke-linejoin="round" transform="matrix(1.00, 0.00, 0.00, -1.00, 221.0, 739.0)"></path><path d="M 559.5 346.0 L 575.5 355.4 L 575.5 342.9 L 559.5 333.6 Z M 559.5 346.0 " fill="#B3B3B6"></path><path d="M 338.5 393.0 L 354.5 383.6 L 354.5 396.1 L 338.5 405.4 Z M 338.5 393.0 " fill="none" stroke="#555454" stroke-width="1.00" stroke-miterlimit="0.00" stroke-linejoin="round" transform="matrix(1.00, 0.00, 0.00, -1.00, 221.0, 739.0)"></path><path d="M 322.5 396.1 L 322.5 383.6 L 338.5 374.3 L 354.5 383.6 L 354.5 396.1 L 338.5 405.4 Z M 322.4 396.1 " fill="none" stroke="#000000" stroke-width="1.00" stroke-miterlimit="0.00" stroke-linecap="round" stroke-linejoin="round" transform="matrix(1.00, 0.00, 0.00, -1.00, 221.0, 739.0)"></path><path d="M 561.0 355.0 L 564.9 352.9 C 565.5 352.5 565.5 352.0 564.9 351.6 L 560.6 349.2 C 560.0 348.8 559.0 348.8 558.4 349.2 L 554.1 351.6 C 553.5 352.0 553.5 352.5 554.1 352.9 L 558.4 355.4 C 559.0 355.7 560.0 355.7 561.0 355.0 Z M 560.6 355.4 " fill="#707070"></path><path d="M 543.4 374.0 L 559.5 364.7 L 575.7 374.0 L 559.5 383.4 Z M 543.4 374.0 " fill="#ECECEB"></path><path d="M 322.4 365.0 L 338.5 374.3 L 354.7 365.0 L 338.5 355.6 Z M 322.4 365.0 " fill="none" stroke="#555454" stroke-width="1.00" stroke-miterlimit="0.00" stroke-linejoin="round" transform="matrix(1.00, 0.00, 0.00, -1.00, 221.0, 739.0)"></path><path d="M 543.5 374.0 L 543.5 361.6 L 559.5 352.3 L 559.5 364.7 Z M 543.4 374.0 " fill="#CBCDCF"></path><path d="M 322.5 365.0 L 322.5 377.4 L 338.5 386.7 L 338.5 374.3 Z M 322.4 365.0 " fill="none" stroke="#555454" stroke-width="1.00" stroke-miterlimit="0.00" stroke-linejoin="round" transform="matrix(1.00, 0.00, 0.00, -1.00, 221.0, 739.0)"></path><path d="M 559.5 364.7 L 575.5 374.0 L 575.5 361.6 L 559.5 352.3 Z M 559.5 364.7 " fill="#B3B3B6"></path><path d="M 338.5 374.3 L 354.5 365.0 L 354.5 377.4 L 338.5 386.7 Z M 338.5 374.3 " fill="none" stroke="#555454" stroke-width="1.00" stroke-miterlimit="0.00" stroke-linejoin="round" transform="matrix(1.00, 0.00, 0.00, -1.00, 221.0, 739.0)"></path><path d="M 322.5 377.4 L 322.5 365.0 L 338.5 355.6 L 354.5 365.0 L 354.5 377.4 L 338.5 386.7 Z M 322.4 377.4 " fill="none" stroke="#000000" stroke-width="1.00" stroke-miterlimit="0.00" stroke-linecap="round" stroke-linejoin="round" transform="matrix(1.00, 0.00, 0.00, -1.00, 221.0, 739.0)"></path><path d="M 561.0 374.0 L 564.9 371.5 C 565.5 371.2 565.5 370.6 564.9 370.3 L 560.6 367.8 C 560.0 367.5 559.0 367.5 558.4 367.8 L 554.1 370.3 C 553.5 370.6 553.5 371.2 554.1 371.5 L 558.4 374.0 C 559.0 374.4 560.0 374.4 561.0 374.0 Z M 560.6 374.0 " fill="#707070"></path><path d="M 543.4 392.7 L 559.5 383.4 L 575.7 392.7 L 559.5 402.0 Z M 543.4 392.7 " fill="#ECECEB"></path><path d="M 322.4 346.3 L 338.5 355.6 L 354.7 346.3 L 338.5 337.0 Z M 322.4 346.3 " fill="none" stroke="#555454" stroke-width="1.00" stroke-miterlimit="0.00" stroke-linejoin="round" transform="matrix(1.00, 0.00, 0.00, -1.00, 221.0, 739.0)"></path><path d="M 543.5 392.7 L 543.5 380.3 L 559.5 370.9 L 559.5 383.4 Z M 543.4 392.7 " fill="#CBCDCF"></path><path d="M 322.5 346.3 L 322.5 358.7 L 338.5 368.1 L 338.5 355.6 Z M 322.4 346.3 " fill="none" stroke="#555454" stroke-width="1.00" stroke-miterlimit="0.00" stroke-linejoin="round" transform="matrix(1.00, 0.00, 0.00, -1.00, 221.0, 739.0)"></path><path d="M 559.5 383.4 L 575.5 392.7 L 575.5 380.3 L 559.5 370.9 Z M 559.5 383.4 " fill="#B3B3B6"></path><path d="M 338.5 355.6 L 354.5 346.3 L 354.5 358.7 L 338.5 368.1 Z M 338.5 355.6 " fill="none" stroke="#555454" stroke-width="1.00" stroke-miterlimit="0.00" stroke-linejoin="round" transform="matrix(1.00, 0.00, 0.00, -1.00, 221.0, 739.0)"></path><path d="M 521.8 342.9 L 538.0 333.6 L 554.1 342.9 L 538.0 352.3 Z M 521.8 342.9 " fill="#ECECEB"></path><path d="M 300.8 396.1 L 317.0 405.4 L 333.1 396.1 L 317.0 386.7 Z M 300.8 396.1 " fill="none" stroke="#555454" stroke-width="1.00" stroke-miterlimit="0.00" stroke-linejoin="round" transform="matrix(1.00, 0.00, 0.00, -1.00, 221.0, 739.0)"></path><path d="M 522.5 342.9 L 522.5 330.5 L 538.5 321.2 L 538.5 333.6 Z M 521.8 342.9 " fill="#CBCDCF"></path><path d="M 301.5 396.1 L 301.5 408.5 L 317.5 417.8 L 317.5 405.4 Z M 300.8 396.1 " fill="none" stroke="#555454" stroke-width="1.00" stroke-miterlimit="0.00" stroke-linejoin="round" transform="matrix(1.00, 0.00, 0.00, -1.00, 221.0, 739.0)"></path><path d="M 538.5 333.6 L 554.5 342.9 L 554.5 330.5 L 538.5 321.2 Z M 538.0 333.6 " fill="#B3B3B6"></path><path d="M 317.5 405.4 L 333.5 396.1 L 333.5 408.5 L 317.5 417.8 Z M 317.0 405.4 " fill="none" stroke="#555454" stroke-width="1.00" stroke-miterlimit="0.00" stroke-linejoin="round" transform="matrix(1.00, 0.00, 0.00, -1.00, 221.0, 739.0)"></path><path d="M 539.0 343.0 L 543.4 340.4 C 544.0 340.1 544.0 339.5 543.4 339.2 L 539.0 336.7 C 538.4 336.4 537.5 336.4 536.9 336.7 L 532.6 339.2 C 532.0 339.5 532.0 340.1 532.6 340.4 L 536.9 342.9 C 537.5 343.3 538.4 343.3 539.0 343.0 Z M 539.0 342.9 " fill="#707070"></path><path d="M 521.8 361.6 L 538.0 352.3 L 554.1 361.6 L 538.0 370.9 Z M 521.8 361.6 " fill="#ECECEB"></path><path d="M 300.8 377.4 L 317.0 386.7 L 333.1 377.4 L 317.0 368.1 Z M 300.8 377.4 " fill="none" stroke="#555454" stroke-width="1.00" stroke-miterlimit="0.00" stroke-linejoin="round" transform="matrix(1.00, 0.00, 0.00, -1.00, 221.0, 739.0)"></path><path d="M 522.5 361.6 L 522.5 349.2 L 538.5 339.8 L 538.5 352.3 Z M 521.8 361.6 " fill="#CBCDCF"></path><path d="M 301.5 377.4 L 301.5 389.8 L 317.5 399.2 L 317.5 386.7 Z M 300.8 377.4 " fill="none" stroke="#555454" stroke-width="1.00" stroke-miterlimit="0.00" stroke-linejoin="round" transform="matrix(1.00, 0.00, 0.00, -1.00, 221.0, 739.0)"></path><path d="M 538.5 352.3 L 554.5 361.6 L 554.5 349.2 L 538.5 339.8 Z M 538.0 352.3 " fill="#B3B3B6"></path><path d="M 317.5 386.7 L 333.5 377.4 L 333.5 389.8 L 317.5 399.2 Z M 317.0 386.7 " fill="none" stroke="#555454" stroke-width="1.00" stroke-miterlimit="0.00" stroke-linejoin="round" transform="matrix(1.00, 0.00, 0.00, -1.00, 221.0, 739.0)"></path><path d="M 539.0 362.0 L 543.4 359.1 C 544.0 358.8 544.0 358.2 543.4 357.9 L 539.0 355.4 C 538.4 355.0 537.5 355.0 536.9 355.4 L 532.6 357.9 C 532.0 358.2 532.0 358.8 532.6 359.1 L 536.9 361.6 C 537.5 361.9 538.4 361.9 539.0 362.0 Z M 539.0 361.6 " fill="#707070"></path><path d="M 521.8 380.3 L 538.0 370.9 L 554.1 380.3 L 538.0 389.6 Z M 521.8 380.3 " fill="#ECECEB"></path><path d="M 300.8 358.7 L 317.0 368.1 L 333.1 358.7 L 317.0 349.4 Z M 300.8 358.7 " fill="none" stroke="#555454" stroke-width="1.00" stroke-miterlimit="0.00" stroke-linejoin="round" transform="matrix(1.00, 0.00, 0.00, -1.00, 221.0, 739.0)"></path><path d="M 522.5 380.3 L 522.5 367.8 L 538.5 358.5 L 538.5 370.9 Z M 521.8 380.3 " fill="#CBCDCF"></path><path d="M 301.5 358.7 L 301.5 371.2 L 317.5 380.5 L 317.5 368.1 Z M 300.8 358.7 " fill="none" stroke="#555454" stroke-width="1.00" stroke-miterlimit="0.00" stroke-linejoin="round" transform="matrix(1.00, 0.00, 0.00, -1.00, 221.0, 739.0)"></path><path d="M 538.5 370.9 L 554.5 380.3 L 554.5 367.8 L 538.5 358.5 Z M 538.0 370.9 " fill="#B3B3B6"></path><path d="M 317.5 368.1 L 333.5 358.7 L 333.5 371.2 L 317.5 380.5 Z M 317.0 368.1 " fill="none" stroke="#555454" stroke-width="1.00" stroke-miterlimit="0.00" stroke-linejoin="round" transform="matrix(1.00, 0.00, 0.00, -1.00, 221.0, 739.0)"></path><path d="M 539.0 380.0 L 543.4 377.8 C 544.0 377.4 544.0 376.9 543.4 376.5 L 539.0 374.0 C 538.4 373.7 537.5 373.7 536.9 374.0 L 532.6 376.5 C 532.0 376.9 532.0 377.4 532.6 377.8 L 536.9 380.3 C 537.5 380.6 538.4 380.6 539.0 380.0 Z M 539.0 380.3 " fill="#707070"></path><path d="M 564.9 342.9 L 581.1 333.6 L 597.2 342.9 L 581.1 352.3 Z M 564.9 342.9 " fill="#ECECEB"></path><path d="M 343.9 396.1 L 360.1 405.4 L 376.2 396.1 L 360.1 386.7 Z M 343.9 396.1 " fill="none" stroke="#555454" stroke-width="1.00" stroke-miterlimit="0.00" stroke-linejoin="round" transform="matrix(1.00, 0.00, 0.00, -1.00, 221.0, 739.0)"></path><path d="M 565.5 342.9 L 565.5 330.5 L 581.5 321.2 L 581.5 333.6 Z M 564.9 342.9 " fill="#CBCDCF"></path><path d="M 344.5 396.1 L 344.5 408.5 L 360.5 417.8 L 360.5 405.4 Z M 343.9 396.1 " fill="none" stroke="#555454" stroke-width="1.00" stroke-miterlimit="0.00" stroke-linejoin="round" transform="matrix(1.00, 0.00, 0.00, -1.00, 221.0, 739.0)"></path><path d="M 581.5 333.6 L 597.5 342.9 L 597.5 330.5 L 581.5 321.2 Z M 581.1 333.6 " fill="#B3B3B6"></path><path d="M 360.5 405.4 L 376.5 396.1 L 376.5 408.5 L 360.5 417.8 Z M 360.1 405.4 " fill="none" stroke="#555454" stroke-width="1.00" stroke-miterlimit="0.00" stroke-linejoin="round" transform="matrix(1.00, 0.00, 0.00, -1.00, 221.0, 739.0)"></path><path d="M 582.0 343.0 L 586.5 340.4 C 587.0 340.1 587.0 339.5 586.5 339.2 L 582.1 336.7 C 581.5 336.4 580.6 336.4 580.0 336.7 L 575.7 339.2 C 575.1 339.5 575.1 340.1 575.7 340.4 L 580.0 342.9 C 580.6 343.3 581.5 343.3 582.0 343.0 Z M 582.1 342.9 " fill="#707070"></path><path d="M 564.9 361.6 L 581.1 352.3 L 597.2 361.6 L 581.1 370.9 Z M 564.9 361.6 " fill="#ECECEB"></path><path d="M 343.9 377.4 L 360.1 386.7 L 376.2 377.4 L 360.1 368.1 Z M 343.9 377.4 " fill="none" stroke="#555454" stroke-width="1.00" stroke-miterlimit="0.00" stroke-linejoin="round" transform="matrix(1.00, 0.00, 0.00, -1.00, 221.0, 739.0)"></path><path d="M 565.5 361.6 L 565.5 349.2 L 581.5 339.8 L 581.5 352.3 Z M 564.9 361.6 " fill="#CBCDCF"></path><path d="M 344.5 377.4 L 344.5 389.8 L 360.5 399.2 L 360.5 386.7 Z M 343.9 377.4 " fill="none" stroke="#555454" stroke-width="1.00" stroke-miterlimit="0.00" stroke-linejoin="round" transform="matrix(1.00, 0.00, 0.00, -1.00, 221.0, 739.0)"></path><path d="M 581.5 352.3 L 597.5 361.6 L 597.5 349.2 L 581.5 339.8 Z M 581.1 352.3 " fill="#B3B3B6"></path><path d="M 360.5 386.7 L 376.5 377.4 L 376.5 389.8 L 360.5 399.2 Z M 360.1 386.7 " fill="none" stroke="#555454" stroke-width="1.00" stroke-miterlimit="0.00" stroke-linejoin="round" transform="matrix(1.00, 0.00, 0.00, -1.00, 221.0, 739.0)"></path><path d="M 582.0 362.0 L 586.5 359.1 C 587.0 358.8 587.0 358.2 586.5 357.9 L 582.1 355.4 C 581.5 355.0 580.6 355.0 580.0 355.4 L 575.7 357.9 C 575.1 358.2 575.1 358.8 575.7 359.1 L 580.0 361.6 C 580.6 361.9 581.5 361.9 582.0 362.0 Z M 582.1 361.6 " fill="#707070"></path><path d="M 564.9 380.3 L 581.1 370.9 L 597.2 380.3 L 581.1 389.6 Z M 564.9 380.3 " fill="#ECECEB"></path><path d="M 343.9 358.7 L 360.1 368.1 L 376.2 358.7 L 360.1 349.4 Z M 343.9 358.7 " fill="none" stroke="#555454" stroke-width="1.00" stroke-miterlimit="0.00" stroke-linejoin="round" transform="matrix(1.00, 0.00, 0.00, -1.00, 221.0, 739.0)"></path><path d="M 565.5 380.3 L 565.5 367.8 L 581.5 358.5 L 581.5 370.9 Z M 564.9 380.3 " fill="#CBCDCF"></path><path d="M 344.5 358.7 L 344.5 371.2 L 360.5 380.5 L 360.5 368.1 Z M 343.9 358.7 " fill="none" stroke="#555454" stroke-width="1.00" stroke-miterlimit="0.00" stroke-linejoin="round" transform="matrix(1.00, 0.00, 0.00, -1.00, 221.0, 739.0)"></path><path d="M 581.5 370.9 L 597.5 380.3 L 597.5 367.8 L 581.5 358.5 Z M 581.1 370.9 " fill="#B3B3B6"></path><path d="M 360.5 368.1 L 376.5 358.7 L 376.5 371.2 L 360.5 380.5 Z M 360.1 368.1 " fill="none" stroke="#555454" stroke-width="1.00" stroke-miterlimit="0.00" stroke-linejoin="round" transform="matrix(1.00, 0.00, 0.00, -1.00, 221.0, 739.0)"></path><path d="M 582.0 380.0 L 586.5 377.8 C 587.0 377.4 587.0 376.9 586.5 376.5 L 582.1 374.0 C 581.5 373.7 580.6 373.7 580.0 374.0 L 575.7 376.5 C 575.1 376.9 575.1 377.4 575.7 377.8 L 580.0 380.3 C 580.6 380.6 581.5 380.6 582.0 380.0 Z M 582.1 380.3 " fill="#707070"></path><path d="M 543.4 330.5 L 559.5 321.2 L 575.7 330.5 L 559.5 339.8 Z M 543.4 330.5 " fill="#ECECEB"></path><path d="M 322.4 408.5 L 338.5 417.8 L 354.7 408.5 L 338.5 399.2 Z M 322.4 408.5 " fill="none" stroke="#555454" stroke-width="1.00" stroke-miterlimit="0.00" stroke-linejoin="round" transform="matrix(1.00, 0.00, 0.00, -1.00, 221.0, 739.0)"></path><path d="M 543.5 330.5 L 543.5 318.1 L 559.5 308.7 L 559.5 321.2 Z M 543.4 330.5 " fill="#CBCDCF"></path><path d="M 322.5 408.5 L 322.5 420.9 L 338.5 430.3 L 338.5 417.8 Z M 322.4 408.5 " fill="none" stroke="#555454" stroke-width="1.00" stroke-miterlimit="0.00" stroke-linejoin="round" transform="matrix(1.00, 0.00, 0.00, -1.00, 221.0, 739.0)"></path><path d="M 559.5 321.2 L 575.5 330.5 L 575.5 318.1 L 559.5 308.7 Z M 559.5 321.2 " fill="#B3B3B6"></path><path d="M 338.5 417.8 L 354.5 408.5 L 354.5 420.9 L 338.5 430.3 Z M 338.5 417.8 " fill="none" stroke="#555454" stroke-width="1.00" stroke-miterlimit="0.00" stroke-linejoin="round" transform="matrix(1.00, 0.00, 0.00, -1.00, 221.0, 739.0)"></path><path d="M 561.0 330.0 L 564.9 328.0 C 565.5 327.7 565.5 327.1 564.9 326.8 L 560.6 324.3 C 560.0 323.9 559.0 323.9 558.4 324.3 L 554.1 326.8 C 553.5 327.1 553.5 327.7 554.1 328.0 L 558.4 330.5 C 559.0 330.8 560.0 330.8 561.0 330.0 Z M 560.6 330.5 " fill="#707070"></path><path d="M 543.4 349.2 L 559.5 339.8 L 575.7 349.2 L 559.5 358.5 Z M 543.4 349.2 " fill="#ECECEB"></path><path d="M 322.4 389.8 L 338.5 399.2 L 354.7 389.8 L 338.5 380.5 Z M 322.4 389.8 " fill="none" stroke="#555454" stroke-width="1.00" stroke-miterlimit="0.00" stroke-linejoin="round" transform="matrix(1.00, 0.00, 0.00, -1.00, 221.0, 739.0)"></path><path d="M 543.5 349.2 L 543.5 336.7 L 559.5 327.4 L 559.5 339.8 Z M 543.4 349.2 " fill="#CBCDCF"></path><path d="M 322.5 389.8 L 322.5 402.3 L 338.5 411.6 L 338.5 399.2 Z M 322.4 389.8 " fill="none" stroke="#555454" stroke-width="1.00" stroke-miterlimit="0.00" stroke-linejoin="round" transform="matrix(1.00, 0.00, 0.00, -1.00, 221.0, 739.0)"></path><path d="M 559.5 339.8 L 575.5 349.2 L 575.5 336.7 L 559.5 327.4 Z M 559.5 339.8 " fill="#B3B3B6"></path><path d="M 338.5 399.2 L 354.5 389.8 L 354.5 402.3 L 338.5 411.6 Z M 338.5 399.2 " fill="none" stroke="#555454" stroke-width="1.00" stroke-miterlimit="0.00" stroke-linejoin="round" transform="matrix(1.00, 0.00, 0.00, -1.00, 221.0, 739.0)"></path><path d="M 561.0 349.0 L 564.9 346.7 C 565.5 346.3 565.5 345.8 564.9 345.4 L 560.6 342.9 C 560.0 342.6 559.0 342.6 558.4 342.9 L 554.1 345.4 C 553.5 345.8 553.5 346.3 554.1 346.7 L 558.4 349.2 C 559.0 349.5 560.0 349.5 561.0 349.0 Z M 560.6 349.2 " fill="#707070"></path><path d="M 543.4 367.8 L 559.5 358.5 L 575.7 367.8 L 559.5 377.1 Z M 543.4 367.8 " fill="#ECECEB"></path><path d="M 322.4 371.2 L 338.5 380.5 L 354.7 371.2 L 338.5 361.9 Z M 322.4 371.2 " fill="none" stroke="#555454" stroke-width="1.00" stroke-miterlimit="0.00" stroke-linejoin="round" transform="matrix(1.00, 0.00, 0.00, -1.00, 221.0, 739.0)"></path><path d="M 543.5 367.8 L 543.5 355.4 L 559.5 346.0 L 559.5 358.5 Z M 543.4 367.8 " fill="#CBCDCF"></path><path d="M 322.5 371.2 L 322.5 383.6 L 338.5 393.0 L 338.5 380.5 Z M 322.4 371.2 " fill="none" stroke="#555454" stroke-width="1.00" stroke-miterlimit="0.00" stroke-linejoin="round" transform="matrix(1.00, 0.00, 0.00, -1.00, 221.0, 739.0)"></path><path d="M 559.5 358.5 L 575.5 367.8 L 575.5 355.4 L 559.5 346.0 Z M 559.5 358.5 " fill="#B3B3B6"></path><path d="M 338.5 380.5 L 354.5 371.2 L 354.5 383.6 L 338.5 393.0 Z M 338.5 380.5 " fill="none" stroke="#555454" stroke-width="1.00" stroke-miterlimit="0.00" stroke-linejoin="round" transform="matrix(1.00, 0.00, 0.00, -1.00, 221.0, 739.0)"></path><path d="M 561.0 368.0 L 564.9 365.3 C 565.5 365.0 565.5 364.4 564.9 364.1 L 560.6 361.6 C 560.0 361.3 559.0 361.3 558.4 361.6 L 554.1 364.1 C 553.5 364.4 553.5 365.0 554.1 365.3 L 558.4 367.8 C 559.0 368.2 560.0 368.2 561.0 368.0 Z M 560.6 367.8 " fill="#707070"></path><path d="M 561.0 392.0 L 565.7 389.7 C 566.3 389.4 566.3 388.8 565.7 388.5 L 561.4 386.0 C 560.8 385.6 559.8 385.6 559.2 386.0 L 554.9 388.5 C 554.3 388.8 554.3 389.4 554.9 389.7 L 559.2 392.2 C 559.8 392.5 560.8 392.5 561.0 392.0 Z M 561.4 392.2 " fill="#707070"></path><path d="M 505.5 319.5 Z M 505.6 319.9 " fill="#FEFEFE"></path><path d="M 284.5 419.5 Z M 284.6 419.1 " fill="none" stroke="#004B90" stroke-width="1.00" stroke-miterlimit="0.00" stroke-linejoin="round" transform="matrix(1.00, 0.00, 0.00, -1.00, 221.0, 739.0)"></path><text xml:space="preserve" font-family="HelveticaNeue" font-size="10.0" fill="#000000" transform="matrix(1.00, 0.00, -0.00, -1.00, 530.4, 282.9)">E</text><text xml:space="preserve" font-family="HelveticaNeue" font-size="10.0" fill="#000000" transform="matrix(1.00, 0.00, -0.00, -1.00, 536.5, 282.9)">M</text><text xml:space="preserve" font-family="HelveticaNeue" font-size="10.0" fill="#000000" transform="matrix(1.00, 0.00, -0.00, -1.00, 545.2, 282.9)">R</text><text xml:space="preserve" font-family="HelveticaNeue" font-size="10.0" fill="#000000" transform="matrix(1.00, 0.00, -0.00, -1.00, 552.1, 282.9)"> </text><text xml:space="preserve" font-family="HelveticaNeue" font-size="10.0" fill="#000000" transform="matrix(1.00, 0.00, -0.00, -1.00, 554.9, 282.9)">C</text><text xml:space="preserve" font-family="HelveticaNeue" font-size="10.0" fill="#000000" transform="matrix(1.00, 0.00, -0.00, -1.00, 562.1, 282.9)">l</text><text xml:space="preserve" font-family="HelveticaNeue" font-size="10.0" fill="#000000" transform="matrix(1.00, 0.00, -0.00, -1.00, 564.3, 282.9)">u</text><text xml:space="preserve" font-family="HelveticaNeue" font-size="10.0" fill="#000000" transform="matrix(1.00, 0.00, -0.00, -1.00, 569.9, 282.9)">s</text><text xml:space="preserve" font-family="HelveticaNeue" font-size="10.0" fill="#000000" transform="matrix(1.00, 0.00, -0.00, -1.00, 574.9, 282.9)">t</text><text xml:space="preserve" font-family="HelveticaNeue" font-size="10.0" fill="#000000" transform="matrix(1.00, 0.00, -0.00, -1.00, 578.0, 282.9)">e</text><text xml:space="preserve" font-family="HelveticaNeue" font-size="10.0" fill="#000000" transform="matrix(1.00, 0.00, -0.00, -1.00, 583.4, 282.9)">r</text></g></g><g><clipPath id="clip-88"><path d="M 279.0 172.0 L 369.0 172.0 L 369.0 271.0 L 279.0 271.0 Z M 279.0 172.0 "></path></clipPath><g clip-path="url(#clip-88)"><path d="M 281.6 244.1 L 324.3 219.4 L 367.0 244.1 L 324.3 268.8 Z M 281.6 244.1 " fill="#ECECEB"></path><path d="M 22.6 386.9 L 65.3 411.6 L 108.0 386.9 L 65.3 362.2 Z M 22.6 386.9 " fill="none" stroke="#555454" stroke-width="1.00" stroke-miterlimit="0.00" stroke-linejoin="round" transform="matrix(1.00, 0.00, 0.00, -1.00, 259.0, 631.0)"></path><path d="M 281.5 244.1 L 281.5 219.4 L 324.5 194.8 L 324.5 219.4 Z M 281.6 244.1 " fill="#CBCDCF"></path><path d="M 22.5 386.9 L 22.5 411.6 L 65.5 436.2 L 65.5 411.6 Z M 22.6 386.9 " fill="none" stroke="#555454" stroke-width="1.00" stroke-miterlimit="0.00" stroke-linejoin="round" transform="matrix(1.00, 0.00, 0.00, -1.00, 259.0, 631.0)"></path><path d="M 324.5 219.4 L 367.5 244.1 L 367.5 219.4 L 324.5 194.8 Z M 324.3 219.4 " fill="#B3B3B6"></path><path d="M 65.5 411.6 L 108.5 386.9 L 108.5 411.6 L 65.5 436.2 Z M 65.3 411.6 " fill="none" stroke="#555454" stroke-width="1.00" stroke-miterlimit="0.00" stroke-linejoin="round" transform="matrix(1.00, 0.00, 0.00, -1.00, 259.0, 631.0)"></path><path d="M 317.9 254.1 L 340.9 240.8 L 322.1 234.1 C 315.8 235.4 308.5 239.6 306.4 243.3 Z M 317.9 254.1 " fill="#707070"></path><path d="M 58.9 376.9 L 81.9 390.2 L 63.1 396.9 C 56.8 395.6 49.5 391.4 47.4 387.7 Z M 58.9 376.9 " fill="none" stroke="#707070" stroke-width="1.00" stroke-miterlimit="0.00" stroke-linejoin="round" transform="matrix(1.00, 0.00, 0.00, -1.00, 259.0, 631.0)"></path><path d="M 342.5 241.5 C 340.6 240.3 333.8 242.5 327.3 246.2 C 320.7 250.0 316.9 253.9 318.8 255.0 C 320.6 256.0 327.4 253.8 333.9 250.1 C 340.5 246.3 344.3 242.4 342.5 241.5 Z M 342.4 241.3 " fill="#707070"></path><path d="M 83.5 389.5 C 81.6 390.7 74.8 388.5 68.3 384.8 C 61.7 381.0 57.9 377.1 59.8 376.0 C 61.6 375.0 68.4 377.2 74.9 380.9 C 81.5 384.7 85.3 388.6 83.5 389.5 Z M 83.4 389.7 " fill="none" stroke="#ECECEB" stroke-width="1.00" stroke-miterlimit="0.00" stroke-linecap="round" stroke-linejoin="round" transform="matrix(1.00, 0.00, 0.00, -1.00, 259.0, 631.0)"></path><text xml:space="preserve" font-family="HelveticaNeue" font-size="10.0" fill="#000000" transform="matrix(1.00, 0.00, -0.00, -1.00, 293.5, 180.5)">S</text><text xml:space="preserve" font-family="HelveticaNeue" font-size="10.0" fill="#000000" transform="matrix(1.00, 0.00, -0.00, -1.00, 299.9, 180.5)">3</text><text xml:space="preserve" font-family="HelveticaNeue" font-size="10.0" fill="#000000" transform="matrix(1.00, 0.00, -0.00, -1.00, 305.5, 180.5)"> </text><text xml:space="preserve" font-family="HelveticaNeue" font-size="10.0" fill="#000000" transform="matrix(1.00, 0.00, -0.00, -1.00, 308.3, 180.5)">D</text><text xml:space="preserve" font-family="HelveticaNeue" font-size="10.0" fill="#000000" transform="matrix(1.00, 0.00, -0.00, -1.00, 315.3, 180.5)">a</text><text xml:space="preserve" font-family="HelveticaNeue" font-size="10.0" fill="#000000" transform="matrix(1.00, 0.00, -0.00, -1.00, 320.7, 180.5)">t</text><text xml:space="preserve" font-family="HelveticaNeue" font-size="10.0" fill="#000000" transform="matrix(1.00, 0.00, -0.00, -1.00, 323.8, 180.5)">a</text><text xml:space="preserve" font-family="HelveticaNeue" font-size="10.0" fill="#000000" transform="matrix(1.00, 0.00, -0.00, -1.00, 329.2, 180.5)"> </text><text xml:space="preserve" font-family="HelveticaNeue" font-size="10.0" fill="#000000" transform="matrix(1.00, 0.00, -0.00, -1.00, 332.0, 180.5)">N</text><text xml:space="preserve" font-family="HelveticaNeue" font-size="10.0" fill="#000000" transform="matrix(1.00, 0.00, -0.00, -1.00, 339.2, 180.5)">o</text><text xml:space="preserve" font-family="HelveticaNeue" font-size="10.0" fill="#000000" transform="matrix(1.00, 0.00, -0.00, -1.00, 344.9, 180.5)">d</text><text xml:space="preserve" font-family="HelveticaNeue" font-size="10.0" fill="#000000" transform="matrix(1.00, 0.00, -0.00, -1.00, 350.9, 180.5)">e</text></g></g><path d="M 0.0 0.0 L 68.3 0.0 L 69.3 0.0 " fill="none" stroke="#838786" stroke-width="2.00" transform="matrix(-0.87, -0.49, -0.49, 0.87, 517.1, 493.4)"></path><path d="M 455.3 463.8 L 449.4 454.9 L 460.1 455.5 Z M 455.3 463.8 " fill="#838786"></path><path d="M 0.0 0.0 L 60.6 0.0 L 61.6 0.0 " fill="none" stroke="#838786" stroke-width="2.00" transform="matrix(-0.87, -0.50, -0.50, 0.87, 389.1, 407.3)"></path><path d="M 334.3 381.1 L 328.4 372.1 L 339.1 372.8 Z M 334.3 381.1 " fill="#838786"></path><path d="M 0.0 0.0 L 192.7 0.0 L 193.7 0.0 " fill="none" stroke="#838786" stroke-width="2.00" transform="matrix(-0.84, -0.54, -0.54, 0.84, 771.3, 494.2)"></path><path d="M 607.1 393.3 L 601.6 384.0 L 612.3 385.2 Z M 607.1 393.3 " fill="#838786"></path><path d="M 182.4 21.3 C 89.1 20.1 31.0 14.7 8.2 5.0 L 7.4 4.4 " fill="none" stroke="#838786" stroke-width="2.00" transform="matrix(1.00, 0.00, 0.00, -1.00, 344.9, 340.6)"></path><path d="M 355.6 339.8 L 344.9 340.6 L 350.6 331.6 Z M 355.6 339.8 " fill="#838786"></path><path d="M 0.0 0.0 C 25.8 17.9 30.9 40.9 15.2 68.9 L 14.7 69.8 " fill="none" stroke="#838786" stroke-width="2.00" transform="matrix(1.00, 0.00, 0.00, -1.00, 337.3, 335.4)"></path><path d="M 348.5 269.0 L 347.5 258.3 L 356.6 264.0 Z M 348.5 269.0 " fill="#838786"></path></g></svg>