<?xml version="1.0" encoding="UTF-8" standalone="no"?><svg xmlns="http://www.w3.org/2000/svg" xmlns:xlink="http://www.w3.org/1999/xlink" clip-rule="evenodd" stroke-miterlimit="4.00" viewBox="0 0 93 86"><desc>SVG generated by Keynote</desc><defs></defs><g transform="matrix(1.00, 0.00, -0.00, -1.00, 0.0, 86.0)"><g><clipPath id="clip-57"><path d="M 2.0 1.0 L 92.0 1.0 L 92.0 85.0 L 2.0 85.0 Z M 2.0 1.0 "></path></clipPath><g clip-path="url(#clip-57)"><path d="M 13.5 67.9 L 13.2 58.3 L 38.7 43.5 L 55.6 43.5 L 81.5 58.3 L 81.5 68.1 L 55.6 82.5 L 38.7 82.5 Z M 13.5 67.9 " fill="#ECECEB"></path><path d="M 690.5 590.1 L 690.2 599.7 L 715.7 614.5 L 732.6 614.5 L 758.5 599.7 L 758.5 589.9 L 732.6 575.5 L 715.7 575.5 Z M 690.5 590.1 " fill="none" stroke="#707070" stroke-width="1.00" stroke-miterlimit="0.00" stroke-linejoin="round" transform="matrix(1.00, 0.00, 0.00, -1.00, -677.0, 658.0)"></path><path d="M 13.5 58.3 L 4.8 48.5 L 13.5 68.1 Z M 13.2 58.3 " fill="#CBCDCF"></path><path d="M 690.5 599.7 L 681.8 609.5 L 690.5 589.9 Z M 690.2 599.7 " fill="none" stroke="#707070" stroke-width="1.00" stroke-miterlimit="0.00" stroke-linejoin="round" transform="matrix(1.00, 0.00, 0.00, -1.00, -677.0, 658.0)"></path><path d="M 89.6 48.5 L 81.5 58.3 L 81.5 68.1 Z M 89.6 48.5 " fill="#B3B3B6"></path><path d="M 766.6 609.5 L 758.5 599.7 L 758.5 589.9 Z M 766.6 609.5 " fill="none" stroke="#707070" stroke-width="1.00" stroke-miterlimit="0.00" stroke-linejoin="round" transform="matrix(1.00, 0.00, 0.00, -1.00, -677.0, 658.0)"></path><path d="M 55.6 43.5 L 47.2 24.0 L 38.7 43.5 Z M 55.6 43.6 " fill="#ECECEB"></path><path d="M 732.6 614.5 L 724.2 634.0 L 715.7 614.5 Z M 732.6 614.4 " fill="none" stroke="#707070" stroke-width="1.00" stroke-miterlimit="0.00" stroke-linejoin="round" transform="matrix(1.00, 0.00, 0.00, -1.00, -677.0, 658.0)"></path><path d="M 55.6 43.6 L 47.2 24.0 L 89.6 48.5 L 81.1 58.3 Z M 55.6 43.6 " fill="#B3B3B6"></path><path d="M 732.6 614.4 L 724.2 634.0 L 766.6 609.5 L 758.1 599.7 Z M 732.6 614.4 " fill="none" stroke="#707070" stroke-width="1.00" stroke-miterlimit="0.00" stroke-linejoin="round" transform="matrix(1.00, 0.00, 0.00, -1.00, -677.0, 658.0)"></path><path d="M 13.2 58.3 L 4.8 48.5 L 47.2 24.0 L 38.7 43.6 Z M 13.2 58.3 " fill="#CBCDCF"></path><path d="M 690.2 599.7 L 681.8 609.5 L 724.2 634.0 L 715.7 614.4 Z M 690.2 599.7 " fill="none" stroke="#707070" stroke-width="1.00" stroke-miterlimit="0.00" stroke-linejoin="round" transform="matrix(1.00, 0.00, 0.00, -1.00, -677.0, 658.0)"></path><path d="M 61.0 71.0 C 53.1 75.2 41.1 75.2 33.7 71.0 C 26.3 66.7 26.4 59.8 33.8 55.5 C 41.3 51.2 53.3 51.1 60.7 55.4 C 68.1 59.7 68.0 66.6 61.0 71.0 Z M 57.0 69.0 C 62.1 65.6 62.1 60.7 56.8 57.6 C 51.6 54.6 43.0 54.6 37.6 57.7 C 32.3 60.7 32.3 65.7 37.5 68.8 C 42.8 71.8 51.4 71.8 57.0 69.0 Z M 56.7 68.7 " fill="#707070"></path><path d="M 60.2 74.4 L 66.6 70.7 L 63.0 68.6 L 56.5 72.3 Z M 60.2 74.4 " fill="#707070"></path><path d="M 31.6 57.9 L 38.0 54.2 L 34.3 52.1 L 27.9 55.8 Z M 31.6 57.9 " fill="#707070"></path><path d="M 28.6 71.3 L 35.0 75.0 L 38.7 72.8 L 32.3 69.1 Z M 28.6 71.3 " fill="#707070"></path><path d="M 57.5 54.6 L 63.9 58.3 L 67.6 56.1 L 61.2 52.5 Z M 57.5 54.6 " fill="#707070"></path><path d="M 42.5 76.4 L 51.6 76.4 L 51.6 73.4 L 42.6 73.4 Z M 42.5 76.4 " fill="#707070"></path><path d="M 42.7 53.0 L 51.8 52.9 L 51.8 49.9 L 42.7 49.9 Z M 42.7 53.0 " fill="#707070"></path><path d="M 70.1 65.7 L 70.1 60.5 L 64.9 60.5 L 64.9 65.7 Z M 70.1 65.7 " fill="#707070"></path><path d="M 29.4 65.8 L 29.5 60.6 L 24.2 60.6 L 24.2 65.9 Z M 29.4 65.8 " fill="#707070"></path><path d="M 53.0 60.0 C 49.7 58.2 44.7 58.2 41.7 60.0 C 38.6 61.8 38.6 64.6 41.6 66.4 C 44.7 68.2 49.6 68.1 52.7 66.4 C 55.8 64.6 55.8 61.7 53.0 60.0 Z M 52.7 60.0 " fill="#707070"></path><text xml:space="preserve" font-family="HelveticaNeue" font-size="10.0" fill="#000000" transform="matrix(1.00, 0.00, -0.00, -1.00, 15.9, 8.6)">C</text><text xml:space="preserve" font-family="HelveticaNeue" font-size="10.0" fill="#000000" transform="matrix(1.00, 0.00, -0.00, -1.00, 23.1, 8.6)">o</text><text xml:space="preserve" font-family="HelveticaNeue" font-size="10.0" fill="#000000" transform="matrix(1.00, 0.00, -0.00, -1.00, 28.8, 8.6)">p</text><text xml:space="preserve" font-family="HelveticaNeue" font-size="10.0" fill="#000000" transform="matrix(1.00, 0.00, -0.00, -1.00, 34.8, 8.6)">y</text><text xml:space="preserve" font-family="HelveticaNeue" font-size="10.0" fill="#000000" transform="matrix(1.00, 0.00, -0.00, -1.00, 39.8, 8.6)"> </text><text xml:space="preserve" font-family="HelveticaNeue" font-size="10.0" fill="#000000" transform="matrix(1.00, 0.00, -0.00, -1.00, 42.5, 8.6)">A</text><text xml:space="preserve" font-family="HelveticaNeue" font-size="10.0" fill="#000000" transform="matrix(1.00, 0.00, -0.00, -1.00, 49.0, 8.6)">c</text><text xml:space="preserve" font-family="HelveticaNeue" font-size="10.0" fill="#000000" transform="matrix(1.00, 0.00, -0.00, -1.00, 54.4, 8.6)">t</text><text xml:space="preserve" font-family="HelveticaNeue" font-size="10.0" fill="#000000" transform="matrix(1.00, 0.00, -0.00, -1.00, 57.5, 8.6)">i</text><text xml:space="preserve" font-family="HelveticaNeue" font-size="10.0" fill="#000000" transform="matrix(1.00, 0.00, -0.00, -1.00, 59.8, 8.6)">v</text><text xml:space="preserve" font-family="HelveticaNeue" font-size="10.0" fill="#000000" transform="matrix(1.00, 0.00, -0.00, -1.00, 64.8, 8.6)">i</text><text xml:space="preserve" font-family="HelveticaNeue" font-size="10.0" fill="#000000" transform="matrix(1.00, 0.00, -0.00, -1.00, 67.0, 8.6)">t</text><text xml:space="preserve" font-family="HelveticaNeue" font-size="10.0" fill="#000000" transform="matrix(1.00, 0.00, -0.00, -1.00, 70.1, 8.6)">y</text></g></g></g></svg>