<?xml version="1.0" encoding="UTF-8" standalone="no"?><svg xmlns="http://www.w3.org/2000/svg" xmlns:xlink="http://www.w3.org/1999/xlink" clip-rule="evenodd" stroke-miterlimit="4.00" viewBox="0 0 92 88"><desc>SVG generated by Keynote</desc><defs></defs><g transform="matrix(1.00, 0.00, -0.00, -1.00, 0.0, 88.0)"><g><clipPath id="clip-58"><path d="M 1.0 1.0 L 91.0 1.0 L 91.0 86.0 L 1.0 86.0 Z M 1.0 1.0 "></path></clipPath><g clip-path="url(#clip-58)"><path d="M 12.2 68.1 L 11.9 58.5 L 37.4 43.5 L 54.3 43.5 L 80.5 58.5 L 80.5 68.3 L 54.3 82.5 L 37.4 82.5 Z M 12.2 68.1 " fill="#ECECEB"></path><path d="M 772.2 641.9 L 771.9 651.5 L 797.4 666.5 L 814.3 666.5 L 840.5 651.5 L 840.5 641.7 L 814.3 627.5 L 797.4 627.5 Z M 772.2 641.9 " fill="none" stroke="#707070" stroke-width="1.00" stroke-miterlimit="0.00" stroke-linejoin="round" transform="matrix(1.00, 0.00, 0.00, -1.00, -760.0, 710.0)"></path><path d="M 12.5 58.5 L 3.4 48.7 L 12.5 68.3 Z M 11.9 58.5 " fill="#CBCDCF"></path><path d="M 772.5 651.5 L 763.4 661.3 L 772.5 641.7 Z M 771.9 651.5 " fill="none" stroke="#707070" stroke-width="1.00" stroke-miterlimit="0.00" stroke-linejoin="round" transform="matrix(1.00, 0.00, 0.00, -1.00, -760.0, 710.0)"></path><path d="M 88.2 48.7 L 80.5 58.5 L 80.5 68.3 Z M 88.2 48.7 " fill="#B3B3B6"></path><path d="M 848.2 661.3 L 840.5 651.5 L 840.5 641.7 Z M 848.2 661.3 " fill="none" stroke="#707070" stroke-width="1.00" stroke-miterlimit="0.00" stroke-linejoin="round" transform="matrix(1.00, 0.00, 0.00, -1.00, -760.0, 710.0)"></path><path d="M 54.3 43.5 L 45.8 24.2 L 37.4 43.5 Z M 54.3 43.8 " fill="#ECECEB"></path><path d="M 814.3 666.5 L 805.8 685.8 L 797.4 666.5 Z M 814.3 666.2 " fill="none" stroke="#707070" stroke-width="1.00" stroke-miterlimit="0.00" stroke-linejoin="round" transform="matrix(1.00, 0.00, 0.00, -1.00, -760.0, 710.0)"></path><path d="M 54.3 43.8 L 45.8 24.2 L 88.2 48.7 L 79.8 58.5 Z M 54.3 43.8 " fill="#B3B3B6"></path><path d="M 814.3 666.2 L 805.8 685.8 L 848.2 661.3 L 839.8 651.5 Z M 814.3 666.2 " fill="none" stroke="#707070" stroke-width="1.00" stroke-miterlimit="0.00" stroke-linejoin="round" transform="matrix(1.00, 0.00, 0.00, -1.00, -760.0, 710.0)"></path><path d="M 11.9 58.5 L 3.4 48.7 L 45.8 24.2 L 37.4 43.8 Z M 11.9 58.5 " fill="#CBCDCF"></path><path d="M 771.9 651.5 L 763.4 661.3 L 805.8 685.8 L 797.4 666.2 Z M 771.9 651.5 " fill="none" stroke="#707070" stroke-width="1.00" stroke-miterlimit="0.00" stroke-linejoin="round" transform="matrix(1.00, 0.00, 0.00, -1.00, -760.0, 710.0)"></path><path d="M 59.0 71.0 C 51.8 75.5 39.8 75.5 32.4 71.2 C 25.0 67.0 25.0 60.0 32.5 55.7 C 39.9 51.4 52.0 51.4 59.4 55.7 C 66.7 59.9 66.7 66.9 59.0 71.0 Z M 55.0 69.0 C 60.7 65.9 60.8 60.9 55.5 57.9 C 50.2 54.8 41.6 54.8 36.3 57.9 C 31.0 61.0 30.9 66.0 36.2 69.0 C 41.5 72.1 50.1 72.0 55.0 69.0 Z M 55.4 69.0 " fill="#707070"></path><path d="M 58.9 74.7 L 65.3 71.0 L 61.6 68.8 L 55.2 72.5 Z M 58.9 74.7 " fill="#707070"></path><path d="M 30.3 58.2 L 36.7 54.4 L 33.0 52.3 L 26.6 56.0 Z M 30.3 58.2 " fill="#707070"></path><path d="M 27.3 71.5 L 33.6 75.2 L 37.4 73.1 L 31.0 69.4 Z M 27.3 71.5 " fill="#707070"></path><path d="M 56.2 54.9 L 62.5 58.5 L 66.2 56.4 L 59.9 52.7 Z M 56.2 54.9 " fill="#707070"></path><path d="M 41.2 76.7 L 50.3 76.7 L 50.3 73.6 L 41.2 73.7 Z M 41.2 76.7 " fill="#707070"></path><path d="M 41.4 53.2 L 50.4 53.2 L 50.5 50.2 L 41.4 50.2 Z M 41.4 53.2 " fill="#707070"></path><path d="M 68.8 66.0 L 68.8 60.8 L 63.6 60.8 L 63.5 66.0 Z M 68.8 66.0 " fill="#707070"></path><path d="M 28.1 66.1 L 28.1 60.9 L 22.9 60.9 L 22.9 66.1 Z M 28.1 66.1 " fill="#707070"></path><path d="M 51.0 60.0 C 48.4 58.5 43.4 58.5 40.4 60.3 C 37.3 62.0 37.3 64.9 40.3 66.6 C 43.3 68.4 48.3 68.4 51.4 66.6 C 54.4 64.8 54.5 62.0 51.0 60.0 Z M 51.4 60.2 " fill="#707070"></path><text xml:space="preserve" font-family="HelveticaNeue" font-size="10.0" fill="#000000" transform="matrix(1.00, 0.00, -0.00, -1.00, 9.8, 8.9)">M</text><text xml:space="preserve" font-family="HelveticaNeue" font-size="10.0" fill="#000000" transform="matrix(1.00, 0.00, -0.00, -1.00, 18.5, 8.9)">y</text><text xml:space="preserve" font-family="HelveticaNeue" font-size="10.0" fill="#000000" transform="matrix(1.00, 0.00, -0.00, -1.00, 23.5, 8.9)">S</text><text xml:space="preserve" font-family="HelveticaNeue" font-size="10.0" fill="#000000" transform="matrix(1.00, 0.00, -0.00, -1.00, 30.0, 8.9)">Q</text><text xml:space="preserve" font-family="HelveticaNeue" font-size="10.0" fill="#000000" transform="matrix(1.00, 0.00, -0.00, -1.00, 37.6, 8.9)">L</text><text xml:space="preserve" font-family="HelveticaNeue" font-size="10.0" fill="#000000" transform="matrix(1.00, 0.00, -0.00, -1.00, 43.2, 8.9)"> </text><text xml:space="preserve" font-family="HelveticaNeue" font-size="10.0" fill="#000000" transform="matrix(1.00, 0.00, -0.00, -1.00, 45.9, 8.9)">A</text><text xml:space="preserve" font-family="HelveticaNeue" font-size="10.0" fill="#000000" transform="matrix(1.00, 0.00, -0.00, -1.00, 52.4, 8.9)">c</text><text xml:space="preserve" font-family="HelveticaNeue" font-size="10.0" fill="#000000" transform="matrix(1.00, 0.00, -0.00, -1.00, 57.8, 8.9)">t</text><text xml:space="preserve" font-family="HelveticaNeue" font-size="10.0" fill="#000000" transform="matrix(1.00, 0.00, -0.00, -1.00, 60.9, 8.9)">i</text><text xml:space="preserve" font-family="HelveticaNeue" font-size="10.0" fill="#000000" transform="matrix(1.00, 0.00, -0.00, -1.00, 63.2, 8.9)">v</text><text xml:space="preserve" font-family="HelveticaNeue" font-size="10.0" fill="#000000" transform="matrix(1.00, 0.00, -0.00, -1.00, 68.2, 8.9)">i</text><text xml:space="preserve" font-family="HelveticaNeue" font-size="10.0" fill="#000000" transform="matrix(1.00, 0.00, -0.00, -1.00, 70.4, 8.9)">t</text><text xml:space="preserve" font-family="HelveticaNeue" font-size="10.0" fill="#000000" transform="matrix(1.00, 0.00, -0.00, -1.00, 73.5, 8.9)">y</text></g></g></g></svg>