<?xml version="1.0" encoding="UTF-8" standalone="no"?><svg xmlns="http://www.w3.org/2000/svg" xmlns:xlink="http://www.w3.org/1999/xlink" clip-rule="evenodd" stroke-miterlimit="4.00" viewBox="0 0 92 102"><desc>SVG generated by Keynote</desc><defs></defs><g transform="matrix(1.00, 0.00, -0.00, -1.00, 0.0, 102.0)"><g><clipPath id="clip-59"><path d="M 1.0 1.0 L 91.0 1.0 L 91.0 100.0 L 1.0 100.0 Z M 1.0 1.0 "></path></clipPath><g clip-path="url(#clip-59)"><text xml:space="preserve" font-family="HelveticaNeue" font-size="10.0" fill="#000000" transform="matrix(1.00, 0.00, -0.00, -1.00, 11.1, 9.0)">S</text><text xml:space="preserve" font-family="HelveticaNeue" font-size="10.0" fill="#000000" transform="matrix(1.00, 0.00, -0.00, -1.00, 17.5, 9.0)">Q</text><text xml:space="preserve" font-family="HelveticaNeue" font-size="10.0" fill="#000000" transform="matrix(1.00, 0.00, -0.00, -1.00, 25.1, 9.0)">L</text><text xml:space="preserve" font-family="HelveticaNeue" font-size="10.0" fill="#000000" transform="matrix(1.00, 0.00, -0.00, -1.00, 30.7, 9.0)"> </text><text xml:space="preserve" font-family="HelveticaNeue" font-size="10.0" fill="#000000" transform="matrix(1.00, 0.00, -0.00, -1.00, 33.5, 9.0)">D</text><text xml:space="preserve" font-family="HelveticaNeue" font-size="10.0" fill="#000000" transform="matrix(1.00, 0.00, -0.00, -1.00, 40.5, 9.0)">a</text><text xml:space="preserve" font-family="HelveticaNeue" font-size="10.0" fill="#000000" transform="matrix(1.00, 0.00, -0.00, -1.00, 45.9, 9.0)">t</text><text xml:space="preserve" font-family="HelveticaNeue" font-size="10.0" fill="#000000" transform="matrix(1.00, 0.00, -0.00, -1.00, 49.0, 9.0)">a</text><text xml:space="preserve" font-family="HelveticaNeue" font-size="10.0" fill="#000000" transform="matrix(1.00, 0.00, -0.00, -1.00, 54.4, 9.0)"> </text><text xml:space="preserve" font-family="HelveticaNeue" font-size="10.0" fill="#000000" transform="matrix(1.00, 0.00, -0.00, -1.00, 57.2, 9.0)">N</text><text xml:space="preserve" font-family="HelveticaNeue" font-size="10.0" fill="#000000" transform="matrix(1.00, 0.00, -0.00, -1.00, 64.4, 9.0)">o</text><text xml:space="preserve" font-family="HelveticaNeue" font-size="10.0" fill="#000000" transform="matrix(1.00, 0.00, -0.00, -1.00, 70.1, 9.0)">d</text><text xml:space="preserve" font-family="HelveticaNeue" font-size="10.0" fill="#000000" transform="matrix(1.00, 0.00, -0.00, -1.00, 76.1, 9.0)">e</text><path d="M 3.0 72.6 L 45.7 47.9 L 88.4 72.6 L 45.7 97.2 Z M 3.0 72.6 " fill="#ECECEB"></path><path d="M 576.0 733.4 L 618.7 758.1 L 661.4 733.4 L 618.7 708.8 Z M 576.0 733.4 " fill="none" stroke="#555454" stroke-width="1.00" stroke-miterlimit="0.00" stroke-linejoin="round" transform="matrix(1.00, 0.00, 0.00, -1.00, -573.0, 806.0)"></path><path d="M 3.5 72.6 L 3.5 47.9 L 45.5 23.3 L 45.5 47.9 Z M 3.0 72.6 " fill="#CBCDCF"></path><path d="M 576.5 733.4 L 576.5 758.1 L 618.5 782.7 L 618.5 758.1 Z M 576.0 733.4 " fill="none" stroke="#555454" stroke-width="1.00" stroke-miterlimit="0.00" stroke-linejoin="round" transform="matrix(1.00, 0.00, 0.00, -1.00, -573.0, 806.0)"></path><path d="M 45.5 47.9 L 88.5 72.6 L 88.5 47.9 L 45.5 23.3 Z M 45.7 47.9 " fill="#B3B3B6"></path><path d="M 618.5 758.1 L 661.5 733.4 L 661.5 758.1 L 618.5 782.7 Z M 618.7 758.1 " fill="none" stroke="#555454" stroke-width="1.00" stroke-miterlimit="0.00" stroke-linejoin="round" transform="matrix(1.00, 0.00, 0.00, -1.00, -573.0, 806.0)"></path><path d="M 57.0 72.0 L 57.5 72.0 C 57.1 72.5 56.7 72.7 56.3 72.9 C 56.1 73.0 55.9 73.1 55.6 73.2 C 55.3 73.4 54.9 73.5 54.5 73.7 C 54.3 73.8 54.1 74.0 53.8 74.1 C 53.4 74.3 52.9 74.6 52.4 74.8 C 52.3 74.9 52.3 74.9 52.2 74.9 C 51.7 75.2 51.1 75.5 50.6 75.8 C 50.5 75.9 50.3 76.0 50.2 76.0 C 45.0 79.1 40.4 82.5 39.3 84.8 L 21.1 74.3 C 20.8 73.9 21.5 72.9 22.7 71.6 C 24.5 69.9 27.6 67.5 32.4 64.8 C 41.2 59.7 46.5 58.6 47.5 59.1 L 65.8 69.7 C 63.6 70.0 60.8 70.9 57.0 72.0 Z M 41.7 78.2 L 45.9 75.7 L 39.4 69.7 L 39.4 69.6 L 50.0 73.4 L 54.2 71.0 L 42.0 64.0 L 39.5 65.5 L 49.1 71.1 L 49.1 71.1 L 36.9 67.0 L 34.7 68.2 L 41.9 75.2 L 41.9 75.3 L 32.2 69.7 L 29.6 71.2 Z M 41.7 78.2 " fill="#707070"></path><path d="M 57.0 80.0 C 48.4 84.8 42.1 86.4 41.2 85.9 C 40.3 85.4 43.1 81.7 51.6 76.8 C 54.3 75.3 56.8 74.1 58.9 73.1 C 63.5 71.1 66.7 70.5 67.3 70.8 C 67.9 71.2 66.8 73.0 63.3 75.7 C 61.7 76.9 59.6 78.3 57.0 80.0 Z M 56.9 79.9 " fill="#707070"></path></g></g></g></svg>