<?xml version="1.0" encoding="UTF-8" standalone="no"?><svg xmlns="http://www.w3.org/2000/svg" xmlns:xlink="http://www.w3.org/1999/xlink" clip-rule="evenodd" stroke-miterlimit="4.00" viewBox="0 0 85 114"><desc>SVG generated by Keynote</desc><defs></defs><g transform="matrix(1.00, 0.00, -0.00, -1.00, 0.0, 114.0)"><g><clipPath id="clip-55"><path d="M 2.0 1.0 L 84.0 1.0 L 84.0 112.0 L 2.0 112.0 Z M 2.0 1.0 "></path></clipPath><g clip-path="url(#clip-55)"><path d="M 13.5 98.2 L 13.5 87.0 L 4.1 81.5 Z M 13.7 98.2 " fill="#CBCDCF"></path><path d="M 787.5 494.8 L 787.5 506.0 L 778.1 511.5 Z M 787.7 494.8 " fill="none" stroke="#555454" stroke-width="1.00" stroke-miterlimit="0.00" stroke-linejoin="round" transform="matrix(1.00, 0.00, 0.00, -1.00, -774.0, 593.0)"></path><path d="M 71.5 87.0 L 71.5 98.2 L 81.0 81.5 Z M 71.4 87.0 " fill="#CBCDCF"></path><path d="M 845.5 506.0 L 845.5 494.8 L 855.0 511.5 Z M 845.4 506.0 " fill="none" stroke="#555454" stroke-width="1.00" stroke-miterlimit="0.00" stroke-linejoin="round" transform="matrix(1.00, 0.00, 0.00, -1.00, -774.0, 593.0)"></path><path d="M 13.5 87.0 L 32.9 75.5 L 52.2 75.5 L 71.5 87.0 L 71.5 98.2 L 52.2 108.5 L 32.9 108.5 L 13.5 98.2 Z M 13.7 87.0 " fill="#ECECEB"></path><path d="M 787.5 506.0 L 806.9 517.5 L 826.2 517.5 L 845.5 506.0 L 845.5 494.8 L 826.2 484.5 L 806.9 484.5 L 787.5 494.8 Z M 787.7 506.0 " fill="none" stroke="#555454" stroke-width="1.00" stroke-miterlimit="0.00" stroke-linejoin="round" transform="matrix(1.00, 0.00, 0.00, -1.00, -774.0, 593.0)"></path><path d="M 4.5 81.5 L 4.5 48.2 L 42.5 26.0 L 42.5 59.3 L 32.9 75.9 L 13.7 87.0 Z M 4.1 81.5 " fill="#CBCDCF"></path><path d="M 778.5 511.5 L 778.5 544.8 L 816.5 567.0 L 816.5 533.7 L 806.9 517.1 L 787.7 506.0 Z M 778.1 511.5 " fill="none" stroke="#555454" stroke-width="1.00" stroke-miterlimit="0.00" stroke-linejoin="round" transform="matrix(1.00, 0.00, 0.00, -1.00, -774.0, 593.0)"></path><path d="M 52.2 75.9 L 71.4 87.0 L 81.5 81.5 L 81.5 48.2 L 42.5 26.0 L 42.5 59.3 Z M 52.2 75.9 " fill="#B3B3B6"></path><path d="M 826.2 517.1 L 845.4 506.0 L 855.5 511.5 L 855.5 544.8 L 816.5 567.0 L 816.5 533.7 Z M 826.2 517.1 " fill="none" stroke="#555454" stroke-width="1.00" stroke-miterlimit="0.00" stroke-linejoin="round" transform="matrix(1.00, 0.00, 0.00, -1.00, -774.0, 593.0)"></path><path d="M 32.9 75.5 L 52.2 75.5 L 42.5 59.3 Z M 32.9 75.9 " fill="#ECECEB"></path><path d="M 806.9 517.5 L 826.2 517.5 L 816.5 533.7 Z M 806.9 517.1 " fill="none" stroke="#555454" stroke-width="1.00" stroke-miterlimit="0.00" stroke-linejoin="round" transform="matrix(1.00, 0.00, 0.00, -1.00, -774.0, 593.0)"></path><text xml:space="preserve" font-family="HelveticaNeue" font-size="10.0" fill="#000000" transform="matrix(1.00, 0.00, -0.00, -1.00, 12.2, 8.6)">E</text><text xml:space="preserve" font-family="HelveticaNeue" font-size="10.0" fill="#000000" transform="matrix(1.00, 0.00, -0.00, -1.00, 18.3, 8.6)">C</text><text xml:space="preserve" font-family="HelveticaNeue" font-size="10.0" fill="#000000" transform="matrix(1.00, 0.00, -0.00, -1.00, 25.6, 8.6)">2</text><text xml:space="preserve" font-family="HelveticaNeue" font-size="10.0" fill="#000000" transform="matrix(1.00, 0.00, -0.00, -1.00, 31.1, 8.6)"> </text><text xml:space="preserve" font-family="HelveticaNeue" font-size="10.0" fill="#000000" transform="matrix(1.00, 0.00, -0.00, -1.00, 33.9, 8.6)">r</text><text xml:space="preserve" font-family="HelveticaNeue" font-size="10.0" fill="#000000" transform="matrix(1.00, 0.00, -0.00, -1.00, 37.0, 8.6)">e</text><text xml:space="preserve" font-family="HelveticaNeue" font-size="10.0" fill="#000000" transform="matrix(1.00, 0.00, -0.00, -1.00, 42.4, 8.6)">s</text><text xml:space="preserve" font-family="HelveticaNeue" font-size="10.0" fill="#000000" transform="matrix(1.00, 0.00, -0.00, -1.00, 47.4, 8.6)">o</text><text xml:space="preserve" font-family="HelveticaNeue" font-size="10.0" fill="#000000" transform="matrix(1.00, 0.00, -0.00, -1.00, 53.2, 8.6)">u</text><text xml:space="preserve" font-family="HelveticaNeue" font-size="10.0" fill="#000000" transform="matrix(1.00, 0.00, -0.00, -1.00, 58.7, 8.6)">r</text><text xml:space="preserve" font-family="HelveticaNeue" font-size="10.0" fill="#000000" transform="matrix(1.00, 0.00, -0.00, -1.00, 61.9, 8.6)">c</text><text xml:space="preserve" font-family="HelveticaNeue" font-size="10.0" fill="#000000" transform="matrix(1.00, 0.00, -0.00, -1.00, 67.2, 8.6)">e</text></g></g></g></svg>