<?xml version="1.0" encoding="UTF-8" standalone="no"?><svg xmlns="http://www.w3.org/2000/svg" xmlns:xlink="http://www.w3.org/1999/xlink" clip-rule="evenodd" stroke-miterlimit="4.00" viewBox="0 0 85 118"><desc>SVG generated by Keynote</desc><defs></defs><g transform="matrix(1.00, 0.00, -0.00, -1.00, 0.0, 118.0)"><g><clipPath id="clip-56"><path d="M 1.0 1.0 L 84.0 1.0 L 84.0 117.0 L 1.0 117.0 Z M 1.0 1.0 "></path></clipPath><g clip-path="url(#clip-56)"><path d="M 13.5 103.1 L 13.5 91.7 L 3.0 86.0 Z M 12.9 103.1 " fill="#CBCDCF"></path><path d="M 876.5 546.9 L 876.5 558.3 L 866.0 564.0 Z M 875.9 546.9 " fill="none" stroke="#555454" stroke-width="1.00" stroke-miterlimit="0.00" stroke-linejoin="round" transform="matrix(1.00, 0.00, 0.00, -1.00, -863.0, 650.0)"></path><path d="M 72.5 91.7 L 72.5 103.1 L 82.0 86.0 Z M 72.1 91.7 " fill="#CBCDCF"></path><path d="M 935.5 558.3 L 935.5 546.9 L 945.0 564.0 Z M 935.1 558.3 " fill="none" stroke="#555454" stroke-width="1.00" stroke-miterlimit="0.00" stroke-linejoin="round" transform="matrix(1.00, 0.00, 0.00, -1.00, -863.0, 650.0)"></path><path d="M 13.5 91.7 L 32.6 80.5 L 52.4 80.5 L 72.5 91.7 L 72.5 103.1 L 52.4 114.5 L 32.6 114.5 L 13.5 103.1 Z M 12.9 91.7 " fill="#ECECEB"></path><path d="M 876.5 558.3 L 895.6 569.5 L 915.4 569.5 L 935.5 558.3 L 935.5 546.9 L 915.4 535.5 L 895.6 535.5 L 876.5 546.9 Z M 875.9 558.3 " fill="none" stroke="#555454" stroke-width="1.00" stroke-miterlimit="0.00" stroke-linejoin="round" transform="matrix(1.00, 0.00, 0.00, -1.00, -863.0, 650.0)"></path><path d="M 3.5 86.0 L 3.5 51.8 L 42.5 29.0 L 42.5 63.2 L 32.6 80.3 L 12.9 91.7 Z M 3.0 86.0 " fill="#CBCDCF"></path><path d="M 866.5 564.0 L 866.5 598.2 L 905.5 621.0 L 905.5 586.8 L 895.6 569.7 L 875.9 558.3 Z M 866.0 564.0 " fill="none" stroke="#555454" stroke-width="1.00" stroke-miterlimit="0.00" stroke-linejoin="round" transform="matrix(1.00, 0.00, 0.00, -1.00, -863.0, 650.0)"></path><path d="M 52.4 80.3 L 72.1 91.7 L 82.5 86.0 L 82.5 51.8 L 42.5 29.0 L 42.5 63.2 Z M 52.4 80.3 " fill="#B3B3B6"></path><path d="M 915.4 569.7 L 935.1 558.3 L 945.5 564.0 L 945.5 598.2 L 905.5 621.0 L 905.5 586.8 Z M 915.4 569.7 " fill="none" stroke="#555454" stroke-width="1.00" stroke-miterlimit="0.00" stroke-linejoin="round" transform="matrix(1.00, 0.00, 0.00, -1.00, -863.0, 650.0)"></path><path d="M 32.6 80.5 L 52.4 80.5 L 42.5 63.2 Z M 32.6 80.3 " fill="#ECECEB"></path><path d="M 895.6 569.5 L 915.4 569.5 L 905.5 586.8 Z M 895.6 569.7 " fill="none" stroke="#555454" stroke-width="1.00" stroke-miterlimit="0.00" stroke-linejoin="round" transform="matrix(1.00, 0.00, 0.00, -1.00, -863.0, 650.0)"></path><path d="M 54.0 97.0 L 54.3 97.0 C 53.9 96.8 53.5 96.9 53.1 97.1 C 52.9 97.2 52.7 97.3 52.5 97.4 C 52.1 97.6 51.7 97.8 51.4 97.9 C 51.2 98.1 50.9 98.2 50.7 98.3 C 50.2 98.5 49.8 98.8 49.3 99.0 C 49.2 99.1 49.2 99.1 49.1 99.1 C 48.6 99.4 48.1 99.7 47.5 100.0 C 47.4 100.1 47.3 100.1 47.2 100.2 C 42.1 103.2 37.6 106.5 36.5 108.7 L 18.7 98.5 C 18.4 98.2 19.1 97.2 20.3 95.9 C 22.0 94.2 25.1 91.9 29.8 89.2 C 38.3 84.2 43.6 83.2 44.5 83.7 L 62.4 94.0 C 60.3 94.3 57.5 95.2 54.0 97.0 Z M 38.9 102.3 L 43.0 99.9 L 36.6 94.0 L 36.6 94.0 L 46.9 97.6 L 51.0 95.3 L 39.2 88.5 L 36.7 89.9 L 46.1 95.4 L 46.1 95.4 L 34.2 91.3 L 32.1 92.6 L 39.1 99.4 L 39.0 99.5 L 29.6 94.0 L 27.1 95.5 Z M 38.9 102.3 " fill="#707070"></path><path d="M 54.0 104.0 C 45.4 108.7 39.2 110.4 38.3 109.8 C 37.5 109.3 40.3 105.7 48.5 101.0 C 51.1 99.5 53.6 98.3 55.7 97.4 C 60.2 95.4 63.3 94.8 63.9 95.1 C 64.5 95.5 63.4 97.2 60.0 99.8 C 58.4 101.1 56.3 102.5 54.0 104.0 Z M 53.7 104.0 " fill="#707070"></path><text xml:space="preserve" font-family="HelveticaNeue" font-size="10.0" fill="#000000" transform="matrix(1.00, 0.00, -0.00, -1.00, 10.7, 9.4)">R</text><text xml:space="preserve" font-family="HelveticaNeue" font-size="10.0" fill="#000000" transform="matrix(1.00, 0.00, -0.00, -1.00, 17.6, 9.4)">D</text><text xml:space="preserve" font-family="HelveticaNeue" font-size="10.0" fill="#000000" transform="matrix(1.00, 0.00, -0.00, -1.00, 24.6, 9.4)">S</text><text xml:space="preserve" font-family="HelveticaNeue" font-size="10.0" fill="#000000" transform="matrix(1.00, 0.00, -0.00, -1.00, 31.1, 9.4)"> </text><text xml:space="preserve" font-family="HelveticaNeue" font-size="10.0" fill="#000000" transform="matrix(1.00, 0.00, -0.00, -1.00, 33.9, 9.4)">D</text><text xml:space="preserve" font-family="HelveticaNeue" font-size="10.0" fill="#000000" transform="matrix(1.00, 0.00, -0.00, -1.00, 40.9, 9.4)">a</text><text xml:space="preserve" font-family="HelveticaNeue" font-size="10.0" fill="#000000" transform="matrix(1.00, 0.00, -0.00, -1.00, 46.3, 9.4)">t</text><text xml:space="preserve" font-family="HelveticaNeue" font-size="10.0" fill="#000000" transform="matrix(1.00, 0.00, -0.00, -1.00, 49.4, 9.4)">a</text><text xml:space="preserve" font-family="HelveticaNeue" font-size="10.0" fill="#000000" transform="matrix(1.00, 0.00, -0.00, -1.00, 54.8, 9.4)">b</text><text xml:space="preserve" font-family="HelveticaNeue" font-size="10.0" fill="#000000" transform="matrix(1.00, 0.00, -0.00, -1.00, 60.7, 9.4)">a</text><text xml:space="preserve" font-family="HelveticaNeue" font-size="10.0" fill="#000000" transform="matrix(1.00, 0.00, -0.00, -1.00, 66.1, 9.4)">s</text><text xml:space="preserve" font-family="HelveticaNeue" font-size="10.0" fill="#000000" transform="matrix(1.00, 0.00, -0.00, -1.00, 71.1, 9.4)">e</text></g></g></g></svg>