<?xml version="1.0" encoding="UTF-8" standalone="no"?><svg xmlns="http://www.w3.org/2000/svg" xmlns:xlink="http://www.w3.org/1999/xlink" clip-rule="evenodd" stroke-miterlimit="4.00" viewBox="0 0 242 36"><desc>SVG generated by Keynote</desc><defs></defs><g transform="matrix(1.00, 0.00, -0.00, -1.00, 0.0, 36.0)"><text xml:space="preserve" font-family="LucidaGrande" font-size="29.4" fill="#34A4DA" transform="matrix(1.00, 0.00, -0.00, -1.00, 0.0, 7.2)">▸</text><text xml:space="preserve" font-family="AvenirNext-Medium" font-size="28.0" fill="#838686" transform="matrix(1.00, 0.00, -0.00, -1.00, 35.0, 9.0)">C</text><text xml:space="preserve" font-family="AvenirNext-Medium" font-size="28.0" fill="#838686" transform="matrix(1.00, 0.00, -0.00, -1.00, 54.5, 9.0)">o</text><text xml:space="preserve" font-family="AvenirNext-Medium" font-size="28.0" fill="#838686" transform="matrix(1.00, 0.00, -0.00, -1.00, 71.6, 9.0)">p</text><text xml:space="preserve" font-family="AvenirNext-Medium" font-size="28.0" fill="#838686" transform="matrix(1.00, 0.00, -0.00, -1.00, 89.3, 9.0)">y</text><text xml:space="preserve" font-family="AvenirNext-Medium" font-size="28.0" fill="#838686" transform="matrix(1.00, 0.00, -0.00, -1.00, 103.4, 9.0)"> </text><text xml:space="preserve" font-family="AvenirNext-Medium" font-size="28.0" fill="#838686" transform="matrix(1.00, 0.00, -0.00, -1.00, 110.4, 9.0)">E</text><text xml:space="preserve" font-family="AvenirNext-Medium" font-size="28.0" fill="#838686" transform="matrix(1.00, 0.00, -0.00, -1.00, 127.3, 9.0)">M</text><text xml:space="preserve" font-family="AvenirNext-Medium" font-size="28.0" fill="#838686" transform="matrix(1.00, 0.00, -0.00, -1.00, 152.5, 9.0)">R</text><text xml:space="preserve" font-family="AvenirNext-Medium" font-size="28.0" fill="#838686" transform="matrix(1.00, 0.00, -0.00, -1.00, 169.7, 9.0)"> </text><text xml:space="preserve" font-family="AvenirNext-Medium" font-size="28.0" fill="#838686" transform="matrix(1.00, 0.00, -0.00, -1.00, 176.7, 9.0)">c</text><text xml:space="preserve" font-family="AvenirNext-Medium" font-size="28.0" fill="#838686" transform="matrix(1.00, 0.00, -0.00, -1.00, 190.6, 9.0)">o</text><text xml:space="preserve" font-family="AvenirNext-Medium" font-size="28.0" fill="#838686" transform="matrix(1.00, 0.00, -0.00, -1.00, 207.6, 9.0)">d</text><text xml:space="preserve" font-family="AvenirNext-Medium" font-size="28.0" fill="#838686" transform="matrix(1.00, 0.00, -0.00, -1.00, 225.4, 9.0)">e</text></g></svg>