<?xml version="1.0" encoding="UTF-8" standalone="no"?><svg xmlns="http://www.w3.org/2000/svg" xmlns:xlink="http://www.w3.org/1999/xlink" clip-rule="evenodd" stroke-miterlimit="4.00" viewBox="0 0 343 36"><desc>SVG generated by Keynote</desc><defs></defs><g transform="matrix(1.00, 0.00, -0.00, -1.00, 0.0, 36.0)"><text xml:space="preserve" font-family="LucidaGrande" font-size="29.4" fill="#34A4DA" transform="matrix(1.00, 0.00, -0.00, -1.00, 0.0, 7.2)">▸</text><text xml:space="preserve" font-family="AvenirNext-Medium" font-size="28.0" fill="#838686" transform="matrix(1.00, 0.00, -0.00, -1.00, 35.0, 9.0)">C</text><text xml:space="preserve" font-family="AvenirNext-Medium" font-size="28.0" fill="#838686" transform="matrix(1.00, 0.00, -0.00, -1.00, 54.8, 9.0)">r</text><text xml:space="preserve" font-family="AvenirNext-Medium" font-size="28.0" fill="#838686" transform="matrix(1.00, 0.00, -0.00, -1.00, 64.5, 9.0)">e</text><text xml:space="preserve" font-family="AvenirNext-Medium" font-size="28.0" fill="#838686" transform="matrix(1.00, 0.00, -0.00, -1.00, 80.3, 9.0)">a</text><text xml:space="preserve" font-family="AvenirNext-Medium" font-size="28.0" fill="#838686" transform="matrix(1.00, 0.00, -0.00, -1.00, 95.2, 9.0)">t</text><text xml:space="preserve" font-family="AvenirNext-Medium" font-size="28.0" fill="#838686" transform="matrix(1.00, 0.00, -0.00, -1.00, 104.4, 9.0)">e</text><text xml:space="preserve" font-family="AvenirNext-Medium" font-size="28.0" fill="#838686" transform="matrix(1.00, 0.00, -0.00, -1.00, 120.5, 9.0)"> </text><text xml:space="preserve" font-family="AvenirNext-Medium" font-size="28.0" fill="#838686" transform="matrix(1.00, 0.00, -0.00, -1.00, 126.8, 9.0)">T</text><text xml:space="preserve" font-family="AvenirNext-Medium" font-size="28.0" fill="#838686" transform="matrix(1.00, 0.00, -0.00, -1.00, 140.1, 9.0)">e</text><text xml:space="preserve" font-family="AvenirNext-Medium" font-size="28.0" fill="#838686" transform="matrix(1.00, 0.00, -0.00, -1.00, 155.9, 9.0)">a</text><text xml:space="preserve" font-family="AvenirNext-Medium" font-size="28.0" fill="#838686" transform="matrix(1.00, 0.00, -0.00, -1.00, 171.1, 9.0)">m</text><text xml:space="preserve" font-family="AvenirNext-Medium" font-size="28.0" fill="#838686" transform="matrix(1.00, 0.00, -0.00, -1.00, 195.9, 9.0)"> </text><text xml:space="preserve" font-family="AvenirNext-Medium" font-size="28.0" fill="#838686" transform="matrix(1.00, 0.00, -0.00, -1.00, 202.9, 9.0)">S</text><text xml:space="preserve" font-family="AvenirNext-Medium" font-size="28.0" fill="#838686" transform="matrix(1.00, 0.00, -0.00, -1.00, 218.9, 9.0)">3</text><text xml:space="preserve" font-family="AvenirNext-Medium" font-size="28.0" fill="#838686" transform="matrix(1.00, 0.00, -0.00, -1.00, 235.5, 9.0)"> </text><text xml:space="preserve" font-family="AvenirNext-Medium" font-size="28.0" fill="#838686" transform="matrix(1.00, 0.00, -0.00, -1.00, 242.5, 9.0)">b</text><text xml:space="preserve" font-family="AvenirNext-Medium" font-size="28.0" fill="#838686" transform="matrix(1.00, 0.00, -0.00, -1.00, 260.3, 9.0)">u</text><text xml:space="preserve" font-family="AvenirNext-Medium" font-size="28.0" fill="#838686" transform="matrix(1.00, 0.00, -0.00, -1.00, 276.6, 9.0)">c</text><text xml:space="preserve" font-family="AvenirNext-Medium" font-size="28.0" fill="#838686" transform="matrix(1.00, 0.00, -0.00, -1.00, 290.5, 9.0)">k</text><text xml:space="preserve" font-family="AvenirNext-Medium" font-size="28.0" fill="#838686" transform="matrix(1.00, 0.00, -0.00, -1.00, 304.7, 9.0)">e</text><text xml:space="preserve" font-family="AvenirNext-Medium" font-size="28.0" fill="#838686" transform="matrix(1.00, 0.00, -0.00, -1.00, 320.8, 9.0)">t</text><text xml:space="preserve" font-family="AvenirNext-Medium" font-size="28.0" fill="#838686" transform="matrix(1.00, 0.00, -0.00, -1.00, 330.0, 9.0)">s</text></g></svg>