<?xml version="1.0" encoding="UTF-8" standalone="no"?><svg xmlns="http://www.w3.org/2000/svg" xmlns:xlink="http://www.w3.org/1999/xlink" clip-rule="evenodd" stroke-miterlimit="4.00" viewBox="0 0 229 43"><desc>SVG generated by Keynote</desc><defs></defs><g transform="matrix(1.00, 0.00, -0.00, -1.00, 0.0, 43.0)"><text xml:space="preserve" font-family="DINCondensed-Bold" font-weight="bold" font-size="48.0" fill="#34A4DA" transform="matrix(1.00, 0.00, -0.00, -1.00, 2.0, 7.0)">T</text><text xml:space="preserve" font-family="DINCondensed-Bold" font-weight="bold" font-size="48.0" fill="#34A4DA" transform="matrix(1.00, 0.00, -0.00, -1.00, 17.9, 7.0)">E</text><text xml:space="preserve" font-family="DINCondensed-Bold" font-weight="bold" font-size="48.0" fill="#34A4DA" transform="matrix(1.00, 0.00, -0.00, -1.00, 35.7, 7.0)">A</text><text xml:space="preserve" font-family="DINCondensed-Bold" font-weight="bold" font-size="48.0" fill="#34A4DA" transform="matrix(1.00, 0.00, -0.00, -1.00, 55.2, 7.0)">M</text><text xml:space="preserve" font-family="DINCondensed-Bold" font-weight="bold" font-size="48.0" fill="#34A4DA" transform="matrix(1.00, 0.00, -0.00, -1.00, 81.9, 7.0)">_</text><text xml:space="preserve" font-family="DINCondensed-Bold" font-weight="bold" font-size="48.0" fill="#34A4DA" transform="matrix(1.00, 0.00, -0.00, -1.00, 105.9, 7.0)">R</text><text xml:space="preserve" font-family="DINCondensed-Bold" font-weight="bold" font-size="48.0" fill="#34A4DA" transform="matrix(1.00, 0.00, -0.00, -1.00, 126.4, 7.0)">U</text><text xml:space="preserve" font-family="DINCondensed-Bold" font-weight="bold" font-size="48.0" fill="#34A4DA" transform="matrix(1.00, 0.00, -0.00, -1.00, 146.8, 7.0)">N</text><text xml:space="preserve" font-family="DINCondensed-Bold" font-weight="bold" font-size="48.0" fill="#34A4DA" transform="matrix(1.00, 0.00, -0.00, -1.00, 168.1, 7.0)">N</text><text xml:space="preserve" font-family="DINCondensed-Bold" font-weight="bold" font-size="48.0" fill="#34A4DA" transform="matrix(1.00, 0.00, -0.00, -1.00, 189.4, 7.0)">E</text><text xml:space="preserve" font-family="DINCondensed-Bold" font-weight="bold" font-size="48.0" fill="#34A4DA" transform="matrix(1.00, 0.00, -0.00, -1.00, 207.2, 7.0)">R</text></g></svg>