<?xml version="1.0" encoding="UTF-8" standalone="no"?><svg xmlns="http://www.w3.org/2000/svg" xmlns:xlink="http://www.w3.org/1999/xlink" clip-rule="evenodd" stroke-miterlimit="4.00" viewBox="0 0 92 102"><desc>SVG generated by Keynote</desc><defs></defs><g transform="matrix(1.00, 0.00, -0.00, -1.00, 0.0, 102.0)"><g><clipPath id="clip-43"><path d="M 1.0 1.0 L 91.0 1.0 L 91.0 100.0 L 1.0 100.0 Z M 1.0 1.0 "></path></clipPath><g clip-path="url(#clip-43)"><path d="M 3.6 72.5 L 46.3 47.8 L 89.0 72.5 L 46.3 97.1 Z M 3.6 72.5 " fill="#ECECEB"></path><path d="M 211.6 259.5 L 254.3 284.2 L 297.0 259.5 L 254.3 234.9 Z M 211.6 259.5 " fill="none" stroke="#555454" stroke-width="1.00" stroke-miterlimit="0.00" stroke-linejoin="round" transform="matrix(1.00, 0.00, 0.00, -1.00, -208.0, 332.0)"></path><path d="M 3.5 72.5 L 3.5 47.8 L 46.5 23.2 L 46.5 47.8 Z M 3.6 72.5 " fill="#CBCDCF"></path><path d="M 211.5 259.5 L 211.5 284.2 L 254.5 308.8 L 254.5 284.2 Z M 211.6 259.5 " fill="none" stroke="#555454" stroke-width="1.00" stroke-miterlimit="0.00" stroke-linejoin="round" transform="matrix(1.00, 0.00, 0.00, -1.00, -208.0, 332.0)"></path><path d="M 46.5 47.8 L 89.5 72.5 L 89.5 47.8 L 46.5 23.2 Z M 46.3 47.8 " fill="#B3B3B6"></path><path d="M 254.5 284.2 L 297.5 259.5 L 297.5 284.2 L 254.5 308.8 Z M 254.3 284.2 " fill="none" stroke="#555454" stroke-width="1.00" stroke-miterlimit="0.00" stroke-linejoin="round" transform="matrix(1.00, 0.00, 0.00, -1.00, -208.0, 332.0)"></path><path d="M 39.9 82.5 L 62.9 69.2 L 44.1 62.5 C 37.8 63.7 30.5 67.9 28.4 71.6 Z M 39.9 82.5 " fill="#707070"></path><path d="M 247.9 249.5 L 270.9 262.8 L 252.1 269.5 C 245.8 268.3 238.5 264.1 236.4 260.4 Z M 247.9 249.5 " fill="none" stroke="#707070" stroke-width="1.00" stroke-miterlimit="0.00" stroke-linejoin="round" transform="matrix(1.00, 0.00, 0.00, -1.00, -208.0, 332.0)"></path><path d="M 64.5 69.5 C 62.6 68.6 55.8 70.8 49.3 74.6 C 42.7 78.4 38.9 82.3 40.8 83.4 C 42.6 84.4 49.4 82.2 55.9 78.5 C 62.5 74.7 66.3 70.8 64.5 69.5 Z M 64.4 69.7 " fill="#707070"></path><path d="M 272.5 262.5 C 270.6 263.4 263.8 261.2 257.3 257.4 C 250.7 253.6 246.9 249.7 248.8 248.6 C 250.6 247.6 257.4 249.8 263.9 253.5 C 270.5 257.3 274.3 261.2 272.5 262.5 Z M 272.4 262.3 " fill="none" stroke="#ECECEB" stroke-width="1.00" stroke-miterlimit="0.00" stroke-linecap="round" stroke-linejoin="round" transform="matrix(1.00, 0.00, 0.00, -1.00, -208.0, 332.0)"></path><text xml:space="preserve" font-family="HelveticaNeue" font-size="10.0" fill="#000000" transform="matrix(1.00, 0.00, -0.00, -1.00, 15.5, 8.9)">S</text><text xml:space="preserve" font-family="HelveticaNeue" font-size="10.0" fill="#000000" transform="matrix(1.00, 0.00, -0.00, -1.00, 21.9, 8.9)">3</text><text xml:space="preserve" font-family="HelveticaNeue" font-size="10.0" fill="#000000" transform="matrix(1.00, 0.00, -0.00, -1.00, 27.5, 8.9)"> </text><text xml:space="preserve" font-family="HelveticaNeue" font-size="10.0" fill="#000000" transform="matrix(1.00, 0.00, -0.00, -1.00, 30.3, 8.9)">D</text><text xml:space="preserve" font-family="HelveticaNeue" font-size="10.0" fill="#000000" transform="matrix(1.00, 0.00, -0.00, -1.00, 37.3, 8.9)">a</text><text xml:space="preserve" font-family="HelveticaNeue" font-size="10.0" fill="#000000" transform="matrix(1.00, 0.00, -0.00, -1.00, 42.7, 8.9)">t</text><text xml:space="preserve" font-family="HelveticaNeue" font-size="10.0" fill="#000000" transform="matrix(1.00, 0.00, -0.00, -1.00, 45.8, 8.9)">a</text><text xml:space="preserve" font-family="HelveticaNeue" font-size="10.0" fill="#000000" transform="matrix(1.00, 0.00, -0.00, -1.00, 51.2, 8.9)"> </text><text xml:space="preserve" font-family="HelveticaNeue" font-size="10.0" fill="#000000" transform="matrix(1.00, 0.00, -0.00, -1.00, 54.0, 8.9)">N</text><text xml:space="preserve" font-family="HelveticaNeue" font-size="10.0" fill="#000000" transform="matrix(1.00, 0.00, -0.00, -1.00, 61.2, 8.9)">o</text><text xml:space="preserve" font-family="HelveticaNeue" font-size="10.0" fill="#000000" transform="matrix(1.00, 0.00, -0.00, -1.00, 66.9, 8.9)">d</text><text xml:space="preserve" font-family="HelveticaNeue" font-size="10.0" fill="#000000" transform="matrix(1.00, 0.00, -0.00, -1.00, 72.9, 8.9)">e</text></g></g></g></svg>