<?xml version="1.0" encoding="UTF-8" standalone="no"?><svg xmlns="http://www.w3.org/2000/svg" xmlns:xlink="http://www.w3.org/1999/xlink" clip-rule="evenodd" stroke-miterlimit="4.00" viewBox="0 0 126 126"><desc>SVG generated by Keynote</desc><defs></defs><g transform="matrix(1.00, 0.00, -0.00, -1.00, 0.0, 126.0)"><g><clipPath id="clip-45"><path d="M 1.0 1.0 L 125.0 1.0 L 125.0 124.0 L 1.0 124.0 Z M 1.0 1.0 "></path></clipPath><g clip-path="url(#clip-45)"><path d="M 416.5 170.2 L 416.5 204.6 L 373.2 229.5 L 366.6 229.5 L 297.5 189.3 L 297.5 162.6 L 346.7 134.5 L 353.3 134.5 Z M 416.2 170.2 " fill="none" stroke="#413F42" stroke-width="1.00" stroke-miterlimit="0.00" stroke-linejoin="round" transform="matrix(1.00, 0.00, 0.00, -1.00, -294.0, 254.0)"></path><path d="M 6.0 66.6 L 75.9 26.4 L 119.0 51.3 L 119.0 81.9 L 56.0 118.2 L 6.0 89.5 Z M 6.3 66.6 " fill="#E6E6E7"></path><path d="M 17.2 107.1 L 41.8 92.9 L 66.3 107.1 L 41.8 121.2 Z M 17.2 107.1 " fill="#1884D8"></path><path d="M 311.2 146.9 L 335.8 161.1 L 360.3 146.9 L 335.8 132.8 Z M 311.2 146.9 " fill="none" stroke="#409EEC" stroke-width="1.00" stroke-miterlimit="0.00" stroke-linejoin="round" transform="matrix(1.00, 0.00, 0.00, -1.00, -294.0, 254.0)"></path><path d="M 17.2 107.1 L 27.0 78.7 L 42.5 70.2 L 42.5 92.9 Z M 17.2 107.1 " fill="#146EB3"></path><path d="M 311.2 146.9 L 321.0 175.3 L 336.5 183.8 L 336.5 161.1 Z M 311.2 146.9 " fill="none" stroke="#42A1E9" stroke-width="1.00" stroke-miterlimit="0.00" transform="matrix(1.00, 0.00, 0.00, -1.00, -294.0, 254.0)"></path><path d="M 42.5 92.9 L 66.3 107.1 L 56.5 78.7 L 42.5 70.2 Z M 41.8 92.9 " fill="#10578F"></path><path d="M 336.5 161.1 L 360.3 146.9 L 350.5 175.3 L 336.5 183.8 Z M 335.8 161.1 " fill="none" stroke="#42A1E9" stroke-width="1.00" stroke-miterlimit="0.00" transform="matrix(1.00, 0.00, 0.00, -1.00, -294.0, 254.0)"></path><path d="M 99.6 78.9 L 89.8 95.9 Z M 99.6 78.9 " fill="#FEFEFE"></path><path d="M 393.6 175.1 L 383.8 158.1 Z M 393.6 175.1 " fill="none" stroke="#000000" stroke-width="1.00" stroke-miterlimit="0.00" stroke-linejoin="round" transform="matrix(1.00, 0.00, 0.00, -1.00, -294.0, 254.0)"></path><path d="M 75.5 61.9 L 99.5 47.7 L 99.5 78.9 L 90.5 84.6 L 90.5 95.9 L 75.5 104.4 Z M 75.1 61.9 " fill="#FEFEFE"></path><path d="M 369.5 192.1 L 393.5 206.3 L 393.5 175.1 L 384.5 169.4 L 384.5 158.1 L 369.5 149.6 Z M 369.1 192.1 " fill="none" stroke="#000000" stroke-width="1.00" stroke-miterlimit="0.00" stroke-linejoin="round" transform="matrix(1.00, 0.00, 0.00, -1.00, -294.0, 254.0)"></path><text xml:space="preserve" font-family="HelveticaNeue" font-size="10.0" fill="#000000" transform="matrix(1.00, 0.00, -0.00, -1.00, 27.4, 9.1)">C</text><text xml:space="preserve" font-family="HelveticaNeue" font-size="10.0" fill="#000000" transform="matrix(1.00, 0.00, -0.00, -1.00, 34.6, 9.1)">S</text><text xml:space="preserve" font-family="HelveticaNeue" font-size="10.0" fill="#000000" transform="matrix(1.00, 0.00, -0.00, -1.00, 41.1, 9.1)">V</text><text xml:space="preserve" font-family="HelveticaNeue" font-size="10.0" fill="#000000" transform="matrix(1.00, 0.00, -0.00, -1.00, 47.2, 9.1)"> </text><text xml:space="preserve" font-family="HelveticaNeue" font-size="10.0" fill="#000000" transform="matrix(1.00, 0.00, -0.00, -1.00, 50.0, 9.1)">D</text><text xml:space="preserve" font-family="HelveticaNeue" font-size="10.0" fill="#000000" transform="matrix(1.00, 0.00, -0.00, -1.00, 57.0, 9.1)">a</text><text xml:space="preserve" font-family="HelveticaNeue" font-size="10.0" fill="#000000" transform="matrix(1.00, 0.00, -0.00, -1.00, 62.4, 9.1)">t</text><text xml:space="preserve" font-family="HelveticaNeue" font-size="10.0" fill="#000000" transform="matrix(1.00, 0.00, -0.00, -1.00, 65.6, 9.1)">a</text><text xml:space="preserve" font-family="HelveticaNeue" font-size="10.0" fill="#000000" transform="matrix(1.00, 0.00, -0.00, -1.00, 70.9, 9.1)"> </text><text xml:space="preserve" font-family="HelveticaNeue" font-size="10.0" fill="#000000" transform="matrix(1.00, 0.00, -0.00, -1.00, 73.7, 9.1)">F</text><text xml:space="preserve" font-family="HelveticaNeue" font-size="10.0" fill="#000000" transform="matrix(1.00, 0.00, -0.00, -1.00, 79.5, 9.1)">o</text><text xml:space="preserve" font-family="HelveticaNeue" font-size="10.0" fill="#000000" transform="matrix(1.00, 0.00, -0.00, -1.00, 85.2, 9.1)">r</text><text xml:space="preserve" font-family="HelveticaNeue" font-size="10.0" fill="#000000" transform="matrix(1.00, 0.00, -0.00, -1.00, 88.5, 9.1)">m</text><text xml:space="preserve" font-family="HelveticaNeue" font-size="10.0" fill="#000000" transform="matrix(1.00, 0.00, -0.00, -1.00, 97.1, 9.1)">a</text><text xml:space="preserve" font-family="HelveticaNeue" font-size="10.0" fill="#000000" transform="matrix(1.00, 0.00, -0.00, -1.00, 102.4, 9.1)">t</text></g></g></g></svg>