<?xml version="1.0" encoding="UTF-8" standalone="no"?><svg xmlns="http://www.w3.org/2000/svg" xmlns:xlink="http://www.w3.org/1999/xlink" clip-rule="evenodd" stroke-miterlimit="4.00" viewBox="0 0 92 102"><desc>SVG generated by Keynote</desc><defs></defs><g transform="matrix(1.00, 0.00, -0.00, -1.00, 0.0, 102.0)"><g><clipPath id="clip-47"><path d="M 1.0 1.0 L 91.0 1.0 L 91.0 100.0 L 1.0 100.0 Z M 1.0 1.0 "></path></clipPath><g clip-path="url(#clip-47)"><path d="M 3.6 73.1 L 46.3 48.4 L 89.0 73.1 L 46.3 97.8 Z M 3.6 73.1 " fill="#ECECEB"></path><path d="M 22.6 386.9 L 65.3 411.6 L 108.0 386.9 L 65.3 362.2 Z M 22.6 386.9 " fill="none" stroke="#555454" stroke-width="1.00" stroke-miterlimit="0.00" stroke-linejoin="round" transform="matrix(1.00, 0.00, 0.00, -1.00, -19.0, 460.0)"></path><path d="M 3.5 73.1 L 3.5 48.4 L 46.5 23.8 L 46.5 48.4 Z M 3.6 73.1 " fill="#CBCDCF"></path><path d="M 22.5 386.9 L 22.5 411.6 L 65.5 436.2 L 65.5 411.6 Z M 22.6 386.9 " fill="none" stroke="#555454" stroke-width="1.00" stroke-miterlimit="0.00" stroke-linejoin="round" transform="matrix(1.00, 0.00, 0.00, -1.00, -19.0, 460.0)"></path><path d="M 46.5 48.4 L 89.5 73.1 L 89.5 48.4 L 46.5 23.8 Z M 46.3 48.4 " fill="#B3B3B6"></path><path d="M 65.5 411.6 L 108.5 386.9 L 108.5 411.6 L 65.5 436.2 Z M 65.3 411.6 " fill="none" stroke="#555454" stroke-width="1.00" stroke-miterlimit="0.00" stroke-linejoin="round" transform="matrix(1.00, 0.00, 0.00, -1.00, -19.0, 460.0)"></path><path d="M 39.9 83.1 L 62.9 69.8 L 44.1 63.1 C 37.8 64.4 30.5 68.6 28.4 72.3 Z M 39.9 83.1 " fill="#707070"></path><path d="M 58.9 376.9 L 81.9 390.2 L 63.1 396.9 C 56.8 395.6 49.5 391.4 47.4 387.7 Z M 58.9 376.9 " fill="none" stroke="#707070" stroke-width="1.00" stroke-miterlimit="0.00" stroke-linejoin="round" transform="matrix(1.00, 0.00, 0.00, -1.00, -19.0, 460.0)"></path><path d="M 64.5 70.5 C 62.6 69.3 55.8 71.5 49.3 75.2 C 42.7 79.0 38.9 82.9 40.8 84.0 C 42.6 85.0 49.4 82.8 55.9 79.1 C 62.5 75.3 66.3 71.4 64.5 70.5 Z M 64.4 70.3 " fill="#707070"></path><path d="M 83.5 389.5 C 81.6 390.7 74.8 388.5 68.3 384.8 C 61.7 381.0 57.9 377.1 59.8 376.0 C 61.6 375.0 68.4 377.2 74.9 380.9 C 81.5 384.7 85.3 388.6 83.5 389.5 Z M 83.4 389.7 " fill="none" stroke="#ECECEB" stroke-width="1.00" stroke-miterlimit="0.00" stroke-linecap="round" stroke-linejoin="round" transform="matrix(1.00, 0.00, 0.00, -1.00, -19.0, 460.0)"></path><text xml:space="preserve" font-family="HelveticaNeue" font-size="10.0" fill="#000000" transform="matrix(1.00, 0.00, -0.00, -1.00, 15.5, 9.5)">S</text><text xml:space="preserve" font-family="HelveticaNeue" font-size="10.0" fill="#000000" transform="matrix(1.00, 0.00, -0.00, -1.00, 21.9, 9.5)">3</text><text xml:space="preserve" font-family="HelveticaNeue" font-size="10.0" fill="#000000" transform="matrix(1.00, 0.00, -0.00, -1.00, 27.5, 9.5)"> </text><text xml:space="preserve" font-family="HelveticaNeue" font-size="10.0" fill="#000000" transform="matrix(1.00, 0.00, -0.00, -1.00, 30.3, 9.5)">D</text><text xml:space="preserve" font-family="HelveticaNeue" font-size="10.0" fill="#000000" transform="matrix(1.00, 0.00, -0.00, -1.00, 37.3, 9.5)">a</text><text xml:space="preserve" font-family="HelveticaNeue" font-size="10.0" fill="#000000" transform="matrix(1.00, 0.00, -0.00, -1.00, 42.7, 9.5)">t</text><text xml:space="preserve" font-family="HelveticaNeue" font-size="10.0" fill="#000000" transform="matrix(1.00, 0.00, -0.00, -1.00, 45.8, 9.5)">a</text><text xml:space="preserve" font-family="HelveticaNeue" font-size="10.0" fill="#000000" transform="matrix(1.00, 0.00, -0.00, -1.00, 51.2, 9.5)"> </text><text xml:space="preserve" font-family="HelveticaNeue" font-size="10.0" fill="#000000" transform="matrix(1.00, 0.00, -0.00, -1.00, 54.0, 9.5)">N</text><text xml:space="preserve" font-family="HelveticaNeue" font-size="10.0" fill="#000000" transform="matrix(1.00, 0.00, -0.00, -1.00, 61.2, 9.5)">o</text><text xml:space="preserve" font-family="HelveticaNeue" font-size="10.0" fill="#000000" transform="matrix(1.00, 0.00, -0.00, -1.00, 66.9, 9.5)">d</text><text xml:space="preserve" font-family="HelveticaNeue" font-size="10.0" fill="#000000" transform="matrix(1.00, 0.00, -0.00, -1.00, 72.9, 9.5)">e</text></g></g></g></svg>