<?xml version="1.0" encoding="UTF-8" standalone="no"?><svg xmlns="http://www.w3.org/2000/svg" xmlns:xlink="http://www.w3.org/1999/xlink" clip-rule="evenodd" stroke-miterlimit="4.00" viewBox="0 0 102 94"><desc>SVG generated by Keynote</desc><defs></defs><g transform="matrix(1.00, 0.00, -0.00, -1.00, 0.0, 94.0)"><g><clipPath id="clip-42"><path d="M 2.0 1.0 L 101.0 1.0 L 101.0 92.0 L 2.0 92.0 Z M 2.0 1.0 "></path></clipPath><g clip-path="url(#clip-42)"><path d="M 14.1 73.0 L 13.7 62.3 L 42.0 45.5 L 60.8 45.5 L 89.5 62.3 L 89.5 73.2 L 60.8 89.5 L 42.0 89.5 Z M 14.1 73.0 " fill="#ECECEB"></path><path d="M 649.1 165.0 L 648.7 175.7 L 677.0 192.5 L 695.8 192.5 L 724.5 175.7 L 724.5 164.8 L 695.8 148.5 L 677.0 148.5 Z M 649.1 165.0 " fill="none" stroke="#707070" stroke-width="1.00" stroke-miterlimit="0.00" stroke-linejoin="round" transform="matrix(1.00, 0.00, 0.00, -1.00, -635.0, 238.0)"></path><path d="M 13.5 62.3 L 4.3 51.4 L 13.5 73.2 Z M 13.7 62.3 " fill="#CBCDCF"></path><path d="M 648.5 175.7 L 639.3 186.6 L 648.5 164.8 Z M 648.7 175.7 " fill="none" stroke="#707070" stroke-width="1.00" stroke-miterlimit="0.00" stroke-linejoin="round" transform="matrix(1.00, 0.00, 0.00, -1.00, -635.0, 238.0)"></path><path d="M 98.5 51.4 L 89.5 62.3 L 89.5 73.2 Z M 98.5 51.4 " fill="#B3B3B6"></path><path d="M 733.5 186.6 L 724.5 175.7 L 724.5 164.8 Z M 733.5 186.6 " fill="none" stroke="#707070" stroke-width="1.00" stroke-miterlimit="0.00" stroke-linejoin="round" transform="matrix(1.00, 0.00, 0.00, -1.00, -635.0, 238.0)"></path><path d="M 60.8 45.5 L 51.4 24.2 L 42.0 45.5 Z M 60.8 46.0 " fill="#ECECEB"></path><path d="M 695.8 192.5 L 686.4 213.8 L 677.0 192.5 Z M 695.8 192.0 " fill="none" stroke="#707070" stroke-width="1.00" stroke-miterlimit="0.00" stroke-linejoin="round" transform="matrix(1.00, 0.00, 0.00, -1.00, -635.0, 238.0)"></path><path d="M 60.8 46.0 L 51.4 24.2 L 98.5 51.4 L 89.1 62.3 Z M 60.8 46.0 " fill="#B3B3B6"></path><path d="M 695.8 192.0 L 686.4 213.8 L 733.5 186.6 L 724.1 175.7 Z M 695.8 192.0 " fill="none" stroke="#707070" stroke-width="1.00" stroke-miterlimit="0.00" stroke-linejoin="round" transform="matrix(1.00, 0.00, 0.00, -1.00, -635.0, 238.0)"></path><path d="M 13.7 62.3 L 4.3 51.4 L 51.4 24.2 L 42.0 46.0 Z M 13.7 62.3 " fill="#CBCDCF"></path><path d="M 648.7 175.7 L 639.3 186.6 L 686.4 213.8 L 677.0 192.0 Z M 648.7 175.7 " fill="none" stroke="#707070" stroke-width="1.00" stroke-miterlimit="0.00" stroke-linejoin="round" transform="matrix(1.00, 0.00, 0.00, -1.00, -635.0, 238.0)"></path><path d="M 58.5 80.4 L 59.7 79.7 L 49.3 73.7 L 48.2 74.4 Z M 58.5 80.4 " fill="#707070"></path><path d="M 693.5 157.6 L 694.7 158.3 L 684.3 164.3 L 683.2 163.6 Z M 693.5 157.6 " fill="none" stroke="#707070" stroke-width="1.00" stroke-miterlimit="0.00" transform="matrix(1.00, 0.00, 0.00, -1.00, -635.0, 238.0)"></path><path d="M 43.3 71.6 L 44.4 70.9 L 34.1 64.9 L 32.9 65.6 Z M 43.3 71.6 " fill="#707070"></path><path d="M 678.3 166.4 L 679.4 167.1 L 669.1 173.1 L 667.9 172.4 Z M 678.3 166.4 " fill="none" stroke="#707070" stroke-width="1.00" stroke-miterlimit="0.00" transform="matrix(1.00, 0.00, 0.00, -1.00, -635.0, 238.0)"></path><path d="M 48.5 55.5 L 47.4 56.2 L 60.3 63.7 L 45.4 72.3 L 46.6 73.0 L 62.7 63.7 Z M 48.5 55.5 " fill="#707070"></path><path d="M 683.5 182.5 L 682.4 181.8 L 695.3 174.3 L 680.4 165.7 L 681.6 165.0 L 697.7 174.3 Z M 683.5 182.5 " fill="none" stroke="#707070" stroke-width="1.00" stroke-miterlimit="0.00" transform="matrix(1.00, 0.00, 0.00, -1.00, -635.0, 238.0)"></path><path d="M 51.4 75.7 L 39.5 76.7 L 40.5 69.4 L 53.0 68.5 Z M 51.4 75.7 " fill="#ECECEB"></path><path d="M 686.4 162.3 L 674.5 161.3 L 675.5 168.6 L 688.0 169.5 Z M 686.4 162.3 " fill="none" stroke="#707070" stroke-width="1.00" stroke-miterlimit="0.00" transform="matrix(1.00, 0.00, 0.00, -1.00, -635.0, 238.0)"></path><path d="M 39.7 69.0 L 38.5 77.3 L 52.1 76.2 L 54.0 67.9 Z M 40.4 76.1 L 41.3 69.9 L 52.0 69.1 L 50.6 75.3 Z M 40.4 76.1 " fill="#707070"></path><path d="M 674.7 169.0 L 673.5 160.7 L 687.1 161.8 L 689.0 170.1 Z M 675.4 161.9 L 676.3 168.1 L 687.0 168.9 L 685.6 162.7 Z M 675.4 161.9 " fill="none" stroke="#707070" stroke-width="1.00" stroke-miterlimit="0.00" transform="matrix(1.00, 0.00, 0.00, -1.00, -635.0, 238.0)"></path><path d="M 46.8 60.5 L 56.4 55.0 L 50.4 51.6 L 40.8 57.1 Z M 46.8 60.5 " fill="#ECECEB"></path><path d="M 681.8 177.5 L 691.4 183.0 L 685.4 186.4 L 675.8 180.9 Z M 681.8 177.5 " fill="none" stroke="#707070" stroke-width="1.00" stroke-miterlimit="0.00" transform="matrix(1.00, 0.00, 0.00, -1.00, -635.0, 238.0)"></path><path d="M 50.4 50.9 L 39.6 57.1 L 46.8 61.2 L 57.6 55.0 Z M 42.1 57.1 L 50.5 52.3 L 55.2 55.0 L 46.7 59.8 Z M 42.1 57.1 " fill="#707070"></path><path d="M 685.4 187.1 L 674.6 180.9 L 681.8 176.8 L 692.6 183.0 Z M 677.1 180.9 L 685.5 185.7 L 690.2 183.0 L 681.7 178.2 Z M 677.1 180.9 " fill="none" stroke="#707070" stroke-width="1.00" stroke-miterlimit="0.00" transform="matrix(1.00, 0.00, 0.00, -1.00, -635.0, 238.0)"></path><path d="M 56.8 84.2 L 66.4 78.6 L 60.5 75.2 L 50.9 80.7 Z M 56.8 84.2 " fill="#ECECEB"></path><path d="M 691.8 153.8 L 701.4 159.4 L 695.5 162.8 L 685.9 157.3 Z M 691.8 153.8 " fill="none" stroke="#707070" stroke-width="1.00" stroke-miterlimit="0.00" transform="matrix(1.00, 0.00, 0.00, -1.00, -635.0, 238.0)"></path><path d="M 60.5 74.5 L 49.7 80.7 L 56.8 84.9 L 67.6 78.6 Z M 52.1 80.8 L 60.5 75.9 L 65.2 78.6 L 56.8 83.5 Z M 52.1 80.8 " fill="#707070"></path><path d="M 695.5 163.5 L 684.7 157.3 L 691.8 153.1 L 702.6 159.4 Z M 687.1 157.2 L 695.5 162.1 L 700.2 159.4 L 691.8 154.5 Z M 687.1 157.2 " fill="none" stroke="#707070" stroke-width="1.00" stroke-miterlimit="0.00" transform="matrix(1.00, 0.00, 0.00, -1.00, -635.0, 238.0)"></path><path d="M 31.2 69.5 L 40.8 64.0 L 34.9 60.5 L 25.3 66.1 Z M 31.2 69.5 " fill="#ECECEB"></path><path d="M 666.2 168.5 L 675.8 174.0 L 669.9 177.5 L 660.3 171.9 Z M 666.2 168.5 " fill="none" stroke="#707070" stroke-width="1.00" stroke-miterlimit="0.00" transform="matrix(1.00, 0.00, 0.00, -1.00, -635.0, 238.0)"></path><path d="M 34.9 59.8 L 24.1 66.1 L 31.3 70.2 L 42.0 64.0 Z M 26.5 66.1 L 34.9 61.2 L 39.6 63.9 L 31.2 68.8 Z M 26.5 66.1 " fill="#707070"></path><path d="M 669.9 178.2 L 659.1 171.9 L 666.3 167.8 L 677.0 174.0 Z M 661.5 171.9 L 669.9 176.8 L 674.6 174.1 L 666.2 169.2 Z M 661.5 171.9 " fill="none" stroke="#707070" stroke-width="1.00" stroke-miterlimit="0.00" transform="matrix(1.00, 0.00, 0.00, -1.00, -635.0, 238.0)"></path><text xml:space="preserve" font-family="HelveticaNeue" font-size="10.0" fill="#000000" transform="matrix(1.00, 0.00, -0.00, -1.00, 7.5, 9.1)">C</text><text xml:space="preserve" font-family="HelveticaNeue" font-size="10.0" fill="#000000" transform="matrix(1.00, 0.00, -0.00, -1.00, 14.7, 9.1)">o</text><text xml:space="preserve" font-family="HelveticaNeue" font-size="10.0" fill="#000000" transform="matrix(1.00, 0.00, -0.00, -1.00, 20.4, 9.1)">n</text><text xml:space="preserve" font-family="HelveticaNeue" font-size="10.0" fill="#000000" transform="matrix(1.00, 0.00, -0.00, -1.00, 26.0, 9.1)">ﬁ</text><text xml:space="preserve" font-family="HelveticaNeue" font-size="10.0" fill="#000000" transform="matrix(1.00, 0.00, -0.00, -1.00, 31.2, 9.1)">g</text><text xml:space="preserve" font-family="HelveticaNeue" font-size="10.0" fill="#000000" transform="matrix(1.00, 0.00, -0.00, -1.00, 36.9, 9.1)"> </text><text xml:space="preserve" font-family="HelveticaNeue" font-size="10.0" fill="#000000" transform="matrix(1.00, 0.00, -0.00, -1.00, 39.7, 9.1)">&amp;</text><text xml:space="preserve" font-family="HelveticaNeue" font-size="10.0" fill="#000000" transform="matrix(1.00, 0.00, -0.00, -1.00, 46.0, 9.1)"> </text><text xml:space="preserve" font-family="HelveticaNeue" font-size="10.0" fill="#000000" transform="matrix(1.00, 0.00, -0.00, -1.00, 48.8, 9.1)">S</text><text xml:space="preserve" font-family="HelveticaNeue" font-size="10.0" fill="#000000" transform="matrix(1.00, 0.00, -0.00, -1.00, 55.3, 9.1)">c</text><text xml:space="preserve" font-family="HelveticaNeue" font-size="10.0" fill="#000000" transform="matrix(1.00, 0.00, -0.00, -1.00, 60.6, 9.1)">h</text><text xml:space="preserve" font-family="HelveticaNeue" font-size="10.0" fill="#000000" transform="matrix(1.00, 0.00, -0.00, -1.00, 66.2, 9.1)">e</text><text xml:space="preserve" font-family="HelveticaNeue" font-size="10.0" fill="#000000" transform="matrix(1.00, 0.00, -0.00, -1.00, 71.6, 9.1)">d</text><text xml:space="preserve" font-family="HelveticaNeue" font-size="10.0" fill="#000000" transform="matrix(1.00, 0.00, -0.00, -1.00, 77.5, 9.1)">u</text><text xml:space="preserve" font-family="HelveticaNeue" font-size="10.0" fill="#000000" transform="matrix(1.00, 0.00, -0.00, -1.00, 83.1, 9.1)">l</text><text xml:space="preserve" font-family="HelveticaNeue" font-size="10.0" fill="#000000" transform="matrix(1.00, 0.00, -0.00, -1.00, 85.3, 9.1)">e</text></g></g></g></svg>